<?xml version="1.0" standalone="no"?>
<!DOCTYPE svg PUBLIC "-//W3C//DTD SVG 20010904//EN"
 "http://www.w3.org/TR/2001/REC-SVG-20010904/DTD/svg10.dtd">
<svg version="1.0" xmlns="http://www.w3.org/2000/svg"
 width="4264.000000pt" height="1312.000000pt" viewBox="0 0 4264.000000 1312.000000"
 preserveAspectRatio="xMidYMid meet">

<g transform="translate(0.000000,1312.000000) scale(0.100000,-0.100000)"
fill="#000000" stroke="none">
<path d="M0 6560 l0 -6560 21320 0 21320 0 0 6560 0 6560 -21320 0 -21320 0 0
-6560z m7410 2250 l0 -790 -2145 0 c-1824 0 -2145 -2 -2145 -14 0 -36 33 -181
59 -257 61 -182 158 -338 295 -475 178 -176 355 -275 606 -337 82 -20 118 -21
1045 -27 866 -6 969 -8 1055 -24 334 -64 573 -188 800 -416 389 -391 519 -949
348 -1490 -66 -207 -173 -384 -333 -549 -218 -225 -453 -355 -764 -424 -95
-21 -108 -21 -1723 -24 l-1628 -3 0 795 0 795 2141 0 2142 0 -7 49 c-25 191
-120 413 -247 577 -54 71 -189 199 -270 256 -80 56 -220 128 -309 156 -174 57
-129 55 -1160 62 -918 6 -959 7 -1070 27 -302 57 -555 184 -766 386 -221 210
-361 462 -426 760 -19 86 -22 133 -22 297 0 211 14 301 70 468 153 459 546
823 1018 943 187 48 155 47 1844 48 l1592 1 0 -790z m4590 -2013 c396 -1522
720 -2772 720 -2777 0 -6 -49 -10 -120 -10 -66 0 -120 2 -120 5 0 2 -92 355
-205 784 -113 429 -205 783 -205 786 0 3 -287 5 -637 5 l-638 0 -415 -790
-415 -790 -753 0 -753 0 1041 2073 c572 1139 1204 2397 1403 2795 261 521 364
717 369 705 4 -10 332 -1264 728 -2786z m5250 0 c396 -1522 720 -2772 720
-2777 0 -6 -49 -10 -120 -10 -66 0 -120 2 -120 5 0 2 -92 355 -205 784 -113
429 -205 783 -205 786 0 3 -287 5 -637 5 l-638 0 -415 -790 -415 -790 -753 0
-753 0 1041 2073 c572 1139 1204 2397 1403 2795 261 521 364 717 369 705 4
-10 332 -1264 728 -2786z m6240 2013 l0 -790 -2145 0 -2145 0 6 -42 c54 -357
248 -664 547 -867 72 -49 242 -127 327 -151 178 -49 199 -50 1100 -50 844 0
986 -5 1140 -36 508 -105 928 -475 1089 -961 56 -167 88 -396 77 -543 -32
-420 -205 -776 -498 -1030 -196 -170 -393 -268 -668 -332 l-95 -22 -1632 -3
-1633 -3 0 795 0 795 2144 0 2145 0 -6 38 c-44 286 -199 576 -404 752 -134
116 -252 186 -401 238 -192 68 -136 65 -1193 72 -1036 8 -1006 6 -1218 64
-474 129 -859 505 -1001 979 -46 151 -60 251 -60 422 -1 437 163 800 495 1100
216 194 497 316 824 358 17 2 744 5 1618 6 l1587 1 0 -790z m2272 -1122 c107
-50 179 -148 201 -272 28 -165 -80 -341 -241 -392 -76 -23 -201 -16 -267 16
-68 33 -141 108 -172 178 -34 73 -38 202 -10 271 42 103 103 165 204 207 81
34 202 31 285 -8z m5830 3 c75 -36 134 -94 170 -169 30 -60 33 -75 33 -157 0
-82 -3 -97 -33 -157 -40 -82 -111 -149 -190 -178 -82 -31 -215 -25 -290 14
-140 71 -216 223 -191 380 21 129 118 242 242 282 64 21 200 13 259 -15z
m-3182 -646 l0 -415 585 0 585 0 0 -195 0 -195 -585 0 -586 0 3 -737 c3 -684
5 -742 22 -793 57 -171 147 -262 311 -317 75 -25 91 -27 270 -27 194 -1 304
11 488 54 l77 17 0 -197 0 -197 -77 -16 c-121 -26 -195 -35 -368 -48 -599 -43
-965 113 -1108 472 -70 175 -77 278 -77 1106 l0 683 -362 2 -363 3 0 190 0
190 362 3 363 2 2 357 3 357 215 57 c118 32 221 58 228 58 9 1 12 -88 12 -414z
m9203 -404 c300 -69 535 -245 672 -504 114 -214 162 -476 148 -809 l-6 -158
-920 0 -920 0 7 -88 c9 -123 40 -243 87 -341 33 -67 58 -102 128 -171 70 -72
101 -95 172 -129 173 -83 370 -112 645 -93 192 14 389 41 549 77 60 14 113 25
117 25 5 0 8 -83 8 -185 l0 -184 -37 -11 c-179 -51 -499 -95 -758 -106 -734
-30 -1174 244 -1330 827 -63 235 -78 588 -36 823 52 290 166 528 342 711 179
186 387 297 624 335 102 15 407 4 508 -19z m-11703 -1131 l0 -1120 390 0 390
0 0 -190 0 -190 -1050 0 -1050 0 0 190 0 190 430 0 430 0 0 930 0 930 -385 0
-385 0 0 190 0 190 615 0 615 0 0 -1120z m5830 0 l0 -1120 390 0 390 0 0 -190
0 -190 -1050 0 -1050 0 0 190 0 190 430 0 430 0 0 930 0 930 -385 0 -385 0 0
190 0 190 615 0 615 0 0 -1120z m2167 240 c178 -481 351 -962 385 -1067 34
-106 65 -193 68 -193 3 0 30 78 60 172 30 95 204 575 386 1068 l331 895 246 3
c194 2 247 0 247 -10 0 -7 -229 -596 -509 -1308 l-508 -1295 -264 0 -264 0
-507 1295 c-279 712 -508 1301 -508 1308 0 10 55 12 256 10 l256 -3 325 -875z"/>
<path d="M4230 9353 c-72 -7 -198 -35 -275 -60 -433 -140 -766 -535 -830 -985
l-7 -48 2026 0 2026 0 0 550 0 550 -1452 -2 c-799 0 -1469 -3 -1488 -5z"/>
<path d="M3120 4780 l0 -561 1498 4 c1396 3 1502 4 1572 21 170 40 314 101
441 186 98 66 295 270 352 366 89 150 156 339 173 491 l7 53 -2022 0 -2021 0
0 -560z"/>
<path d="M10723 7992 l-471 -937 242 -532 c132 -293 243 -533 246 -533 8 0
810 1526 810 1540 0 13 -350 1393 -354 1397 -1 2 -214 -419 -473 -935z"/>
<path d="M11635 7160 c-5 -8 -166 -310 -357 -670 l-348 -655 532 -3 c292 -1
533 -1 534 1 3 2 -333 1280 -349 1332 -2 5 -7 2 -12 -5z"/>
<path d="M9481 5514 c-347 -697 -631 -1268 -631 -1270 0 -2 218 -4 484 -4
l484 0 326 619 c180 341 354 673 388 738 l62 118 -233 525 c-129 289 -237 529
-241 533 -4 5 -292 -562 -639 -1259z"/>
<path d="M15973 7992 l-471 -937 242 -532 c132 -293 243 -533 246 -533 8 0
810 1526 810 1540 0 13 -350 1393 -354 1397 -1 2 -214 -419 -473 -935z"/>
<path d="M16885 7160 c-5 -8 -166 -310 -357 -670 l-348 -655 532 -3 c292 -1
533 -1 534 1 3 2 -333 1280 -349 1332 -2 5 -7 2 -12 -5z"/>
<path d="M14731 5514 c-347 -697 -631 -1268 -631 -1270 0 -2 218 -4 484 -4
l484 0 326 619 c180 341 354 673 388 738 l62 118 -233 525 c-129 289 -237 529
-241 533 -4 5 -292 -562 -639 -1259z"/>
<path d="M20255 9344 c-271 -42 -484 -146 -679 -333 -205 -198 -322 -422 -371
-713 l-6 -38 2031 0 2030 0 0 550 0 550 -1457 -1 c-1191 -1 -1474 -3 -1548
-15z"/>
<path d="M19200 4780 l0 -560 1451 0 c1265 0 1465 2 1557 16 268 40 487 150
681 343 149 148 247 310 305 503 22 74 32 117 50 226 l6 32 -2025 0 -2025 0 0
-560z"/>
<path d="M37146 6294 c-235 -52 -408 -220 -495 -479 -26 -78 -61 -239 -61
-281 0 -12 112 -14 686 -14 l687 0 -6 118 c-15 294 -141 500 -372 607 -38 18
-95 38 -125 44 -94 20 -238 22 -314 5z"/>
</g>
</svg>
