<?xml version="1.0" standalone="no"?>
<!DOCTYPE svg PUBLIC "-//W3C//DTD SVG 20010904//EN"
 "http://www.w3.org/TR/2001/REC-SVG-20010904/DTD/svg10.dtd">
<svg version="1.0" xmlns="http://www.w3.org/2000/svg"
 width="2592.000000pt" height="1744.000000pt" viewBox="0 0 2592.000000 1744.000000"
 preserveAspectRatio="xMidYMid meet">

<g transform="translate(0.000000,1744.000000) scale(0.100000,-0.100000)"
fill="#000000" stroke="none">
<path d="M0 8720 l0 -8720 12960 0 12960 0 0 8720 0 8720 -12960 0 -12960 0 0
-8720z m6530 4970 l0 -790 -2145 0 c-1824 0 -2145 -2 -2145 -14 0 -36 33 -181
59 -257 61 -182 158 -338 295 -475 178 -176 355 -275 606 -337 82 -20 118 -21
1045 -27 866 -6 969 -8 1055 -24 334 -64 573 -188 800 -416 389 -391 519 -949
348 -1490 -66 -207 -173 -384 -333 -549 -218 -225 -453 -355 -764 -424 -95
-21 -108 -21 -1723 -24 l-1628 -3 0 795 0 795 2141 0 2142 0 -7 49 c-25 191
-120 413 -247 577 -54 71 -189 199 -270 256 -80 56 -220 128 -309 156 -174 57
-129 55 -1160 62 -918 6 -959 7 -1070 27 -302 57 -555 184 -766 386 -221 210
-361 462 -426 760 -19 86 -22 133 -22 297 0 211 14 301 70 468 153 459 546
823 1018 943 187 48 155 47 1844 48 l1592 1 0 -790z m4590 -2013 c396 -1522
720 -2772 720 -2777 0 -6 -49 -10 -120 -10 -66 0 -120 2 -120 5 0 2 -92 355
-205 784 -113 429 -205 783 -205 786 0 3 -287 5 -637 5 l-638 0 -415 -790
-415 -790 -753 0 -753 0 1041 2073 c572 1139 1204 2397 1403 2795 261 521 364
717 369 705 4 -10 332 -1264 728 -2786z m5250 0 c396 -1522 720 -2772 720
-2777 0 -6 -49 -10 -120 -10 -66 0 -120 2 -120 5 0 2 -92 355 -205 784 -113
429 -205 783 -205 786 0 3 -287 5 -637 5 l-638 0 -415 -790 -415 -790 -753 0
-753 0 1041 2073 c572 1139 1204 2397 1403 2795 261 521 364 717 369 705 4
-10 332 -1264 728 -2786z m6240 2013 l0 -790 -2145 0 -2145 0 6 -42 c54 -357
248 -664 547 -867 72 -49 242 -127 327 -151 178 -49 199 -50 1100 -50 844 0
986 -5 1140 -36 508 -105 928 -475 1089 -961 56 -167 88 -396 77 -543 -32
-420 -205 -776 -498 -1030 -196 -170 -393 -268 -668 -332 l-95 -22 -1632 -3
-1633 -3 0 795 0 795 2144 0 2145 0 -6 38 c-44 286 -199 576 -404 752 -134
116 -252 186 -401 238 -192 68 -136 65 -1193 72 -1036 8 -1006 6 -1218 64
-474 129 -859 505 -1001 979 -46 151 -60 251 -60 422 -1 437 163 800 495 1100
216 194 497 316 824 358 17 2 744 5 1618 6 l1587 1 0 -790z m-16493 -6282 c73
-27 146 -95 185 -175 28 -58 32 -75 32 -152 1 -76 -3 -94 -30 -151 -120 -252
-460 -285 -615 -59 -99 143 -86 326 31 453 97 105 252 138 397 84z m5758 21
c115 -21 206 -90 262 -199 25 -49 28 -66 28 -150 0 -82 -4 -103 -26 -150 -39
-82 -90 -135 -167 -172 -61 -30 -74 -33 -162 -33 -83 1 -102 4 -152 28 -74 36
-150 119 -178 195 -34 89 -31 192 8 276 52 111 148 187 259 206 68 11 64 11
128 -1z m-3095 -674 l0 -415 585 0 585 0 0 -190 0 -190 -585 0 -586 0 4 -737
c3 -805 1 -775 62 -900 53 -108 165 -190 315 -230 134 -36 462 -19 698 37 46
11 86 20 88 20 2 0 3 -89 2 -197 l-3 -198 -106 -21 c-151 -31 -308 -44 -511
-44 -279 0 -425 27 -597 112 -245 121 -373 335 -401 673 -5 66 -10 427 -10
803 l0 682 -365 0 -365 0 0 190 0 190 365 0 365 0 0 354 c0 242 3 357 11 361
14 9 409 113 432 114 16 1 17 -25 17 -414z m9029 -376 c469 -44 793 -298 929
-729 51 -162 66 -286 65 -532 -1 -120 -4 -222 -8 -228 -4 -7 -301 -10 -922
-10 l-916 0 8 -92 c32 -410 268 -663 673 -718 128 -18 466 -7 640 19 147 23
323 58 359 72 17 6 25 5 29 -4 2 -7 3 -91 2 -187 l-3 -175 -36 -12 c-132 -43
-474 -93 -699 -102 -391 -15 -642 26 -865 139 -353 181 -538 519 -576 1053
-46 642 209 1168 676 1397 205 101 394 133 644 109z m-11529 -1159 l0 -1120
390 0 390 0 0 -190 0 -190 -1050 0 -1050 0 0 190 0 190 430 0 430 0 0 930 0
930 -385 0 -385 0 0 190 0 190 615 0 615 0 0 -1120z m5830 0 l0 -1120 390 0
390 0 0 -190 0 -190 -1050 0 -1050 0 0 190 0 190 430 0 430 0 0 930 0 930
-385 0 -385 0 0 190 0 190 615 0 615 0 0 -1120z m2157 270 c172 -465 345 -943
385 -1062 40 -120 75 -218 78 -218 3 0 38 98 78 218 40 119 213 597 385 1062
l312 845 249 3 248 2 -6 -22 c-3 -13 -232 -601 -510 -1308 l-504 -1285 -263 0
-262 0 -504 1285 c-277 707 -506 1295 -509 1308 l-6 22 258 -2 257 -3 314
-845z"/>
<path d="M3350 14233 c-72 -7 -198 -35 -275 -60 -433 -140 -766 -535 -830
-985 l-7 -48 2026 0 2026 0 0 550 0 550 -1452 -2 c-799 0 -1469 -3 -1488 -5z"/>
<path d="M2240 9660 l0 -561 1498 4 c1396 3 1502 4 1572 21 170 40 314 101
441 186 98 66 295 270 352 366 89 150 156 339 173 491 l7 53 -2022 0 -2021 0
0 -560z"/>
<path d="M9843 12872 l-471 -937 242 -532 c132 -293 243 -533 246 -533 8 0
810 1526 810 1540 0 13 -350 1393 -354 1397 -1 2 -214 -419 -473 -935z"/>
<path d="M10755 12040 c-5 -8 -166 -310 -357 -670 l-348 -655 532 -3 c292 -1
533 -1 534 1 3 2 -333 1280 -349 1332 -2 5 -7 2 -12 -5z"/>
<path d="M8601 10394 c-347 -697 -631 -1268 -631 -1270 0 -2 218 -4 484 -4
l484 0 326 619 c180 341 354 673 388 738 l62 118 -233 525 c-129 289 -237 529
-241 533 -4 5 -292 -562 -639 -1259z"/>
<path d="M15093 12872 l-471 -937 242 -532 c132 -293 243 -533 246 -533 8 0
810 1526 810 1540 0 13 -350 1393 -354 1397 -1 2 -214 -419 -473 -935z"/>
<path d="M16005 12040 c-5 -8 -166 -310 -357 -670 l-348 -655 532 -3 c292 -1
533 -1 534 1 3 2 -333 1280 -349 1332 -2 5 -7 2 -12 -5z"/>
<path d="M13851 10394 c-347 -697 -631 -1268 -631 -1270 0 -2 218 -4 484 -4
l484 0 326 619 c180 341 354 673 388 738 l62 118 -233 525 c-129 289 -237 529
-241 533 -4 5 -292 -562 -639 -1259z"/>
<path d="M19375 14224 c-271 -42 -484 -146 -679 -333 -205 -198 -322 -422
-371 -713 l-6 -38 2031 0 2030 0 0 550 0 550 -1457 -1 c-1191 -1 -1474 -3
-1548 -15z"/>
<path d="M18320 9660 l0 -560 1451 0 c1265 0 1465 2 1557 16 268 40 487 150
681 343 149 148 247 310 305 503 22 74 32 117 50 226 l6 32 -2025 0 -2025 0 0
-560z"/>
<path d="M17505 6006 c-295 -69 -485 -321 -540 -718 l-6 -48 687 0 687 0 -6
113 c-16 318 -176 548 -439 632 -103 33 -287 43 -383 21z"/>
</g>
</svg>
