<svg id="svg" version="1.1" xmlns="http://www.w3.org/2000/svg" xmlns:xlink="http://www.w3.org/1999/xlink" width="400" height="133.06122448979593" viewBox="0, 0, 400,133.06122448979593"><g id="svgg"><path id="path0" d="M30.667 34.663 C 14.895 37.971,14.958 59.828,30.750 63.757 C 31.025 63.825,35.900 63.935,41.583 64.000 C 52.929 64.130,52.830 64.121,55.249 65.228 C 58.842 66.873,61.860 70.801,62.405 74.542 L 62.520 75.333 40.677 75.333 L 18.833 75.333 18.833 83.421 L 18.833 91.509 35.792 91.463 L 52.750 91.417 54.250 90.947 C 68.471 86.498,68.236 66.305,53.917 62.312 C 52.627 61.952,52.241 61.936,42.250 61.823 C 31.354 61.699,31.249 61.691,29.057 60.844 C 25.000 59.276,21.167 54.316,21.167 50.635 C 21.167 50.345,22.034 50.333,43.000 50.333 L 64.833 50.333 64.833 42.333 L 64.833 34.333 48.458 34.349 C 33.426 34.364,31.967 34.390,30.667 34.663 M150.000 50.116 C 145.646 58.786,139.223 71.588,135.727 78.565 L 129.370 91.250 136.886 91.293 C 142.763 91.327,144.443 91.291,144.594 91.127 C 144.784 90.920,145.160 90.223,147.766 85.250 C 148.486 83.875,149.979 81.025,151.084 78.917 L 153.092 75.083 159.549 75.040 L 166.005 74.996 166.167 75.373 C 166.256 75.580,166.598 76.800,166.927 78.083 C 167.255 79.367,167.664 80.942,167.835 81.583 C 168.172 82.850,168.898 85.640,169.680 88.667 C 170.409 91.490,170.298 91.333,171.580 91.333 C 172.263 91.333,172.667 91.265,172.667 91.149 C 172.667 90.985,171.983 88.288,170.727 83.500 C 170.182 81.422,169.451 78.616,168.729 75.833 C 167.742 72.028,167.169 69.828,166.667 67.917 C 166.190 66.102,165.842 64.765,164.500 59.583 C 164.120 58.117,163.670 56.392,163.500 55.750 C 163.330 55.108,162.880 53.383,162.500 51.917 C 161.158 46.735,160.810 45.398,160.333 43.583 C 160.068 42.575,159.618 40.850,159.331 39.750 C 158.526 36.653,157.988 34.595,157.950 34.467 C 157.932 34.404,154.354 41.445,150.000 50.116 M195.105 34.592 C 179.580 37.677,178.756 59.187,193.996 63.540 C 195.197 63.883,195.690 63.903,205.583 64.007 C 215.464 64.112,215.974 64.132,217.233 64.476 C 222.126 65.811,225.710 69.773,226.566 74.792 L 226.658 75.333 204.746 75.333 L 182.833 75.333 182.833 83.422 L 182.833 91.510 199.875 91.460 C 216.815 91.410,216.924 91.407,218.083 91.048 C 232.673 86.531,232.556 66.451,217.917 62.276 C 216.829 61.965,216.046 61.935,206.333 61.830 C 194.600 61.702,194.986 61.741,192.208 60.387 C 188.646 58.650,185.333 54.027,185.333 50.792 L 185.333 50.333 207.167 50.333 L 229.000 50.333 229.000 42.333 L 229.000 34.333 212.625 34.349 C 199.512 34.362,196.022 34.410,195.105 34.592 M104.073 34.889 C 103.979 35.088,97.586 47.825,89.867 63.195 C 82.149 78.565,75.833 91.184,75.833 91.237 C 75.833 91.290,79.240 91.333,83.404 91.333 L 90.974 91.333 91.928 89.542 C 93.276 87.009,94.110 85.426,95.503 82.750 C 96.171 81.467,96.921 80.042,97.168 79.583 C 97.416 79.125,97.943 78.112,98.339 77.333 C 98.736 76.554,99.203 75.710,99.376 75.456 L 99.692 74.996 106.121 75.040 L 112.550 75.083 112.925 76.500 C 113.131 77.279,113.802 79.829,114.415 82.167 C 115.892 87.795,116.462 89.953,116.673 90.708 L 116.847 91.333 118.010 91.333 L 119.173 91.333 119.072 90.875 C 119.016 90.623,118.905 90.192,118.825 89.917 C 118.746 89.642,118.449 88.517,118.165 87.417 C 117.646 85.406,116.559 81.223,115.350 76.583 C 113.962 71.253,113.331 68.830,112.747 66.583 C 112.413 65.300,111.954 63.538,111.728 62.667 C 111.501 61.796,111.023 59.958,110.667 58.583 C 109.860 55.472,109.336 53.463,108.692 51.000 C 108.417 49.946,107.918 48.033,107.585 46.750 C 107.251 45.467,106.801 43.742,106.584 42.917 C 105.278 37.942,104.611 35.371,104.540 35.039 C 104.429 34.515,104.275 34.465,104.073 34.889 M62.667 42.333 L 62.667 48.000 41.898 48.000 L 21.129 48.000 21.245 47.224 C 21.943 42.574,25.886 38.302,30.583 37.109 C 32.156 36.709,31.810 36.718,47.625 36.692 L 62.667 36.667 62.667 42.333 M226.750 42.333 L 226.750 47.917 206.042 47.959 L 185.333 48.001 185.336 47.626 C 185.368 43.413,189.914 38.290,194.667 37.111 C 196.310 36.703,195.777 36.715,211.750 36.733 L 226.750 36.750 226.750 42.333 M104.757 45.250 C 105.266 47.267,106.056 50.379,106.513 52.167 L 107.344 55.417 105.896 58.167 C 105.100 59.679,103.935 61.892,103.307 63.083 C 102.680 64.275,101.472 66.581,100.625 68.207 C 99.777 69.834,99.044 71.165,98.995 71.166 C 98.947 71.166,97.796 68.710,96.438 65.708 L 93.969 60.250 98.776 50.622 C 102.269 43.627,103.617 41.075,103.707 41.289 C 103.776 41.451,104.248 43.233,104.757 45.250 M157.333 41.270 C 157.333 41.327,158.017 44.046,158.853 47.312 C 159.689 50.578,160.487 53.748,160.625 54.357 L 160.876 55.464 159.332 58.440 C 158.483 60.077,157.734 61.492,157.668 61.583 C 157.602 61.675,156.847 63.100,155.989 64.750 C 152.947 70.603,152.686 71.083,152.553 71.060 C 152.478 71.048,151.322 68.610,149.982 65.644 L 147.547 60.250 152.314 50.708 C 156.464 42.404,157.333 40.769,157.333 41.270 M249.042 53.909 C 245.536 55.913,247.238 61.078,251.249 60.604 C 253.364 60.355,254.777 58.101,254.143 55.987 C 253.517 53.899,250.915 52.838,249.042 53.909 M308.750 53.776 C 305.080 55.708,306.633 61.090,310.720 60.608 C 314.164 60.201,314.952 55.451,311.837 53.875 C 310.951 53.427,309.503 53.380,308.750 53.776 M278.500 56.293 C 278.362 56.348,277.462 56.593,276.500 56.837 L 274.750 57.282 274.705 60.974 L 274.660 64.667 270.908 64.667 L 267.156 64.667 267.203 66.542 L 267.250 68.417 270.958 68.462 L 274.667 68.506 274.667 76.072 C 274.667 85.372,274.842 86.573,276.504 88.672 C 278.579 91.291,283.975 92.280,290.042 91.152 L 291.167 90.942 291.167 88.968 L 291.167 86.994 290.708 87.097 C 290.456 87.154,289.987 87.265,289.667 87.345 C 286.086 88.231,281.874 87.670,280.583 86.136 C 279.370 84.694,279.422 85.112,279.369 76.375 L 279.321 68.500 285.244 68.500 L 291.167 68.500 291.167 66.583 L 291.167 64.667 285.250 64.667 L 279.333 64.667 279.333 60.417 C 279.333 55.839,279.356 55.951,278.500 56.293 M108.392 59.458 C 108.447 59.710,108.794 61.042,109.163 62.417 C 109.532 63.792,110.137 66.072,110.506 67.484 C 110.876 68.896,111.326 70.601,111.506 71.272 C 111.686 71.944,111.833 72.570,111.833 72.664 C 111.833 72.775,109.955 72.833,106.333 72.833 C 103.308 72.833,100.833 72.812,100.833 72.785 C 100.833 72.758,101.569 71.352,102.468 69.660 C 103.366 67.968,104.598 65.646,105.205 64.500 C 105.813 63.354,106.657 61.779,107.081 61.000 C 107.506 60.221,107.895 59.452,107.946 59.292 C 108.082 58.863,108.278 58.936,108.392 59.458 M162.060 59.875 C 162.198 60.356,162.548 61.650,162.838 62.750 C 163.127 63.850,163.611 65.688,163.913 66.833 C 165.093 71.316,165.345 72.261,165.432 72.542 C 165.517 72.815,165.183 72.833,160.011 72.833 C 156.980 72.833,154.500 72.771,154.500 72.695 C 154.500 72.618,154.937 71.737,155.471 70.736 C 156.005 69.735,156.877 68.092,157.407 67.083 C 159.795 62.547,161.702 59.000,161.753 59.000 C 161.784 59.000,161.922 59.394,162.060 59.875 M94.174 66.333 C 94.922 68.029,95.668 69.717,95.833 70.083 C 95.998 70.450,96.450 71.456,96.838 72.319 L 97.542 73.888 97.111 74.736 C 96.873 75.202,96.203 76.483,95.621 77.583 C 95.039 78.683,93.673 81.271,92.586 83.333 C 91.500 85.396,90.379 87.513,90.097 88.039 L 89.583 88.994 84.625 88.997 C 81.898 88.999,79.667 88.960,79.667 88.910 C 79.667 88.577,92.563 62.997,92.675 63.109 C 92.752 63.186,93.427 64.637,94.174 66.333 M146.475 63.458 C 146.571 63.710,147.658 66.167,148.891 68.917 L 151.132 73.917 150.418 75.250 C 150.025 75.983,148.974 77.971,148.082 79.667 C 145.401 84.768,144.831 85.848,143.969 87.458 L 143.144 89.000 138.141 89.000 C 135.390 89.000,133.164 88.939,133.194 88.864 C 133.538 88.021,146.112 63.002,146.192 63.001 C 146.252 63.000,146.379 63.206,146.475 63.458 M368.250 64.274 C 361.054 65.437,356.965 72.342,358.177 81.280 C 358.899 86.608,361.742 90.013,366.500 91.249 C 369.311 91.979,376.508 91.650,379.625 90.648 L 380.167 90.474 380.167 88.643 C 380.167 86.979,380.140 86.818,379.875 86.891 C 378.143 87.368,373.530 87.995,371.730 87.998 C 366.360 88.008,362.667 84.709,362.667 79.903 L 362.667 79.503 372.042 79.460 L 381.417 79.417 381.408 76.583 C 381.390 70.753,379.634 67.370,375.583 65.361 C 373.788 64.471,370.263 63.949,368.250 64.274 M241.167 66.497 L 241.167 68.327 245.125 68.372 L 249.083 68.417 249.126 77.958 L 249.169 87.500 244.751 87.500 L 240.333 87.500 240.333 89.417 L 240.333 91.333 251.000 91.333 L 261.667 91.333 261.667 89.420 L 261.667 87.506 257.708 87.461 L 253.750 87.417 253.707 76.042 L 253.664 64.667 247.416 64.667 L 241.167 64.667 241.167 66.497 M300.667 66.497 L 300.667 68.327 304.625 68.372 L 308.583 68.417 308.626 77.958 L 308.669 87.500 304.246 87.500 L 299.822 87.500 299.870 89.375 L 299.917 91.250 310.542 91.293 L 321.167 91.336 321.167 89.421 L 321.167 87.506 317.208 87.461 L 313.250 87.417 313.207 76.042 L 313.164 64.667 306.916 64.667 L 300.667 64.667 300.667 66.497 M327.182 65.537 C 328.072 67.789,330.524 74.049,332.587 79.333 C 334.604 84.500,335.425 86.594,336.378 89.000 L 337.268 91.250 339.903 91.250 L 342.537 91.250 342.762 90.667 C 343.068 89.875,345.359 84.015,346.249 81.750 C 347.607 78.290,349.193 74.247,350.204 71.667 C 350.761 70.246,351.612 68.088,352.095 66.871 L 352.975 64.658 350.463 64.704 L 347.951 64.750 346.957 67.417 C 342.478 79.437,341.154 83.068,340.564 84.957 C 340.300 85.804,340.046 86.497,340.000 86.497 C 339.954 86.497,339.700 85.804,339.436 84.957 C 338.846 83.068,337.521 79.432,333.043 67.417 L 332.049 64.750 329.442 64.704 L 326.835 64.658 327.182 65.537 M372.225 68.171 C 374.859 68.985,376.537 71.358,376.788 74.625 L 376.881 75.833 369.774 75.833 C 365.865 75.833,362.667 75.804,362.667 75.768 C 362.667 70.505,367.456 66.698,372.225 68.171 M62.430 78.515 C 61.815 83.151,58.282 87.201,53.528 88.720 C 52.432 89.070,52.202 89.075,36.792 89.126 L 21.167 89.178 21.167 83.422 L 21.167 77.667 41.855 77.667 L 62.543 77.667 62.430 78.515 M226.571 78.375 C 225.893 83.182,222.575 87.062,217.750 88.689 L 216.583 89.082 200.958 89.130 L 185.333 89.178 185.333 83.422 L 185.333 77.667 206.002 77.667 L 226.671 77.667 226.571 78.375 " stroke="none" fill="#05444d" fill-rule="evenodd"></path><path id="path1" d="M0.000 66.500 L 0.000 133.000 200.000 133.000 L 400.000 133.000 400.000 66.500 L 400.000 0.000 200.000 0.000 L 0.000 0.000 0.000 66.500 M65.000 42.333 L 65.000 50.500 43.145 50.500 L 21.290 50.500 21.396 51.292 C 21.921 55.229,25.307 59.344,29.228 60.811 C 31.170 61.537,31.289 61.545,41.917 61.667 C 50.765 61.768,52.406 61.825,53.333 62.064 C 68.629 65.999,68.896 86.939,53.705 91.208 C 52.428 91.566,52.273 91.570,35.542 91.623 L 18.667 91.677 18.667 83.505 L 18.667 75.333 40.521 75.333 L 62.376 75.333 62.264 74.491 C 61.786 70.880,58.794 66.978,55.250 65.342 C 52.930 64.271,53.210 64.295,41.917 64.166 C 35.278 64.090,31.315 63.981,30.833 63.861 C 27.166 62.953,25.133 61.812,22.804 59.357 C 15.285 51.428,18.628 38.366,29.037 35.003 C 31.495 34.209,31.612 34.204,48.792 34.185 L 65.000 34.167 65.000 42.333 M158.329 35.526 C 158.498 36.199,158.825 37.462,159.057 38.333 C 159.748 40.935,160.370 43.318,162.164 50.250 C 162.425 51.258,162.875 52.983,163.164 54.083 C 163.454 55.183,163.943 57.058,164.251 58.250 C 164.559 59.442,165.008 61.167,165.248 62.083 C 165.488 63.000,165.947 64.762,166.268 66.000 C 166.589 67.237,167.068 69.075,167.334 70.083 C 168.008 72.645,168.563 74.781,169.437 78.167 C 169.851 79.771,170.329 81.608,170.500 82.250 C 170.672 82.892,171.046 84.317,171.332 85.417 C 171.618 86.517,172.073 88.254,172.343 89.277 C 172.612 90.300,172.833 91.184,172.833 91.242 C 172.833 91.300,172.252 91.325,171.542 91.299 L 170.250 91.250 169.979 90.167 C 169.714 89.109,168.619 84.913,168.000 82.583 C 167.431 80.443,166.465 76.759,166.273 76.000 L 166.083 75.250 159.639 75.206 L 153.195 75.163 152.241 76.956 C 151.717 77.943,150.933 79.425,150.499 80.250 C 150.065 81.075,149.374 82.387,148.963 83.167 C 148.552 83.946,147.665 85.633,146.992 86.917 C 146.319 88.200,145.525 89.700,145.228 90.250 L 144.687 91.250 137.010 91.293 C 132.503 91.319,129.333 91.274,129.333 91.186 C 129.333 91.103,130.896 87.933,132.806 84.142 C 134.716 80.352,141.146 67.561,147.094 55.719 C 153.043 43.877,157.935 34.213,157.967 34.244 C 157.998 34.276,158.161 34.852,158.329 35.526 M229.127 42.292 L 229.083 50.417 207.233 50.459 L 185.383 50.501 185.509 51.292 C 186.320 56.410,190.748 60.744,195.928 61.493 C 196.579 61.587,200.870 61.662,205.750 61.665 C 218.906 61.672,220.892 62.164,225.023 66.444 C 232.510 74.202,229.041 87.842,218.804 90.892 C 218.316 91.038,217.617 91.250,217.250 91.365 C 216.740 91.524,212.616 91.585,199.708 91.625 L 182.833 91.677 182.833 83.505 L 182.833 75.333 204.677 75.333 L 226.520 75.333 226.406 74.542 C 225.871 70.840,223.167 67.258,219.583 65.503 C 216.986 64.232,217.592 64.292,206.000 64.172 L 195.583 64.064 194.068 63.639 C 178.597 59.305,179.421 37.479,195.167 34.498 C 196.619 34.223,198.094 34.197,212.960 34.182 L 229.170 34.167 229.127 42.292 M104.500 34.428 C 104.500 34.480,104.805 35.699,105.179 37.136 C 105.552 38.574,106.081 40.612,106.355 41.667 C 106.628 42.721,107.068 44.408,107.333 45.417 C 108.173 48.615,108.846 51.191,109.358 53.167 C 110.804 58.750,111.188 60.222,112.333 64.583 C 112.810 66.398,113.158 67.735,114.500 72.917 C 114.880 74.383,115.339 76.139,115.520 76.819 C 115.701 77.499,116.140 79.186,116.495 80.569 C 116.849 81.952,117.444 84.246,117.815 85.667 C 118.187 87.087,118.673 88.944,118.895 89.792 L 119.299 91.333 118.002 91.333 C 116.792 91.333,116.700 91.308,116.627 90.958 C 116.583 90.752,116.268 89.533,115.925 88.250 C 115.582 86.967,115.163 85.392,114.994 84.750 C 114.825 84.108,114.564 83.133,114.416 82.583 C 114.268 82.033,113.857 80.458,113.504 79.083 C 113.150 77.708,112.824 76.471,112.778 76.333 C 112.732 76.196,112.649 75.877,112.594 75.625 L 112.494 75.167 106.033 75.167 L 99.572 75.167 99.042 76.208 C 98.751 76.781,98.037 78.150,97.456 79.250 C 96.875 80.350,95.849 82.300,95.177 83.583 C 94.505 84.867,93.674 86.442,93.332 87.083 C 92.989 87.725,92.357 88.944,91.927 89.792 L 91.144 91.333 83.411 91.333 C 76.111 91.333,75.684 91.317,75.797 91.042 C 75.914 90.756,80.788 81.039,96.443 49.877 C 103.229 36.371,104.500 33.933,104.500 34.428 M31.750 36.943 C 26.191 38.122,22.125 42.094,21.410 47.042 L 21.295 47.833 41.898 47.833 L 62.500 47.833 62.500 42.333 L 62.500 36.833 47.292 36.853 C 38.927 36.863,31.933 36.904,31.750 36.943 M195.750 36.952 C 190.835 37.632,186.471 41.938,185.523 47.042 L 185.376 47.833 206.022 47.833 L 226.667 47.833 226.667 42.333 L 226.667 36.833 211.458 36.858 C 203.094 36.872,196.025 36.914,195.750 36.952 M98.866 50.643 C 96.281 55.778,94.167 60.092,94.167 60.228 C 94.167 60.365,94.384 60.951,94.650 61.530 C 95.116 62.547,96.393 65.362,97.169 67.083 C 97.375 67.542,97.769 68.404,98.043 69.000 C 98.318 69.596,98.635 70.297,98.747 70.559 L 98.951 71.035 99.287 70.476 C 99.471 70.168,100.168 68.867,100.834 67.583 C 101.501 66.300,102.327 64.725,102.669 64.083 C 103.780 61.997,104.769 60.122,105.834 58.083 C 106.408 56.983,106.943 56.012,107.022 55.925 C 107.244 55.682,107.198 55.172,106.823 53.735 C 106.634 53.010,105.887 50.090,105.165 47.246 C 104.442 44.402,103.786 41.902,103.708 41.690 C 103.588 41.365,102.838 42.751,98.866 50.643 M152.359 50.798 L 147.638 60.250 148.660 62.500 C 149.222 63.737,149.784 64.975,149.908 65.250 C 150.032 65.525,150.507 66.575,150.963 67.583 C 151.420 68.592,151.957 69.780,152.158 70.225 C 152.359 70.669,152.547 71.006,152.577 70.975 C 152.649 70.897,153.426 69.440,155.583 65.333 C 156.571 63.454,157.619 61.467,157.913 60.917 C 158.207 60.367,158.978 58.904,159.628 57.667 L 160.808 55.417 159.579 50.583 C 158.903 47.925,158.113 44.813,157.823 43.667 C 157.534 42.521,157.248 41.530,157.188 41.465 C 157.129 41.400,154.955 45.600,152.359 50.798 M252.316 53.773 C 255.820 55.519,254.653 60.708,250.757 60.708 C 247.391 60.708,245.754 56.811,248.146 54.493 C 249.416 53.262,250.808 53.021,252.316 53.773 M311.350 53.523 C 313.757 54.329,314.666 57.238,313.160 59.317 C 311.391 61.758,307.302 60.890,306.669 57.939 C 306.061 55.105,308.684 52.630,311.350 53.523 M279.333 60.250 L 279.333 64.500 285.333 64.500 L 291.333 64.500 291.333 66.500 L 291.333 68.500 285.333 68.500 L 279.333 68.500 279.333 75.658 C 279.333 84.260,279.430 84.930,280.860 86.272 C 282.474 87.786,286.901 88.117,290.666 87.005 C 290.986 86.911,291.267 86.833,291.291 86.833 C 291.314 86.833,291.333 87.765,291.333 88.903 L 291.333 90.972 290.458 91.162 C 284.814 92.386,279.297 91.583,276.905 89.191 C 274.805 87.090,274.633 86.154,274.545 76.375 L 274.474 68.500 270.820 68.500 L 267.167 68.500 267.167 66.500 L 267.167 64.500 270.833 64.500 L 274.500 64.500 274.500 60.911 C 274.500 57.803,274.535 57.309,274.762 57.222 C 275.013 57.126,278.950 56.061,279.208 56.020 C 279.277 56.009,279.333 57.913,279.333 60.250 M161.253 60.000 C 160.827 60.842,160.143 62.141,158.752 64.750 C 158.459 65.300,157.744 66.650,157.163 67.750 C 156.583 68.850,155.784 70.340,155.387 71.062 C 154.991 71.784,154.667 72.440,154.667 72.520 C 154.667 72.601,157.056 72.667,160.019 72.667 C 165.037 72.667,165.367 72.648,165.292 72.375 C 165.248 72.215,164.704 70.171,164.083 67.833 C 163.463 65.496,162.676 62.571,162.336 61.333 L 161.716 59.083 161.253 60.000 M107.491 60.354 C 106.909 61.511,106.539 62.212,103.543 67.833 C 102.444 69.896,101.420 71.827,101.268 72.125 L 100.991 72.667 106.403 72.667 L 111.815 72.667 111.585 71.875 C 111.458 71.440,111.157 70.333,110.916 69.417 C 110.229 66.807,109.708 64.838,109.415 63.750 C 109.267 63.200,108.961 62.039,108.735 61.170 C 108.201 59.123,108.133 59.078,107.491 60.354 M86.204 75.923 C 82.700 82.934,79.833 88.707,79.833 88.752 C 79.833 88.797,82.031 88.833,84.718 88.833 L 89.603 88.833 90.132 87.792 C 90.423 87.219,91.117 85.888,91.675 84.833 C 93.867 80.688,94.667 79.173,95.674 77.250 C 96.250 76.150,96.859 74.989,97.027 74.669 C 97.418 73.927,97.413 73.821,96.939 72.781 C 96.723 72.306,95.700 70.004,94.667 67.667 C 93.634 65.329,92.740 63.362,92.682 63.296 C 92.623 63.229,89.708 68.911,86.204 75.923 M139.750 75.885 C 136.267 82.869,133.391 88.641,133.360 88.711 C 133.329 88.781,135.527 88.818,138.243 88.794 L 143.183 88.750 144.103 87.000 C 144.610 86.037,145.384 84.575,145.824 83.750 C 146.264 82.925,147.208 81.125,147.921 79.750 C 148.635 78.375,149.272 77.175,149.338 77.083 C 149.404 76.992,149.806 76.233,150.231 75.398 L 151.004 73.880 149.153 69.732 C 147.138 65.216,146.831 64.524,146.483 63.708 C 146.356 63.410,146.214 63.171,146.168 63.176 C 146.121 63.182,143.233 68.901,139.750 75.885 M373.436 64.481 C 379.096 65.951,382.248 71.256,381.593 78.208 L 381.472 79.500 372.152 79.500 L 362.833 79.500 362.833 80.268 C 362.833 86.636,369.345 89.364,378.917 87.006 C 380.220 86.684,380.167 86.611,380.167 88.730 L 380.167 90.627 379.410 90.818 C 365.008 94.444,356.686 88.736,357.977 76.117 C 358.850 67.587,365.661 62.461,373.436 64.481 M253.833 75.917 L 253.833 87.333 257.833 87.333 L 261.833 87.333 261.833 89.333 L 261.833 91.333 251.083 91.333 L 240.333 91.333 240.333 89.333 L 240.333 87.333 244.667 87.333 L 249.000 87.333 249.000 77.917 L 249.000 68.500 245.083 68.500 L 241.167 68.500 241.167 66.500 L 241.167 64.500 247.500 64.500 L 253.833 64.500 253.833 75.917 M313.333 75.917 L 313.333 87.333 317.333 87.333 L 321.333 87.333 321.333 89.333 L 321.333 91.333 310.583 91.333 L 299.833 91.333 299.833 89.333 L 299.833 87.333 304.167 87.333 L 308.500 87.333 308.500 77.917 L 308.500 68.500 304.583 68.500 L 300.667 68.500 300.667 66.500 L 300.667 64.500 307.000 64.500 L 313.333 64.500 313.333 75.917 M333.140 67.417 C 333.722 68.975,334.723 71.675,335.364 73.417 C 336.006 75.158,336.592 76.733,336.666 76.917 C 337.098 77.988,338.737 82.529,339.268 84.125 C 339.611 85.156,339.941 86.000,340.000 86.000 C 340.059 86.000,340.389 85.156,340.732 84.125 C 341.247 82.577,342.819 78.216,343.331 76.917 C 343.487 76.520,344.845 72.836,346.494 68.333 C 347.148 66.546,347.744 64.971,347.818 64.833 C 347.980 64.532,353.000 64.363,353.000 64.659 C 353.000 64.819,350.658 70.896,350.331 71.583 C 350.244 71.767,349.726 73.079,349.181 74.500 C 348.127 77.242,347.243 79.506,344.916 85.417 C 344.122 87.433,343.283 89.590,343.050 90.208 L 342.628 91.333 339.918 91.333 L 337.207 91.333 336.995 90.792 C 336.879 90.494,336.684 90.025,336.563 89.750 C 336.441 89.475,335.922 88.162,335.407 86.833 C 334.893 85.504,334.033 83.292,333.495 81.917 C 332.957 80.542,332.024 78.142,331.423 76.583 C 330.822 75.025,330.257 73.600,330.168 73.417 C 330.078 73.233,329.635 72.108,329.182 70.917 C 328.729 69.725,328.016 67.899,327.596 66.859 C 326.549 64.261,326.371 64.483,329.458 64.537 L 332.082 64.583 333.140 67.417 M368.608 68.006 C 365.964 68.456,363.857 70.772,363.093 74.070 C 362.634 76.048,361.825 75.833,369.750 75.833 L 376.667 75.833 376.667 74.817 C 376.667 70.359,373.001 67.260,368.608 68.006 M21.333 83.500 L 21.333 89.167 35.875 89.166 C 53.139 89.165,53.365 89.145,56.536 87.287 C 59.456 85.575,62.333 81.114,62.333 78.298 L 62.333 77.833 41.833 77.833 L 21.333 77.833 21.333 83.500 M185.333 83.500 L 185.333 89.167 199.958 89.166 C 215.603 89.166,216.252 89.136,218.500 88.315 C 222.501 86.854,225.812 82.804,226.422 78.625 L 226.538 77.833 205.936 77.833 L 185.333 77.833 185.333 83.500 " stroke="none" fill="#fbfbfb" fill-rule="evenodd"></path><path id="path2" d="M41.292 34.292 C 45.623 34.316,52.710 34.316,57.042 34.292 C 61.373 34.267,57.829 34.247,49.167 34.247 C 40.504 34.247,36.960 34.267,41.292 34.292 M213.290 34.291 L 228.997 34.335 229.042 42.293 L 229.088 50.250 229.086 42.250 L 229.083 34.250 213.333 34.249 L 197.583 34.247 213.290 34.291 M244.375 64.625 C 246.094 64.652,248.906 64.652,250.625 64.625 C 252.344 64.598,250.938 64.576,247.500 64.576 C 244.063 64.576,242.656 64.598,244.375 64.625 M269.125 64.624 C 270.156 64.654,271.844 64.654,272.875 64.624 C 273.906 64.595,273.063 64.571,271.000 64.571 C 268.938 64.571,268.094 64.595,269.125 64.624 M285.286 64.624 L 291.156 64.671 291.211 66.586 L 291.267 68.501 291.258 66.542 L 291.250 64.583 285.333 64.580 L 279.417 64.577 285.286 64.624 M303.875 64.625 C 305.594 64.652,308.406 64.652,310.125 64.625 C 311.844 64.598,310.438 64.576,307.000 64.576 C 303.563 64.576,302.156 64.598,303.875 64.625 M328.133 64.624 C 328.894 64.655,330.094 64.655,330.800 64.624 C 331.506 64.593,330.883 64.567,329.417 64.567 C 327.950 64.568,327.372 64.593,328.133 64.624 M349.208 64.624 C 349.919 64.655,351.081 64.655,351.792 64.624 C 352.502 64.593,351.921 64.567,350.500 64.567 C 349.079 64.567,348.498 64.593,349.208 64.624 M308.578 77.917 C 308.578 83.142,308.599 85.255,308.625 82.613 C 308.651 79.971,308.651 75.696,308.625 73.113 C 308.599 70.530,308.578 72.692,308.578 77.917 M103.719 72.791 C 105.260 72.819,107.735 72.819,109.219 72.791 C 110.703 72.764,109.442 72.741,106.417 72.741 C 103.392 72.741,102.178 72.764,103.719 72.791 M157.219 72.791 C 158.760 72.819,161.235 72.819,162.719 72.791 C 164.203 72.764,162.942 72.741,159.917 72.741 C 156.892 72.741,155.678 72.764,157.219 72.791 M376.705 75.333 C 376.705 75.654,376.740 75.785,376.782 75.625 C 376.823 75.465,376.823 75.202,376.782 75.042 C 376.740 74.881,376.705 75.012,376.705 75.333 M18.744 83.417 C 18.744 87.908,18.765 89.722,18.792 87.447 C 18.818 85.172,18.818 81.497,18.791 79.280 C 18.765 77.064,18.744 78.925,18.744 83.417 M229.039 76.667 C 229.039 76.987,229.073 77.119,229.115 76.958 C 229.157 76.798,229.157 76.535,229.115 76.375 C 229.073 76.215,229.039 76.346,229.039 76.667 M58.740 85.542 L 58.250 86.083 58.792 85.594 C 59.090 85.325,59.333 85.081,59.333 85.052 C 59.333 84.923,59.196 85.037,58.740 85.542 M291.230 88.917 C 291.231 90.017,291.258 90.445,291.290 89.868 C 291.323 89.292,291.323 88.392,291.290 87.868 C 291.257 87.345,291.230 87.817,291.230 88.917 M360.833 88.052 C 360.833 88.081,361.077 88.325,361.375 88.594 L 361.917 89.083 361.427 88.542 C 360.971 88.037,360.833 87.923,360.833 88.052 M138.250 88.833 L 133.250 88.924 138.198 88.962 C 141.359 88.986,143.184 88.940,143.250 88.833 C 143.307 88.742,143.330 88.684,143.302 88.705 C 143.273 88.725,141.000 88.783,138.250 88.833 M82.135 88.958 C 83.539 88.986,85.789 88.986,87.135 88.958 C 88.482 88.930,87.333 88.907,84.583 88.907 C 81.833 88.907,80.732 88.930,82.135 88.958 " stroke="none" fill="#97acb2" fill-rule="evenodd"></path><path id="path3" d="M64.910 42.333 C 64.910 46.779,64.932 48.598,64.958 46.375 C 64.984 44.152,64.984 40.515,64.958 38.292 C 64.932 36.069,64.910 37.887,64.910 42.333 M62.575 42.333 C 62.575 45.496,62.597 46.790,62.625 45.208 C 62.652 43.627,62.652 41.040,62.625 39.458 C 62.597 37.877,62.575 39.171,62.575 42.333 M226.741 42.333 C 226.741 45.404,226.764 46.660,226.791 45.125 C 226.819 43.590,226.819 41.077,226.791 39.542 C 226.764 38.006,226.741 39.262,226.741 42.333 M22.991 38.792 L 22.417 39.417 23.042 38.842 C 23.623 38.308,23.743 38.167,23.616 38.167 C 23.588 38.167,23.307 38.448,22.991 38.792 M188.824 40.458 L 188.250 41.083 188.875 40.509 C 189.457 39.974,189.577 39.833,189.449 39.833 C 189.422 39.833,189.140 40.115,188.824 40.458 M37.553 61.792 C 39.920 61.818,43.745 61.818,46.053 61.792 C 48.361 61.765,46.425 61.744,41.750 61.744 C 37.075 61.744,35.186 61.765,37.553 61.792 M201.720 61.792 C 204.087 61.818,207.912 61.818,210.220 61.792 C 212.528 61.765,210.592 61.744,205.917 61.744 C 201.242 61.744,199.353 61.765,201.720 61.792 M37.542 64.125 C 39.902 64.151,43.765 64.151,46.125 64.125 C 48.485 64.099,46.554 64.077,41.833 64.077 C 37.112 64.077,35.181 64.099,37.542 64.125 M201.708 64.125 C 204.069 64.151,207.931 64.151,210.292 64.125 C 212.652 64.099,210.721 64.077,206.000 64.077 C 201.279 64.077,199.348 64.099,201.708 64.125 M253.748 76.000 L 253.750 87.417 257.583 87.421 L 261.417 87.426 257.626 87.377 L 253.836 87.327 253.791 75.955 L 253.746 64.583 253.748 76.000 M313.248 76.000 L 313.250 87.417 317.167 87.421 L 321.083 87.426 317.209 87.377 L 313.336 87.327 313.291 75.955 L 313.246 64.583 313.248 76.000 M245.083 68.457 L 249.000 68.506 249.000 77.917 L 249.000 87.328 244.708 87.375 L 240.417 87.423 244.793 87.461 L 249.169 87.500 249.126 77.958 L 249.083 68.417 245.125 68.412 L 241.166 68.407 245.083 68.457 M302.635 68.458 C 303.763 68.487,305.563 68.487,306.635 68.458 C 307.706 68.429,306.783 68.405,304.583 68.405 C 302.383 68.405,301.506 68.429,302.635 68.458 M101.833 75.119 C 107.524 75.236,112.628 75.239,112.558 75.125 C 112.515 75.056,109.579 75.016,106.032 75.037 C 102.485 75.057,100.596 75.094,101.833 75.119 M156.281 75.125 C 158.039 75.152,160.964 75.152,162.781 75.125 C 164.597 75.098,163.158 75.076,159.583 75.076 C 156.008 75.076,154.522 75.098,156.281 75.125 M357.879 78.000 C 357.879 78.412,357.911 78.581,357.951 78.375 C 357.991 78.169,357.991 77.831,357.951 77.625 C 357.911 77.419,357.879 77.587,357.879 78.000 M362.709 80.083 C 362.711 80.450,362.745 80.580,362.785 80.373 C 362.824 80.166,362.823 79.866,362.781 79.706 C 362.739 79.547,362.707 79.717,362.709 80.083 M222.909 85.542 L 222.250 86.250 222.958 85.591 C 223.348 85.229,223.667 84.910,223.667 84.883 C 223.667 84.757,223.522 84.883,222.909 85.542 M302.125 87.458 C 303.340 87.486,305.327 87.486,306.542 87.458 C 307.756 87.429,306.762 87.406,304.333 87.406 C 301.904 87.406,300.910 87.429,302.125 87.458 M285.044 87.786 C 285.297 87.825,285.672 87.824,285.877 87.784 C 286.082 87.744,285.875 87.713,285.417 87.714 C 284.958 87.716,284.791 87.748,285.044 87.786 M370.708 87.948 C 370.869 87.990,371.131 87.990,371.292 87.948 C 371.452 87.906,371.321 87.872,371.000 87.872 C 370.679 87.872,370.548 87.906,370.708 87.948 M372.125 87.951 C 372.331 87.991,372.669 87.991,372.875 87.951 C 373.081 87.911,372.912 87.879,372.500 87.879 C 372.087 87.879,371.919 87.911,372.125 87.951 M26.792 91.625 C 31.215 91.650,38.452 91.650,42.875 91.625 C 47.298 91.600,43.679 91.580,34.833 91.580 C 25.987 91.580,22.369 91.600,26.792 91.625 M190.888 91.625 C 195.363 91.650,202.638 91.650,207.054 91.625 C 211.470 91.600,207.808 91.580,198.917 91.580 C 190.025 91.580,186.412 91.600,190.888 91.625 M283.127 91.618 C 283.334 91.658,283.634 91.656,283.794 91.615 C 283.953 91.573,283.783 91.540,283.417 91.542 C 283.050 91.544,282.920 91.578,283.127 91.618 M285.958 91.618 C 286.165 91.657,286.502 91.657,286.708 91.618 C 286.915 91.578,286.746 91.545,286.333 91.545 C 285.921 91.545,285.752 91.578,285.958 91.618 M370.455 91.787 C 370.750 91.824,371.275 91.824,371.621 91.788 C 371.967 91.752,371.725 91.722,371.083 91.721 C 370.442 91.721,370.159 91.750,370.455 91.787 " stroke="none" fill="#719498" fill-rule="evenodd"></path><path id="path4" d="M32.708 34.282 C 32.869 34.323,33.131 34.323,33.292 34.282 C 33.452 34.240,33.321 34.205,33.000 34.205 C 32.679 34.205,32.548 34.240,32.708 34.282 M196.875 34.282 C 197.035 34.323,197.298 34.323,197.458 34.282 C 197.619 34.240,197.487 34.205,197.167 34.205 C 196.846 34.205,196.715 34.240,196.875 34.282 M40.388 36.792 C 44.497 36.816,51.172 36.816,55.221 36.792 C 59.270 36.767,55.908 36.746,47.750 36.746 C 39.592 36.746,36.279 36.767,40.388 36.792 M204.554 36.792 C 208.663 36.816,215.338 36.816,219.388 36.792 C 223.437 36.767,220.075 36.746,211.917 36.746 C 203.758 36.746,200.445 36.767,204.554 36.792 M21.210 47.667 C 21.270 47.887,23.715 47.917,41.931 47.918 L 62.583 47.919 42.009 47.875 C 25.815 47.841,21.404 47.788,21.288 47.624 C 21.180 47.471,21.159 47.482,21.210 47.667 M18.705 48.333 C 18.705 48.654,18.740 48.785,18.782 48.625 C 18.823 48.465,18.823 48.202,18.782 48.042 C 18.740 47.881,18.705 48.012,18.705 48.333 M195.625 47.958 C 201.331 47.983,210.669 47.983,216.375 47.958 C 222.081 47.934,217.412 47.914,206.000 47.914 C 194.588 47.914,189.919 47.934,195.625 47.958 M18.705 50.000 C 18.705 50.321,18.740 50.452,18.782 50.292 C 18.823 50.131,18.823 49.869,18.782 49.708 C 18.740 49.548,18.705 49.679,18.705 50.000 M21.278 50.444 C 21.217 50.506,21.168 50.637,21.169 50.736 C 21.171 50.844,21.225 50.833,21.304 50.709 C 21.408 50.545,26.055 50.492,43.259 50.458 L 65.083 50.415 43.236 50.374 C 31.220 50.352,21.339 50.383,21.278 50.444 M196.208 50.458 C 202.235 50.483,212.098 50.483,218.125 50.458 C 224.152 50.434,219.221 50.414,207.167 50.414 C 195.112 50.414,190.181 50.434,196.208 50.458 M250.377 53.453 C 250.631 53.491,251.006 53.490,251.211 53.451 C 251.416 53.411,251.208 53.380,250.750 53.381 C 250.292 53.382,250.124 53.415,250.377 53.453 M309.877 53.453 C 310.131 53.491,310.506 53.490,310.711 53.451 C 310.916 53.411,310.708 53.380,310.250 53.381 C 309.792 53.382,309.624 53.415,309.877 53.453 M188.833 57.917 C 189.144 58.237,189.436 58.500,189.482 58.500 C 189.528 58.500,189.311 58.237,189.000 57.917 C 188.689 57.596,188.397 57.333,188.351 57.333 C 188.305 57.333,188.522 57.596,188.833 57.917 M274.571 60.917 C 274.571 62.933,274.595 63.735,274.625 62.699 C 274.654 61.663,274.654 60.013,274.624 59.032 C 274.595 58.052,274.571 58.900,274.571 60.917 M187.167 59.750 C 187.478 60.071,187.770 60.333,187.815 60.333 C 187.861 60.333,187.644 60.071,187.333 59.750 C 187.022 59.429,186.730 59.167,186.685 59.167 C 186.639 59.167,186.856 59.429,187.167 59.750 M60.500 66.083 C 60.811 66.404,61.103 66.667,61.149 66.667 C 61.195 66.667,60.978 66.404,60.667 66.083 C 60.356 65.762,60.064 65.500,60.018 65.500 C 59.972 65.500,60.189 65.762,60.500 66.083 M274.577 75.750 C 274.577 79.783,274.598 81.409,274.625 79.364 C 274.651 77.318,274.651 74.018,274.625 72.030 C 274.598 70.043,274.577 71.717,274.577 75.750 M21.243 77.876 C 21.198 77.991,21.183 80.598,21.208 83.668 L 21.255 89.250 21.294 83.542 L 21.333 77.833 41.821 77.833 C 58.063 77.833,62.323 77.877,62.379 78.042 C 62.419 78.161,62.441 78.144,62.430 78.000 C 62.405 77.655,21.375 77.531,21.243 77.876 M195.529 77.792 C 201.182 77.816,210.482 77.816,216.195 77.792 C 221.909 77.767,217.283 77.747,205.917 77.747 C 194.550 77.747,189.875 77.767,195.529 77.792 M60.324 87.458 L 59.750 88.083 60.375 87.509 C 60.957 86.974,61.077 86.833,60.949 86.833 C 60.922 86.833,60.640 87.115,60.324 87.458 M261.731 89.333 C 261.731 90.479,261.758 90.948,261.790 90.375 C 261.823 89.802,261.823 88.865,261.790 88.292 C 261.758 87.719,261.731 88.188,261.731 89.333 M321.231 89.333 C 321.231 90.479,321.258 90.948,321.290 90.375 C 321.323 89.802,321.323 88.865,321.290 88.292 C 321.258 87.719,321.231 88.188,321.231 89.333 " stroke="none" fill="#d3dbd4" fill-rule="evenodd"></path></g></svg>