<svg width="4264" height="1312" xmlns="http://www.w3.org/2000/svg" preserveAspectRatio="xMidYMid meet">

 <g>
  <title>background</title>
  <rect fill="none" id="canvas_background" height="402" width="582" y="-1" x="-1"/>
 </g>
 <g>
  <title>Layer 1</title>
  <g id="svg_1" fill="#000000" transform="translate(0, 1312) scale(0.1, -0.1)">
   <path fill="#056674" id="svg_2" d="m0,6560l0,-6560l21320,0l21320,0l0,6560l0,6560l-21320,0l-21320,0l0,-6560zm7410,2250l0,-790l-2145,0c-1824,0 -2145,-2 -2145,-14c0,-36 33,-181 59,-257c61,-182 158,-338 295,-475c178,-176 355,-275 606,-337c82,-20 118,-21 1045,-27c866,-6 969,-8 1055,-24c334,-64 573,-188 800,-416c389,-391 519,-949 348,-1490c-66,-207 -173,-384 -333,-549c-218,-225 -453,-355 -764,-424c-95,-21 -108,-21 -1723,-24l-1628,-3l0,795l0,795l2141,0l2142,0l-7,49c-25,191 -120,413 -247,577c-54,71 -189,199 -270,256c-80,56 -220,128 -309,156c-174,57 -129,55 -1160,62c-918,6 -959,7 -1070,27c-302,57 -555,184 -766,386c-221,210 -361,462 -426,760c-19,86 -22,133 -22,297c0,211 14,301 70,468c153,459 546,823 1018,943c187,48 155,47 1844,48l1592,1l0,-790zm4590,-2013c396,-1522 720,-2772 720,-2777c0,-6 -49,-10 -120,-10c-66,0 -120,2 -120,5c0,2 -92,355 -205,784c-113,429 -205,783 -205,786c0,3 -287,5 -637,5l-638,0l-415,-790l-415,-790l-753,0l-753,0l1041,2073c572,1139 1204,2397 1403,2795c261,521 364,717 369,705c4,-10 332,-1264 728,-2786zm5250,0c396,-1522 720,-2772 720,-2777c0,-6 -49,-10 -120,-10c-66,0 -120,2 -120,5c0,2 -92,355 -205,784c-113,429 -205,783 -205,786c0,3 -287,5 -637,5l-638,0l-415,-790l-415,-790l-753,0l-753,0l1041,2073c572,1139 1204,2397 1403,2795c261,521 364,717 369,705c4,-10 332,-1264 728,-2786zm6240,2013l0,-790l-2145,0l-2145,0l6,-42c54,-357 248,-664 547,-867c72,-49 242,-127 327,-151c178,-49 199,-50 1100,-50c844,0 986,-5 1140,-36c508,-105 928,-475 1089,-961c56,-167 88,-396 77,-543c-32,-420 -205,-776 -498,-1030c-196,-170 -393,-268 -668,-332l-95,-22l-1632,-3l-1633,-3l0,795l0,795l2144,0l2145,0l-6,38c-44,286 -199,576 -404,752c-134,116 -252,186 -401,238c-192,68 -136,65 -1193,72c-1036,8 -1006,6 -1218,64c-474,129 -859,505 -1001,979c-46,151 -60,251 -60,422c-1,437 163,800 495,1100c216,194 497,316 824,358c17,2 744,5 1618,6l1587,1l0,-790zm2272,-1122c107,-50 179,-148 201,-272c28,-165 -80,-341 -241,-392c-76,-23 -201,-16 -267,16c-68,33 -141,108 -172,178c-34,73 -38,202 -10,271c42,103 103,165 204,207c81,34 202,31 285,-8zm5830,3c75,-36 134,-94 170,-169c30,-60 33,-75 33,-157c0,-82 -3,-97 -33,-157c-40,-82 -111,-149 -190,-178c-82,-31 -215,-25 -290,14c-140,71 -216,223 -191,380c21,129 118,242 242,282c64,21 200,13 259,-15zm-3182,-646l0,-415l585,0l585,0l0,-195l0,-195l-585,0l-586,0l3,-737c3,-684 5,-742 22,-793c57,-171 147,-262 311,-317c75,-25 91,-27 270,-27c194,-1 304,11 488,54l77,17l0,-197l0,-197l-77,-16c-121,-26 -195,-35 -368,-48c-599,-43 -965,113 -1108,472c-70,175 -77,278 -77,1106l0,683l-362,2l-363,3l0,190l0,190l362,3l363,2l2,357l3,357l215,57c118,32 221,58 228,58c9,1 12,-88 12,-414zm9203,-404c300,-69 535,-245 672,-504c114,-214 162,-476 148,-809l-6,-158l-920,0l-920,0l7,-88c9,-123 40,-243 87,-341c33,-67 58,-102 128,-171c70,-72 101,-95 172,-129c173,-83 370,-112 645,-93c192,14 389,41 549,77c60,14 113,25 117,25c5,0 8,-83 8,-185l0,-184l-37,-11c-179,-51 -499,-95 -758,-106c-734,-30 -1174,244 -1330,827c-63,235 -78,588 -36,823c52,290 166,528 342,711c179,186 387,297 624,335c102,15 407,4 508,-19zm-11703,-1131l0,-1120l390,0l390,0l0,-190l0,-190l-1050,0l-1050,0l0,190l0,190l430,0l430,0l0,930l0,930l-385,0l-385,0l0,190l0,190l615,0l615,0l0,-1120zm5830,0l0,-1120l390,0l390,0l0,-190l0,-190l-1050,0l-1050,0l0,190l0,190l430,0l430,0l0,930l0,930l-385,0l-385,0l0,190l0,190l615,0l615,0l0,-1120zm2167,240c178,-481 351,-962 385,-1067c34,-106 65,-193 68,-193c3,0 30,78 60,172c30,95 204,575 386,1068l331,895l246,3c194,2 247,0 247,-10c0,-7 -229,-596 -509,-1308l-508,-1295l-264,0l-264,0l-507,1295c-279,712 -508,1301 -508,1308c0,10 55,12 256,10l256,-3l325,-875z"/>
   <path fill="#056674" id="svg_3" d="m4230,9353c-72,-7 -198,-35 -275,-60c-433,-140 -766,-535 -830,-985l-7,-48l2026,0l2026,0l0,550l0,550l-1452,-2c-799,0 -1469,-3 -1488,-5z"/>
   <path fill="#056674" id="svg_4" d="m3120,4780l0,-561l1498,4c1396,3 1502,4 1572,21c170,40 314,101 441,186c98,66 295,270 352,366c89,150 156,339 173,491l7,53l-2022,0l-2021,0l0,-560z"/>
   <path fill="#056674" id="svg_5" d="m10723,7992l-471,-937l242,-532c132,-293 243,-533 246,-533c8,0 810,1526 810,1540c0,13 -350,1393 -354,1397c-1,2 -214,-419 -473,-935z"/>
   <path fill="#056674" id="svg_6" d="m11635,7160c-5,-8 -166,-310 -357,-670l-348,-655l532,-3c292,-1 533,-1 534,1c3,2 -333,1280 -349,1332c-2,5 -7,2 -12,-5z"/>
   <path fill="#056674" id="svg_7" d="m9481,5514c-347,-697 -631,-1268 -631,-1270c0,-2 218,-4 484,-4l484,0l326,619c180,341 354,673 388,738l62,118l-233,525c-129,289 -237,529 -241,533c-4,5 -292,-562 -639,-1259z"/>
   <path fill="#056674" id="svg_8" d="m15973,7992l-471,-937l242,-532c132,-293 243,-533 246,-533c8,0 810,1526 810,1540c0,13 -350,1393 -354,1397c-1,2 -214,-419 -473,-935z"/>
   <path fill="#056674" id="svg_9" d="m16885,7160c-5,-8 -166,-310 -357,-670l-348,-655l532,-3c292,-1 533,-1 534,1c3,2 -333,1280 -349,1332c-2,5 -7,2 -12,-5z"/>
   <path fill="#056674" id="svg_10" d="m14731,5514c-347,-697 -631,-1268 -631,-1270c0,-2 218,-4 484,-4l484,0l326,619c180,341 354,673 388,738l62,118l-233,525c-129,289 -237,529 -241,533c-4,5 -292,-562 -639,-1259z"/>
   <path fill="#056674" id="svg_11" d="m20255,9344c-271,-42 -484,-146 -679,-333c-205,-198 -322,-422 -371,-713l-6,-38l2031,0l2030,0l0,550l0,550l-1457,-1c-1191,-1 -1474,-3 -1548,-15z"/>
   <path fill="#056674" id="svg_12" d="m19200,4780l0,-560l1451,0c1265,0 1465,2 1557,16c268,40 487,150 681,343c149,148 247,310 305,503c22,74 32,117 50,226l6,32l-2025,0l-2025,0l0,-560z"/>
   <path fill="#056674" id="svg_13" d="m37146,6294c-235,-52 -408,-220 -495,-479c-26,-78 -61,-239 -61,-281c0,-12 112,-14 686,-14l687,0l-6,118c-15,294 -141,500 -372,607c-38,18 -95,38 -125,44c-94,20 -238,22 -314,5z"/>
  </g>
 </g>
</svg>