<?xml version="1.0" encoding="utf-8"?><svg version="1.1" id="Layer_1" xmlns="http://www.w3.org/2000/svg" xmlns:xlink="http://www.w3.org/1999/xlink" x="0px" y="0px" viewBox="0 0 122.88 78.34" style="enable-background:new 0 0 122.88 78.34" xml:space="preserve"><g><path d="M0,78.34l22.53-37.55c0.16-0.29,0.4-0.54,0.69-0.72c0.96-0.59,2.21-0.3,2.8,0.65c2.06,3.3,4.09,6.19,6.09,8.85L17.08,74.63 c-0.75,1.05-1.19,2.33-1.19,3.71H0L0,78.34z M57.8,5.11c13.43-9.29,14.44,9.09,27.62-2.38v18.73 c-12.57,11.31-15.29-6.97-27.62,2.32V5.11L57.8,5.11L57.8,5.11z M54.49,0c1.42,0,2.56,1.15,2.56,2.56c0,0.94-0.51,1.76-1.26,2.21 h0.12v21.95c0.52,0.21,0.98,0.58,1.3,1.09C70.17,48.5,82.01,57.2,94.36,78.34H22.27L52.53,27.9c0.14-0.25,0.32-0.48,0.54-0.67V4.77 h0.12c-0.76-0.45-1.26-1.27-1.26-2.21C51.93,1.15,53.08,0,54.49,0L54.49,0L54.49,0z M84.39,53.05l7.36-12.26 c0.16-0.29,0.4-0.54,0.69-0.72c0.96-0.59,2.21-0.3,2.8,0.65c9.64,15.4,18.45,21.88,27.64,37.62h-22.14c0-1.09-0.28-2.2-0.87-3.22 C94.63,66.15,89.52,59.38,84.39,53.05L84.39,53.05z" fill="#056674"/></g></svg>