<?xml version="1.0" encoding="utf-8"?><svg version="1.1" id="Layer_1" xmlns="http://www.w3.org/2000/svg" xmlns:xlink="http://www.w3.org/1999/xlink" x="0px" y="0px" viewBox="0 0 122.88 117.22" style="enable-background:new 0 0 122.88 117.22" xml:space="preserve"><style type="text/css"><![CDATA[
	.st0{fill-rule:evenodd;clip-rule:evenodd;}
]]></style><g><path class="st0" d="M82.84,94.66l4.11-20.86l4.16,6.27c8.96-3.6,13.99-9.53,14.74-18.66c7.37,12.87,2.89,24.41-6.43,31.16 l4.24,6.39L82.84,94.66L82.84,94.66L82.84,94.66L82.84,94.66L82.84,94.66z M16.12,84.98c4.45,0,8.48,1.8,11.4,4.72 c2.92,2.92,4.72,6.95,4.72,11.4s-1.81,8.48-4.72,11.4c-2.92,2.92-6.95,4.72-11.4,4.72s-8.48-1.81-11.4-4.72 C1.81,109.58,0,105.55,0,101.1c0-4.45,1.81-8.48,4.72-11.4C7.64,86.78,11.67,84.98,16.12,84.98L16.12,84.98z M15.47,99.83h3.39 v2.68h-3c-0.04,0.63-0.15,1.2-0.35,1.71c-0.16,0.38-0.42,0.79-0.78,1.2c0.42-0.09,0.77-0.14,1.07-0.14c0.38,0,0.88,0.07,1.49,0.22 c0.84,0.19,1.5,0.29,2,0.29c0.41,0,0.76-0.04,1.06-0.1c0.3-0.07,0.7-0.21,1.19-0.43l1.52,3.34c-0.74,0.37-1.38,0.62-1.94,0.76 c-0.56,0.14-1.16,0.21-1.8,0.21c-0.7,0-1.5-0.12-2.4-0.37c-1.18-0.33-1.92-0.51-2.2-0.56c-0.28-0.05-0.59-0.08-0.92-0.08 c-0.96,0-2.02,0.33-3.18,1.01l-1.45-3.18c1.57-1.12,2.36-2.24,2.36-3.36c0-0.06-0.01-0.23-0.02-0.5H9.18v-2.68h1.67 c-0.28-0.98-0.45-1.55-0.48-1.71c-0.04-0.24-0.07-0.53-0.07-0.88c0-0.93,0.25-1.77,0.75-2.5c0.49-0.74,1.14-1.28,1.95-1.61 c0.81-0.33,1.89-0.5,3.26-0.5c1.28,0,2.29,0.15,3.04,0.43c0.75,0.29,1.38,0.76,1.9,1.42c0.52,0.67,0.87,1.47,1.07,2.42l-4.27,0.66 c-0.21-0.79-0.46-1.32-0.74-1.58c-0.28-0.26-0.59-0.39-0.95-0.39c-0.43,0-0.78,0.14-1.04,0.42c-0.27,0.28-0.4,0.68-0.4,1.2 c0,0.28,0.03,0.54,0.08,0.8C14.98,98.28,15.16,98.88,15.47,99.83L15.47,99.83L15.47,99.83z M106.76,0c4.45,0,8.48,1.81,11.4,4.72 c2.92,2.92,4.72,6.95,4.72,11.4c0,4.45-1.81,8.48-4.72,11.4c-2.92,2.92-6.95,4.72-11.4,4.72c-4.45,0-8.48-1.81-11.4-4.72 c-2.92-2.92-4.72-6.95-4.72-11.4c0-4.45,1.81-8.48,4.72-11.4C98.28,1.81,102.31,0,106.76,0L106.76,0z M113.2,11.21l-4.17,0.65 c-0.21-0.53-0.4-0.89-0.56-1.09c-0.17-0.2-0.44-0.41-0.83-0.61v3.23c2.26,0.61,3.77,1.25,4.53,1.91c1,0.9,1.51,2.04,1.51,3.43 c0,0.81-0.18,1.56-0.54,2.23c-0.36,0.68-0.83,1.24-1.38,1.7c-0.56,0.46-1.16,0.78-1.79,0.99c-0.63,0.21-1.41,0.32-2.32,0.36v2.1 l-1.62,0v-2.1c-1.09-0.09-1.98-0.27-2.67-0.53c-0.68-0.25-1.27-0.61-1.77-1.06c-0.49-0.45-0.88-0.94-1.14-1.46 c-0.27-0.52-0.47-1.16-0.6-1.9l4.51-0.52c0.13,0.73,0.32,1.26,0.54,1.59c0.22,0.33,0.6,0.61,1.13,0.87v-3.95 c-1.51-0.42-2.58-0.78-3.21-1.08c-0.63-0.3-1.17-0.8-1.63-1.47c-0.46-0.67-0.7-1.5-0.7-2.46c0-1.33,0.46-2.44,1.39-3.33 c0.93-0.89,2.31-1.39,4.14-1.48v-1.1h1.62v1.1c1.67,0.1,2.95,0.5,3.83,1.18C112.35,9.09,112.93,10.02,113.2,11.21L113.2,11.21 L113.2,11.21z M106.01,10.1c-0.48,0.16-0.81,0.35-1,0.58c-0.19,0.23-0.28,0.5-0.28,0.82c0,0.33,0.09,0.61,0.29,0.85 c0.19,0.25,0.53,0.45,1,0.61L106.01,10.1L106.01,10.1L106.01,10.1z M107.64,21.11c0.63-0.14,1.09-0.38,1.39-0.7 s0.44-0.69,0.44-1.09c0-0.35-0.13-0.67-0.37-0.97c-0.25-0.29-0.74-0.57-1.46-0.82L107.64,21.11L107.64,21.11L107.64,21.11z M16.36,73.36l59.08-59.08l30.72,30.72l-59.08,59.08L16.36,73.36L16.36,73.36L16.36,73.36z M52.25,50.13c5-5,13.08-5,18.08,0 c5,5,5,13.08,0,18.09c-5,5-13.08,5-18.08,0C47.24,63.21,47.24,55.13,52.25,50.13L52.25,50.13L52.25,50.13z M30.92,68.16L70.2,28.87 c2.5,2.5,6.58,2.5,9.07,0l12.15,12.14c-2.5,2.5-2.5,6.58,0,9.07L52.14,89.38c-2.5-2.5-6.58-2.5-9.07,0L30.92,77.24 C33.42,74.73,33.42,70.66,30.92,68.16L30.92,68.16L30.92,68.16L30.92,68.16z M56.9,4.49l-4.11,20.86l-4.16-6.27 c-8.96,3.6-13.99,9.53-14.75,18.66c-7.36-12.87-2.89-24.41,6.43-31.16l-4.24-6.39L56.9,4.49L56.9,4.49L56.9,4.49L56.9,4.49 L56.9,4.49z"/></g></svg>