<?xml version="1.0" encoding="utf-8"?><svg version="1.1" id="Layer_1" xmlns="http://www.w3.org/2000/svg" xmlns:xlink="http://www.w3.org/1999/xlink" x="0px" y="0px" viewBox="0 0 122.88 111.81" style="enable-background:new 0 0 122.88 111.81" xml:space="preserve"><style type="text/css"><![CDATA[
	.st0{fill-rule:evenodd;clip-rule:evenodd;}
]]></style><g><path class="st0" d="M49.82,88.5l6.43,18.9l3.23-11.22l-1.58-1.74c-0.71-1.04-0.87-1.95-0.48-2.74c0.86-1.7,2.63-1.38,4.29-1.38 c1.74,0,3.89-0.33,4.43,1.85c0.19,0.73-0.04,1.49-0.55,2.27L64,96.18l3.23,11.22l5.82-18.9c4.2,3.78,16.62,4.53,21.25,7.11 c1.46,0.82,2.78,1.85,3.85,3.25c2.88,3.81,3.09,4.06,3.83,8.79c-0.24,2.49-1.65,3.93-4.44,4.15h-72.2 c-2.79-0.21-4.2-1.65-4.44-4.15c0.74-4.73,0.96-4.98,3.83-8.79c1.06-1.41,2.38-2.44,3.85-3.25C33.2,93.03,45.63,92.27,49.82,88.5 L49.82,88.5L49.82,88.5z M27.98,87.25c-0.08-0.16-0.17-0.3-0.27-0.44c-0.45-0.74-0.9-1.47-1.36-2.31c-0.45-0.91-0.9-1.76-1.31-2.55 c-0.4-0.85-0.79-1.76-1.13-2.66c-0.28-0.79-0.62-1.69-0.96-2.77c-0.5-1.53-1.93-2.48-3.45-2.48H9.72c-0.34,0-0.67-0.05-0.91-0.17 c-0.22-0.12-0.5-0.28-0.67-0.5c-0.22-0.23-0.4-0.45-0.5-0.67c-0.12-0.22-0.17-0.57-0.17-0.9V59.45c0-0.34,0.05-0.62,0.12-0.85 c0.12-0.23,0.28-0.5,0.57-0.79c0.22-0.22,0.45-0.4,0.67-0.45c0.23-0.12,0.57-0.17,0.9-0.17h8.99c1.81,0,3.28-1.31,3.62-3 c0.22-0.96,0.45-1.86,0.67-2.66c0.28-0.91,0.57-1.76,0.91-2.66c0.34-0.85,0.67-1.76,1.13-2.6c0.4-0.91,0.85-1.69,1.24-2.48 c0.79-1.47,0.5-3.17-0.62-4.29l-7.01-7.07c-0.05-0.05-0.05-0.05-0.12-0.05c-0.22-0.22-0.4-0.45-0.5-0.67 c-0.12-0.22-0.12-0.45-0.12-0.79c0-0.34,0.05-0.62,0.17-0.85c0.12-0.28,0.28-0.5,0.57-0.79l8.65-8.6c0.28-0.28,0.5-0.45,0.79-0.57 c0.23-0.12,0.5-0.17,0.85-0.17c0.34,0,0.62,0.05,0.85,0.17c0.23,0.12,0.5,0.28,0.74,0.5h0.05l6.39,6.39 c1.24,1.24,3.22,1.41,4.64,0.4c0.74-0.45,1.47-0.9,2.31-1.36c0.9-0.45,1.76-0.9,2.55-1.31c0.85-0.4,1.76-0.79,2.66-1.13 c0.79-0.28,1.69-0.62,2.77-0.96c1.53-0.5,2.48-1.93,2.48-3.45v-9.8c0-0.34,0.05-0.67,0.17-0.91c0.12-0.22,0.28-0.45,0.45-0.67 c0.23-0.22,0.45-0.4,0.67-0.45c0.22-0.12,0.57-0.17,0.91-0.17h8.69h0.1h0.89c0.34,0,0.67,0.05,0.91,0.17 c0.22,0.05,0.45,0.23,0.67,0.45c0.17,0.22,0.34,0.45,0.45,0.67c0.12,0.22,0.17,0.57,0.17,0.91v9.79c0,1.53,0.96,2.94,2.48,3.45 c1.07,0.34,1.98,0.67,2.77,0.96c0.91,0.34,1.81,0.74,2.66,1.13c0.79,0.4,1.64,0.85,2.55,1.31c0.85,0.45,1.58,0.9,2.31,1.36 c1.41,1.02,3.39,0.85,4.64-0.4l6.39-6.39h0.05c0.22-0.22,0.5-0.4,0.74-0.5c0.22-0.12,0.5-0.17,0.85-0.17 c0.34,0,0.62,0.05,0.85,0.17c0.29,0.12,0.5,0.28,0.79,0.57l8.65,8.6c0.28,0.28,0.45,0.5,0.57,0.79c0.12,0.22,0.17,0.5,0.17,0.85 c0,0.34,0,0.57-0.12,0.79c-0.12,0.23-0.28,0.45-0.5,0.67c-0.05,0-0.05,0-0.12,0.05l-7.01,7.07c-1.13,1.13-1.41,2.83-0.62,4.29 c0.4,0.79,0.85,1.58,1.24,2.48c0.45,0.85,0.79,1.76,1.13,2.6c0.34,0.9,0.62,1.76,0.91,2.66c0.22,0.79,0.45,1.69,0.67,2.66 c0.34,1.69,1.81,3,3.62,3h8.98c0.34,0,0.67,0.05,0.91,0.17c0.22,0.05,0.45,0.22,0.67,0.45c0.29,0.29,0.45,0.57,0.57,0.79 c0.05,0.22,0.12,0.5,0.12,0.85v12.33c0,0.34-0.05,0.67-0.17,0.91c-0.12,0.23-0.29,0.45-0.5,0.67c-0.17,0.22-0.45,0.4-0.67,0.5 c-0.23,0.12-0.57,0.17-0.9,0.17h-9.79c-1.53,0-2.94,0.96-3.45,2.48c-0.34,1.07-0.67,1.98-0.96,2.77c-0.34,0.91-0.74,1.81-1.13,2.66 c-0.85,1.67-1.67,3.27-2.66,4.86c-0.1,0.14-0.19,0.28-0.27,0.44h8.56c0.36-0.72,0.72-1.5,1.1-2.3c0.45-1.02,0.9-2.03,1.31-3.05 c0.05-0.17,0.17-0.4,0.23-0.57h7.24c1.3,0,2.55-0.22,3.67-0.67c1.13-0.45,2.21-1.19,3.12-2.09s1.64-1.93,2.09-3.12 c0.45-1.19,0.67-2.38,0.67-3.67V59.44c0-1.24-0.28-2.48-0.74-3.62c-0.45-1.13-1.13-2.15-2.03-3.05l-0.05-0.05 c-0.91-0.91-1.93-1.64-3.05-2.1c-1.13-0.5-2.38-0.74-3.67-0.74h-6.17c0-0.17-0.05-0.28-0.12-0.45c-0.34-1.07-0.67-2.15-1.07-3.17 c-0.45-1.07-0.85-2.1-1.3-3.05c-0.05-0.12-0.17-0.28-0.22-0.45l5.1-5.15c0.96-0.85,1.64-1.86,2.14-3c0.45-1.13,0.74-2.38,0.74-3.67 c0-1.31-0.22-2.48-0.74-3.67c-0.5-1.13-1.19-2.15-2.09-3.05h-0.05l-8.65-8.6c-0.9-0.9-1.93-1.58-3.12-2.09 c-1.19-0.5-2.38-0.74-3.67-0.74c-1.24,0-2.48,0.22-3.67,0.74c-1.19,0.45-2.21,1.19-3.12,2.09l-4.41,4.36l-0.34-0.17 c-0.91-0.5-1.93-0.96-3-1.47c-1.02-0.45-2.03-0.9-3.05-1.31c-0.17-0.05-0.4-0.17-0.57-0.23V9.55c0-1.31-0.22-2.55-0.67-3.67 c-0.45-1.14-1.19-2.21-2.09-3.12c-0.96-0.91-1.98-1.64-3.12-2.09C68.9,0.22,67.71,0,66.4,0h-4.46h-1h-4.46 c-1.31,0-2.48,0.22-3.67,0.67c-1.12,0.45-2.15,1.19-3.12,2.09c-0.91,0.91-1.64,1.98-2.09,3.12c-0.45,1.12-0.67,2.38-0.67,3.67v7.24 c-0.17,0.05-0.4,0.17-0.57,0.23c-1.02,0.4-2.03,0.85-3.05,1.31c-1.07,0.5-2.09,0.96-3,1.47l-0.34,0.17l-4.41-4.36 c-0.9-0.9-1.93-1.64-3.12-2.09c-1.19-0.5-2.43-0.74-3.67-0.74c-1.31,0-2.48,0.22-3.67,0.74c-1.19,0.5-2.21,1.19-3.12,2.09 l-8.65,8.6h-0.05c-0.9,0.9-1.58,1.93-2.09,3.05c-0.5,1.18-0.74,2.37-0.74,3.66c0,1.31,0.28,2.55,0.74,3.67 c0.5,1.13,1.19,2.15,2.15,3l5.09,5.15c-0.05,0.17-0.17,0.34-0.22,0.45c-0.45,0.96-0.85,1.98-1.31,3.05 c-0.4,1.02-0.74,2.09-1.07,3.17c-0.05,0.17-0.12,0.28-0.12,0.45H9.56c-1.31,0-2.55,0.23-3.67,0.74c-1.13,0.45-2.15,1.19-3.05,2.09 l-0.05,0.05c-0.91,0.9-1.58,1.93-2.03,3.05C0.28,56.94,0,58.2,0,59.44v12.32c0,1.31,0.22,2.48,0.67,3.67 c0.45,1.19,1.19,2.21,2.09,3.12s1.98,1.64,3.12,2.09c1.13,0.45,2.38,0.67,3.67,0.67h7.24c0.05,0.17,0.17,0.4,0.23,0.57 c0.4,1.02,0.85,2.03,1.31,3.05c0.39,0.81,0.74,1.59,1.1,2.3h8.55V87.25L27.98,87.25z M46.91,61.46c-0.8,0.03-1.4,0.2-1.81,0.47 c-0.24,0.16-0.41,0.36-0.52,0.6c-0.13,0.26-0.18,0.59-0.17,0.96c0.03,1.1,0.61,2.52,1.71,4.16l0.01,0.03l0,0l3.59,5.71 c1.44,2.29,2.95,4.63,4.82,6.34c1.8,1.65,3.99,2.76,6.89,2.77c3.13,0.01,5.43-1.15,7.28-2.9c1.93-1.81,3.46-4.29,4.97-6.78 l4.04-6.66c0.75-1.72,1.03-2.87,0.86-3.55c-0.11-0.4-0.55-0.6-1.3-0.63c-0.16-0.01-0.32-0.01-0.49-0.01 c-0.18,0.01-0.37,0.02-0.57,0.03c-0.11,0.01-0.21,0-0.31-0.02c-0.36,0.02-0.73-0.01-1.11-0.06l1.38-6.13 c-7.39-0.09-12.46-1.38-18.44-5.21c-1.97-1.25-2.56-2.69-4.53-2.55c-1.48,0.28-2.73,0.95-3.73,2.02c-0.95,1.02-1.67,2.42-2.14,4.21 l0.79,7.22C47.71,61.53,47.3,61.51,46.91,61.46L46.91,61.46L46.91,61.46z M78.68,60.17c1,0.3,1.64,0.94,1.89,1.96 c0.29,1.14-0.03,2.73-0.98,4.9l0,0c-0.02,0.04-0.04,0.08-0.06,0.12l-4.09,6.74c-1.58,2.6-3.18,5.2-5.32,7.2 c-2.21,2.07-4.94,3.45-8.67,3.44c-3.48-0.01-6.1-1.34-8.25-3.31c-2.08-1.9-3.67-4.35-5.18-6.76l-3.59-5.71 c-1.31-1.96-1.99-3.75-2.04-5.22c-0.02-0.69,0.1-1.32,0.35-1.87c0.27-0.58,0.68-1.06,1.23-1.43c0.26-0.17,0.55-0.32,0.87-0.44 c-0.23-3.09-0.32-7-0.17-10.27c0.08-0.77,0.22-1.55,0.44-2.33c0.92-3.28,3.22-5.92,6.07-7.73c1-0.64,2.1-1.17,3.27-1.59 c6.89-2.51,16.04-1.14,20.94,4.15c1.99,2.16,3.25,5.02,3.52,8.8L78.68,60.17L78.68,60.17L78.68,60.17z" fill="#056674"/></g></svg>