<?xml version="1.0" encoding="utf-8"?><svg version="1.1" id="Layer_1" xmlns="http://www.w3.org/2000/svg" xmlns:xlink="http://www.w3.org/1999/xlink" x="0px" y="0px" viewBox="0 0 122.88 96.44" style="enable-background:new 0 0 122.88 96.44" xml:space="preserve"><style type="text/css">.st0{fill-rule:evenodd;clip-rule:evenodd;}</style><g><path class="st0" d="M50.44,83.01c3.4,10.01,17.62,10.38,20.82,0c3.76,3.39,14.9,4.06,19.04,6.38c1.31,0.73,2.49,1.66,3.45,2.92 c0.64,0.84,1.49,2.4,2.14,4.14H25.81c0.65-1.74,1.5-3.3,2.14-4.14c0.95-1.26,2.14-2.19,3.45-2.92 C35.54,87.07,46.67,86.39,50.44,83.01L50.44,83.01L50.44,83.01z M102.78,46.13h-7.93c-1.21,0-2.26,0.43-3.12,1.28 c-0.86,0.86-1.28,1.9-1.28,3.12v7.73c0,1.23,0.43,2.27,1.28,3.12c0.86,0.86,1.9,1.28,3.12,1.28h3.4c-0.25,0.97-0.56,1.89-0.95,2.76 c-0.38,0.87-1.03,1.71-1.93,2.51c1.72-0.45,3.25-1.12,4.6-2c1.34-0.88,2.51-1.98,3.47-3.27h2.92c1.22,0,2.26-0.44,3.12-1.28 c0.87-0.86,1.28-1.9,1.28-3.12v-7.73c0-1.22-0.43-2.26-1.28-3.12c-0.85-0.86-1.9-1.28-3.12-1.28H102.78L102.78,46.13z M122.88,55.01v7.73c0,0.7-0.12,1.36-0.38,1.97c-0.25,0.61-0.62,1.17-1.13,1.67c-0.21,0.21-0.45,0.41-0.68,0.57 c-0.24,0.18-0.5,0.32-0.75,0.45c-0.01,0.01-0.03,0.01-0.04,0.02c-0.33,0.16-0.67,0.26-1.02,0.34c-0.37,0.08-0.75,0.12-1.14,0.12 h-2.43c0.05,0.15,0.1,0.31,0.16,0.47c0.14,0.43,0.32,0.85,0.5,1.28v0.01c0.17,0.39,0.4,0.76,0.68,1.13 c0.29,0.38,0.64,0.75,1.06,1.13c0.3,0.26,0.33,0.72,0.06,1.02c-0.18,0.21-0.47,0.29-0.72,0.23c-0.89-0.24-1.75-0.53-2.55-0.88 c-0.8-0.35-1.56-0.76-2.27-1.23c-0.7-0.46-1.36-0.98-1.97-1.56c-0.52-0.49-1-1.02-1.46-1.59h-2.55c-0.48,0-0.94-0.06-1.38-0.17 c-0.44-0.12-0.86-0.3-1.26-0.54c-0.34-0.2-0.45-0.65-0.24-0.99c0.2-0.34,0.65-0.45,0.99-0.24c0.27,0.16,0.56,0.29,0.89,0.38 c0.31,0.09,0.65,0.13,1,0.13h2.91c0.22,0,0.44,0.1,0.58,0.29c0.46,0.61,0.96,1.18,1.52,1.69c0.54,0.52,1.14,0.98,1.78,1.4 c0.61,0.4,1.26,0.76,1.95,1.07c-0.14-0.23-0.24-0.45-0.35-0.67c-0.19-0.45-0.38-0.91-0.54-1.39c-0.16-0.46-0.3-0.93-0.43-1.41 c-0.03-0.08-0.04-0.17-0.04-0.25c0-0.4,0.32-0.73,0.73-0.73h3.39c0.29,0,0.56-0.03,0.83-0.09c0.25-0.06,0.49-0.14,0.71-0.24 c0.01-0.01,0.02-0.01,0.03-0.02c0.18-0.09,0.37-0.19,0.53-0.31c0.18-0.13,0.34-0.26,0.5-0.43c0.36-0.36,0.63-0.76,0.81-1.19 c0.18-0.43,0.26-0.9,0.26-1.42v-7.73c0-0.52-0.09-0.99-0.26-1.42c-0.17-0.43-0.45-0.83-0.81-1.19c-0.36-0.36-0.76-0.63-1.19-0.81 c-0.43-0.18-0.9-0.26-1.42-0.26h-3.6c-0.4,0-0.73-0.32-0.73-0.73c0-0.4,0.32-0.73,0.73-0.73h3.6c0.7,0,1.35,0.13,1.96,0.38 c0.61,0.25,1.16,0.62,1.66,1.12c0.5,0.5,0.88,1.05,1.12,1.67c0.26,0.61,0.38,1.26,0.38,1.96H122.88L122.88,55.01z M14.97,40.47 c-0.07,0-0.13-0.01-0.19-0.03c-0.31,0-0.58-0.25-0.58-0.58v-1.14H8.59v1.14c0,0.29-0.23,0.55-0.52,0.57 c-0.06,0.02-0.13,0.03-0.2,0.03H5.75v2.36h11.07v-2.36h-1.87L14.97,40.47L14.97,40.47z M5.21,54.67c0.63,0,1.14,0.51,1.14,1.14 c0,0.63-0.51,1.14-1.14,1.14c-0.63,0-1.14-0.51-1.14-1.14C4.06,55.18,4.57,54.67,5.21,54.67L5.21,54.67z M3.89,51.86 c-0.16-0.24-0.09-0.55,0.14-0.71c0.24-0.16,0.55-0.09,0.71,0.14l0.28,0.41l1.11-1.35c0.18-0.22,0.5-0.25,0.72-0.07 c0.22,0.18,0.25,0.5,0.07,0.72l-1.53,1.87c-0.03,0.04-0.07,0.08-0.12,0.11c-0.23,0.16-0.55,0.09-0.71-0.14L3.89,51.86L3.89,51.86 L3.89,51.86z M3.89,47.91c-0.16-0.24-0.09-0.55,0.14-0.71c0.24-0.16,0.55-0.1,0.71,0.14l0.28,0.41l1.11-1.35 c0.18-0.22,0.5-0.25,0.72-0.07c0.22,0.18,0.25,0.5,0.07,0.72l-1.53,1.87c-0.03,0.04-0.07,0.08-0.12,0.12 c-0.23,0.16-0.55,0.09-0.71-0.14L3.89,47.91L3.89,47.91L3.89,47.91z M15.77,65.42c-0.1,0.09-0.25,0.15-0.39,0.15 c-0.03,0-0.06,0-0.09-0.01H1.28c-0.35,0-0.67-0.14-0.91-0.38C0.14,64.95,0,64.64,0,64.28V42.1c0-0.36,0.14-0.67,0.38-0.91 c0.23-0.23,0.55-0.38,0.91-0.38h3.33v-0.63c0-0.24,0.09-0.45,0.26-0.61c0.15-0.15,0.37-0.26,0.61-0.26h1.97v-0.79 c0-0.26,0.11-0.5,0.29-0.67c0.17-0.17,0.41-0.28,0.67-0.28h6.01c0.26,0,0.5,0.11,0.67,0.28c0.17,0.17,0.28,0.41,0.28,0.67v0.79 h1.78c0.23,0,0.45,0.1,0.61,0.26c0.15,0.15,0.26,0.37,0.26,0.61v0.63h3.33c0.36,0,0.67,0.14,0.91,0.38 c0.23,0.24,0.38,0.55,0.38,0.91v16c0.05,0.23,0,0.41-0.17,0.58l-6.62,6.7c-0.02,0.02-0.03,0.03-0.05,0.04H15.77L15.77,65.42 L15.77,65.42z M14.8,64.41c0-7.66-0.97-6.75,6.66-6.75V42.1c0-0.03-0.01-0.07-0.04-0.09c-0.02-0.02-0.05-0.04-0.09-0.04h-3.33v1.16 c0,0.24-0.09,0.45-0.25,0.61c-0.15,0.15-0.37,0.25-0.61,0.25H5.47c-0.23,0-0.46-0.1-0.61-0.25c-0.02-0.02-0.03-0.04-0.05-0.06 c-0.12-0.15-0.2-0.34-0.2-0.55v-1.16H1.27c-0.03,0-0.07,0.01-0.09,0.04c-0.02,0.02-0.04,0.06-0.04,0.09v22.18 c0,0.04,0.01,0.07,0.04,0.09c0.02,0.02,0.05,0.04,0.09,0.04H14.8L14.8,64.41z M9.39,56.21c-0.31,0-0.58-0.26-0.58-0.58 c0-0.31,0.25-0.58,0.58-0.58h5.5c0.31,0,0.58,0.25,0.58,0.58c0,0.31-0.25,0.58-0.58,0.58H9.39L9.39,56.21L9.39,56.21z M9.39,47.94 c-0.31,0-0.58-0.25-0.58-0.58c0-0.31,0.25-0.58,0.58-0.58h8.47c0.32,0,0.58,0.26,0.58,0.58c0,0.31-0.25,0.58-0.58,0.58H9.39 L9.39,47.94z M9.39,52.08c-0.31,0-0.58-0.25-0.58-0.58c0-0.32,0.25-0.58,0.58-0.58h8.47c0.32,0,0.58,0.25,0.58,0.58 c0,0.31-0.25,0.58-0.58,0.58H9.39L9.39,52.08z M70.88,4.16C68.31,1.59,64.76,0,60.84,0c-3.92,0-7.47,1.59-10.04,4.16 c-2.57,2.57-4.16,6.12-4.16,10.04c0,3.92,1.59,7.47,4.16,10.04c2.57,2.57,6.12,4.16,10.04,4.16c3.92,0,7.47-1.59,10.04-4.16 c2.57-2.57,4.16-6.12,4.16-10.04C75.04,10.28,73.45,6.73,70.88,4.16L70.88,4.16z M60.6,7.3h-1.8c-0.02,0-0.05,0.01-0.06,0.03 c-0.02,0.02-0.03,0.04-0.03,0.06v9.42h8.81c0.02,0,0.05-0.01,0.06-0.03c0.02-0.02,0.03-0.04,0.03-0.06v-1.8 c0-0.02-0.01-0.05-0.03-0.06c-0.02-0.02-0.04-0.03-0.06-0.03H61.2c-0.28,0-0.51-0.23-0.51-0.51V7.39c0-0.02-0.01-0.04-0.02-0.05 l-0.01-0.01C60.65,7.31,60.62,7.3,60.6,7.3L60.6,7.3z M60.84,2.32c3.28,0,6.25,1.33,8.4,3.48c2.15,2.15,3.48,5.12,3.48,8.4 c0,3.28-1.33,6.25-3.48,8.4c-2.15,2.15-5.12,3.48-8.4,3.48c-3.28,0-6.25-1.33-8.4-3.48c-2.15-2.15-3.48-5.12-3.48-8.4 c0-3.28,1.33-6.25,3.48-8.4C54.6,3.65,57.56,2.32,60.84,2.32L60.84,2.32z M13.93,92.8c0.53,1.18,0,2.56-1.18,3.09 c-1.18,0.53-2.56,0-3.08-1.18c-1.31-2.92-2.38-5.97-3.17-9.11c-0.77-3.08-1.29-6.27-1.52-9.54c-0.09-1.29,0.88-2.41,2.17-2.5 c1.29-0.09,2.41,0.88,2.5,2.17c0.21,2.99,0.69,5.91,1.4,8.73C11.77,87.36,12.74,90.15,13.93,92.8L13.93,92.8z M26.31,34.44 c-0.96,0.86-2.44,0.78-3.3-0.18c-0.86-0.96-0.78-2.44,0.18-3.3c2.18-1.95,4.74-3.95,7.38-5.67c2.36-1.54,4.81-2.88,7.14-3.78 c1.2-0.46,2.56,0.13,3.02,1.34c0.46,1.2-0.13,2.56-1.34,3.02c-2.01,0.78-4.17,1.96-6.28,3.34C30.68,30.8,28.32,32.65,26.31,34.44 L26.31,34.44z M80.91,25.95c-1.18-0.53-1.7-1.92-1.17-3.09c0.53-1.18,1.92-1.7,3.09-1.17c3.67,1.66,7.11,3.7,10.29,6.07 c3.19,2.38,6.13,5.12,8.76,8.15c0.84,0.98,0.74,2.45-0.24,3.3c-0.98,0.84-2.45,0.74-3.3-0.24c-2.38-2.75-5.08-5.25-8.03-7.45 C87.41,29.33,84.25,27.46,80.91,25.95L80.91,25.95z M110.26,78.8c0.17-1.28,1.34-2.18,2.62-2.01c1.28,0.17,2.18,1.34,2.01,2.62 c-0.35,2.64-0.88,5.2-1.58,7.68c-0.71,2.54-1.6,5-2.65,7.36c-0.52,1.18-1.9,1.72-3.09,1.2s-1.72-1.9-1.2-3.09 c0.97-2.18,1.78-4.43,2.43-6.74C109.46,83.53,109.95,81.18,110.26,78.8L110.26,78.8z M47.83,62.26c-0.72,0.03-1.26,0.18-1.62,0.42 c-0.21,0.14-0.37,0.32-0.47,0.54c-0.11,0.24-0.16,0.53-0.15,0.86c0.03,0.98,0.54,2.26,1.53,3.73l0.02,0.02l0,0l3.22,5.12 c1.29,2.05,2.64,4.15,4.33,5.68c1.62,1.48,3.58,2.48,6.17,2.48c2.81,0.01,4.87-1.03,6.53-2.59c1.73-1.62,3.1-3.85,4.45-6.07 l3.62-5.97c0.68-1.54,0.92-2.57,0.77-3.18c-0.09-0.36-0.49-0.54-1.17-0.57c-0.14-0.01-0.29-0.01-0.44-0.01 c-0.16,0.01-0.33,0.02-0.51,0.03c-0.1,0.01-0.19,0-0.28-0.02c-0.32,0.02-0.66-0.01-0.99-0.05l1.24-4.98 c-9.21,1.45-16.1-5.39-25.84-1.37l0.7,5.96C48.54,62.32,48.17,62.31,47.83,62.26L47.83,62.26L47.83,62.26z M76.29,61.1 c0.89,0.27,1.47,0.84,1.7,1.75c0.26,1.01-0.02,2.45-0.88,4.4l0,0c-0.02,0.04-0.03,0.07-0.05,0.1l-3.67,6.04 c-1.41,2.33-2.85,4.66-4.77,6.46c-1.98,1.86-4.43,3.09-7.77,3.08c-3.12-0.01-5.47-1.2-7.4-2.96c-1.86-1.7-3.29-3.9-4.64-6.05 l-3.22-5.12c-1.18-1.75-1.79-3.36-1.83-4.68c-0.02-0.62,0.09-1.18,0.32-1.68c0.24-0.52,0.61-0.95,1.11-1.29 c0.23-0.16,0.49-0.29,0.78-0.4c-0.21-2.78-0.29-5.76-0.15-8.69c0.07-0.69,0.2-1.39,0.4-2.08c0.82-2.94,2.89-4.28,5.44-5.91 c1.41-0.9,2.95-1.57,4.56-2.03c1.02-0.29-0.87-3.56,0.19-3.67c5.11-0.52,13.38,4.14,16.95,8c1.79,1.93,2.91,3.47,3.15,6.87 L76.29,61.1L76.29,61.1L76.29,61.1z"/></g></svg>