<?xml version="1.0" encoding="utf-8"?><svg version="1.1" id="Layer_1" xmlns="http://www.w3.org/2000/svg" xmlns:xlink="http://www.w3.org/1999/xlink" x="0px" y="0px" viewBox="0 0 122.88 118.15" style="enable-background:new 0 0 122.88 118.15" xml:space="preserve"><g><path d="M62.74,106.43c-0.54-0.06-1.07-0.29-1.51-0.69l-9.8-9.05l-8.89,9.15c-0.05,0.06-0.1,0.11-0.16,0.17 c-1.05,1.05-2.76,1.05-3.8,0l-9.33-9.33l-9.61,9.16l0,0c-1.05,1-2.72,0.98-3.75-0.05l-9.14-9.24l-1.9,2.19 c-0.49,0.66-1.28,1.09-2.16,1.09C1.2,99.83,0,98.62,0,97.15V2.69C0,1.2,1.2,0,2.69,0h97.94c1.49,0,2.69,1.2,2.69,2.69v41.69h-5.37 v-39H5.38v84.87c0.95-0.5,2.14-0.39,3,0.35c0.05,0.04,0.1,0.09,0.15,0.14l0,0l9.33,9.42l9.6-9.14c1.06-1.01,2.72-0.98,3.75,0.04 l0.01-0.01l9.25,9.25l8.95-9.22c1.02-1.04,2.68-1.09,3.74-0.1l0,0l9.58,8.85V106.43L62.74,106.43z M75.52,51.6h43.5 c1.06,0,2.03,0.43,2.73,1.13l0.08,0.09c0.65,0.69,1.05,1.62,1.05,2.63v58.83c0,1.06-0.43,2.02-1.13,2.72l-0.01,0.01 c-0.7,0.7-1.66,1.13-2.72,1.13h-43.5c-1.06,0-2.03-0.43-2.73-1.13l-0.08-0.09c-0.65-0.69-1.05-1.62-1.05-2.63V55.46 c0-1.06,0.43-2.02,1.13-2.72l0.01-0.01C73.49,52.04,74.46,51.6,75.52,51.6L75.52,51.6z M110.08,62.85h1.24v6.69h-1.24V62.85 L110.08,62.85L110.08,62.85z M80.76,79.71h6.08c0.52,0,0.95,0.43,0.95,0.95v5.13c0,0.52-0.43,0.95-0.95,0.95h-6.08 c-0.52,0-0.95-0.43-0.95-0.95v-5.13C79.81,80.14,80.24,79.71,80.76,79.71L80.76,79.71L80.76,79.71z M80.76,104.11h6.08 c0.52,0,0.95,0.43,0.95,0.95v5.13c0,0.52-0.43,0.95-0.95,0.95h-6.08c-0.52,0-0.95-0.43-0.95-0.95v-5.13 C79.81,104.54,80.24,104.11,80.76,104.11L80.76,104.11L80.76,104.11L80.76,104.11z M80.76,91.91h6.08c0.52,0,0.95,0.43,0.95,0.95 v5.13c0,0.52-0.43,0.95-0.95,0.95h-6.08c-0.52,0-0.95-0.43-0.95-0.95v-5.13C79.81,92.34,80.24,91.91,80.76,91.91L80.76,91.91 L80.76,91.91z M107.71,79.71h6.08c0.52,0,0.94,0.43,0.94,0.95v5.13c0,0.52-0.43,0.95-0.94,0.95h-6.08c-0.52,0-0.95-0.43-0.95-0.95 v-5.13C106.76,80.14,107.18,79.71,107.71,79.71L107.71,79.71L107.71,79.71z M107.71,104.11h6.08c0.52,0,0.94,0.43,0.94,0.95v5.13 c0,0.52-0.43,0.95-0.94,0.95h-6.08c-0.52,0-0.95-0.43-0.95-0.95v-5.13C106.76,104.54,107.18,104.11,107.71,104.11L107.71,104.11 L107.71,104.11z M107.71,91.91h6.08c0.52,0,0.94,0.43,0.94,0.95v5.13c0,0.52-0.43,0.95-0.94,0.95h-6.08 c-0.52,0-0.95-0.43-0.95-0.95v-5.13C106.76,92.34,107.18,91.91,107.71,91.91L107.71,91.91L107.71,91.91z M94.23,79.71h6.08 c0.52,0,0.95,0.43,0.95,0.95v5.13c0,0.52-0.43,0.95-0.95,0.95h-6.08c-0.52,0-0.95-0.43-0.95-0.95v-5.13 C93.28,80.14,93.71,79.71,94.23,79.71L94.23,79.71L94.23,79.71z M94.23,104.11h6.08c0.52,0,0.95,0.43,0.95,0.95v5.13 c0,0.52-0.43,0.95-0.95,0.95h-6.08c-0.52,0-0.95-0.43-0.95-0.95v-5.13C93.28,104.54,93.71,104.11,94.23,104.11L94.23,104.11 L94.23,104.11z M94.23,91.91h6.08c0.52,0,0.95,0.43,0.95,0.95v5.13c0,0.52-0.43,0.95-0.95,0.95h-6.08c-0.52,0-0.95-0.43-0.95-0.95 v-5.13C93.28,92.34,93.71,91.91,94.23,91.91L94.23,91.91L94.23,91.91z M79.96,58.88h34.62c0.53,0,1,0.21,1.34,0.56l0.08,0.09 c0.3,0.34,0.48,0.78,0.48,1.25V71.6c0,0.52-0.21,1-0.56,1.34v0c-0.34,0.34-0.82,0.56-1.34,0.56H79.96c-0.53,0-1-0.21-1.34-0.56 l-0.08-0.09c-0.3-0.34-0.48-0.78-0.48-1.25V60.78c0-0.52,0.21-0.99,0.56-1.34l0,0C78.96,59.1,79.44,58.88,79.96,58.88L79.96,58.88z M114.33,61.03H80.21v10.32h34.12V61.03L114.33,61.03z M119.02,54.3h-43.5c-0.32,0-0.61,0.13-0.83,0.34 c-0.21,0.21-0.34,0.5-0.34,0.82v58.83c0,0.3,0.11,0.57,0.29,0.77l0.05,0.05c0.21,0.21,0.5,0.34,0.82,0.34h43.5 c0.32,0,0.61-0.13,0.82-0.34c0.21-0.21,0.34-0.5,0.34-0.82V55.46c0-0.3-0.11-0.57-0.29-0.77l-0.05-0.05 C119.63,54.43,119.34,54.3,119.02,54.3L119.02,54.3z M16.21,15.39H38v5.73h-7.32v17.45h-7.16V21.13h-7.32V15.39L16.21,15.39z M53.28,34.76h-8.12L44,38.58h-7.31l8.73-23.18h7.84l8.69,23.18h-7.5L53.28,34.76L53.28,34.76z M51.76,29.74l-2.53-8.33l-2.54,8.33 H51.76L51.76,29.74z M62.62,15.39h7.9l4.11,7.13l3.99-7.13h7.8l-7.2,11.23l7.88,11.95h-8.06l-4.55-7.45l-4.58,7.45h-8L69.9,26.5 L62.62,15.39L62.62,15.39z M45.31,74.02c1.1,0,1.98,0.89,1.98,1.98s-0.89,1.98-1.98,1.98H20.49c-1.1,0-1.98-0.89-1.98-1.98 c0-1.1,0.89-1.98,1.98-1.98H45.31L45.31,74.02L45.31,74.02z M56.55,60.83c1.1,0,1.98,0.89,1.98,1.98c0,1.1-0.89,1.98-1.98,1.98 H19.92c-1.1,0-1.98-0.89-1.98-1.98c0-1.1,0.89-1.98,1.98-1.98H56.55L56.55,60.83L56.55,60.83z M56.65,47.62 c1.09,0,1.98,0.89,1.98,1.98c0,1.1-0.89,1.98-1.98,1.98H19.92c-1.1,0-1.98-0.89-1.98-1.98c0-1.1,0.89-1.98,1.98-1.98H56.65 L56.65,47.62L56.65,47.62z"/></g></svg>