<svg xmlns="http://www.w3.org/2000/svg" xmlns:xlink="http://www.w3.org/1999/xlink" width="100" zoomAndPan="magnify" viewBox="0 0 75 74.999997" height="100" preserveAspectRatio="xMidYMid meet" version="1.0"><defs><clipPath id="5601f5a1b2"><path d="M 5.53125 0 L 69.28125 0 L 69.28125 75 L 5.53125 75 Z M 5.53125 0 " clip-rule="nonzero"/></clipPath></defs><g clip-path="url(#5601f5a1b2)"><path fill="#ff4b5c" d="M 37.414062 25.890625 C 19.90625 25.890625 8.144531 19.863281 8.144531 14.238281 C 8.144531 8.609375 19.90625 2.585938 37.414062 2.585938 C 54.921875 2.585938 66.683594 8.609375 66.683594 14.238281 C 66.683594 19.863281 54.921875 25.890625 37.414062 25.890625 Z M 66.683594 31.839844 C 66.683594 37.46875 54.921875 43.492188 37.414062 43.492188 C 19.90625 43.492188 8.144531 37.46875 8.144531 31.839844 C 8.144531 31.453125 8.203125 31.0625 8.308594 30.671875 C 9.953125 32.332031 12.308594 33.835938 15.308594 35.109375 C 21.234375 37.617188 29.085938 39 37.414062 39 C 45.746094 39 53.59375 37.617188 59.519531 35.109375 C 62.523438 33.835938 64.878906 32.332031 66.519531 30.671875 C 66.628906 31.0625 66.683594 31.453125 66.683594 31.839844 Z M 37.414062 61.898438 C 19.90625 61.898438 8.144531 55.875 8.144531 50.246094 C 8.144531 49.660156 8.269531 49.066406 8.515625 48.476562 C 10.144531 50.058594 12.429688 51.492188 15.308594 52.710938 C 21.234375 55.222656 29.085938 56.601562 37.414062 56.601562 C 45.746094 56.601562 53.59375 55.222656 59.519531 52.710938 C 62.402344 51.492188 64.683594 50.058594 66.316406 48.476562 C 66.5625 49.066406 66.683594 49.660156 66.683594 50.246094 C 66.683594 55.875 54.921875 61.898438 37.414062 61.898438 Z M 61.269531 65.511719 L 59.054688 66.304688 C 58.421875 66.53125 57.730469 66.199219 57.503906 65.566406 C 57.277344 64.929688 57.605469 64.234375 58.238281 64.007812 L 60.453125 63.214844 C 61.085938 62.988281 61.78125 63.316406 62.007812 63.953125 C 62.230469 64.585938 61.902344 65.285156 61.269531 65.511719 Z M 61.269531 46.730469 L 59.054688 47.523438 C 58.421875 47.75 57.730469 47.417969 57.503906 46.785156 C 57.277344 46.152344 57.605469 45.453125 58.238281 45.226562 L 60.453125 44.433594 C 61.085938 44.207031 61.78125 44.539062 62.007812 45.171875 C 62.230469 45.804688 61.902344 46.503906 61.269531 46.730469 Z M 58.238281 27.621094 L 60.453125 26.828125 C 61.085938 26.601562 61.78125 26.933594 62.007812 27.566406 C 62.230469 28.203125 61.902344 28.898438 61.269531 29.125 L 59.054688 29.917969 C 58.421875 30.144531 57.730469 29.816406 57.503906 29.179688 C 57.277344 28.546875 57.605469 27.847656 58.238281 27.621094 Z M 59.519531 3.898438 C 53.59375 1.390625 45.746094 0.0078125 37.414062 0.0078125 C 29.085938 0.0078125 21.234375 1.390625 15.308594 3.898438 C 9.03125 6.558594 5.574219 10.230469 5.574219 14.238281 L 5.574219 24.769531 C 5.574219 25.984375 5.894531 27.167969 6.511719 28.304688 C 5.890625 29.449219 5.574219 30.632812 5.574219 31.839844 L 5.574219 42.375 C 5.574219 43.734375 5.972656 45.054688 6.746094 46.3125 C 5.96875 47.578125 5.574219 48.898438 5.574219 50.246094 L 5.574219 60.78125 C 5.574219 64.789062 9.03125 68.460938 15.308594 71.117188 C 21.234375 73.628906 29.085938 75.011719 37.414062 75.011719 C 45.746094 75.011719 53.59375 73.628906 59.519531 71.117188 C 65.796875 68.460938 69.253906 64.789062 69.253906 60.78125 L 69.253906 50.246094 C 69.253906 48.898438 68.859375 47.574219 68.085938 46.3125 C 68.855469 45.054688 69.253906 43.734375 69.253906 42.375 L 69.253906 31.839844 C 69.253906 30.632812 68.941406 29.449219 68.316406 28.304688 C 68.933594 27.167969 69.253906 25.984375 69.253906 24.769531 L 69.253906 14.238281 C 69.253906 10.230469 65.796875 6.558594 59.519531 3.898438 " fill-opacity="1" fill-rule="nonzero"/></g></svg>