<svg xmlns="http://www.w3.org/2000/svg" xmlns:xlink="http://www.w3.org/1999/xlink" width="100" zoomAndPan="magnify" viewBox="0 0 75 74.999997" height="100" preserveAspectRatio="xMidYMid meet" version="1.0"><defs><clipPath id="b4eae6870f"><path d="M 1.238281 0.625 L 75 0.625 L 75 74.089844 L 1.238281 74.089844 Z M 1.238281 0.625 " clip-rule="nonzero"/></clipPath></defs><g clip-path="url(#b4eae6870f)"><path fill="#ff4b5c" d="M 71.566406 68.363281 L 69.257812 70.664062 C 67.453125 72.460938 64.527344 72.460938 62.722656 70.664062 L 44.242188 52.25 C 43.34375 51.351562 42.855469 50.121094 42.894531 48.855469 C 42.933594 47.585938 43.492188 46.386719 44.441406 45.542969 L 38.21875 39.34375 C 29.925781 46.609375 17.394531 46.214844 9.582031 38.441406 C -9.261719 18.058594 18.746094 -9.863281 39.222656 8.910156 C 47.019531 16.699219 47.417969 29.175781 40.132812 37.441406 L 46.355469 43.636719 C 47.203125 42.695312 48.40625 42.136719 49.679688 42.101562 C 50.949219 42.0625 52.183594 42.546875 53.085938 43.441406 L 71.566406 61.855469 C 73.367188 63.652344 73.367188 66.566406 71.566406 68.363281 Z M 73.042969 60.382812 L 54.558594 41.964844 C 53.289062 40.710938 51.605469 40.019531 49.816406 40.019531 C 49.796875 40.019531 49.636719 40.019531 49.617188 40.023438 C 48.53125 40.054688 47.46875 40.351562 46.53125 40.875 L 42.933594 37.289062 C 49.609375 28.269531 48.773438 15.507812 40.636719 7.382812 C 35.816406 2.964844 30.207031 0.628906 24.40625 0.628906 C 15.433594 0.628906 6.890625 6.332031 3.152344 14.824219 C -0.585938 23.320312 1.199219 32.441406 8.105469 39.910156 C 12.457031 44.238281 18.238281 46.621094 24.386719 46.621094 C 29.332031 46.621094 34.117188 45.039062 38.066406 42.132812 L 41.664062 45.71875 C 41.140625 46.652344 40.839844 47.707031 40.808594 48.792969 C 40.753906 50.621094 41.464844 52.414062 42.765625 53.71875 L 61.25 72.136719 C 62.515625 73.398438 64.199219 74.089844 65.992188 74.089844 C 67.78125 74.089844 69.464844 73.398438 70.734375 72.136719 L 73.046875 69.832031 C 75.652344 67.230469 75.652344 62.992188 73.042969 60.382812 " fill-opacity="1" fill-rule="nonzero"/></g><path fill="#ff4b5c" d="M 24.402344 13.058594 C 15.117188 12.894531 10.128906 24.65625 16.863281 31.1875 C 21.03125 35.328125 27.773438 35.328125 31.941406 31.1875 C 38.675781 24.660156 33.683594 12.894531 24.402344 13.058594 " fill-opacity="1" fill-rule="nonzero"/><path fill="#ff4b5c" d="M 24.402344 36.984375 C 12.703125 37.121094 6.523438 22.535156 14.949219 14.257812 C 20.175781 9.070312 28.628906 9.070312 33.855469 14.257812 C 42.28125 22.535156 36.101562 37.121094 24.402344 36.984375 Z M 24.402344 5.5 C 8.367188 5.390625 0.00390625 25.136719 11.496094 36.535156 C 18.628906 43.625 30.175781 43.625 37.308594 36.535156 C 48.800781 25.140625 40.4375 5.390625 24.402344 5.5 " fill-opacity="1" fill-rule="nonzero"/><path fill="#ff4b5c" d="M 51.171875 45.34375 C 50.8125 44.988281 50.328125 44.789062 49.820312 44.789062 C 48.640625 44.664062 47.253906 46.699219 46.15625 47.652344 C 45.410156 48.398438 45.410156 49.601562 46.15625 50.34375 L 64.644531 68.761719 C 65.394531 69.503906 66.601562 69.503906 67.347656 68.761719 L 69.660156 66.453125 C 70.402344 65.710938 70.402344 64.503906 69.660156 63.757812 L 51.171875 45.34375 " fill-opacity="1" fill-rule="nonzero"/></svg>