<svg xmlns="http://www.w3.org/2000/svg" xmlns:xlink="http://www.w3.org/1999/xlink" width="100" zoomAndPan="magnify" viewBox="0 0 75 74.999997" height="100" preserveAspectRatio="xMidYMid meet" version="1.0"><defs><clipPath id="f19b08151d"><path d="M 0 7.5 L 75 7.5 L 75 68.25 L 0 68.25 Z M 0 7.5 " clip-rule="nonzero"/></clipPath></defs><path fill="#ff4b5c" d="M 8.019531 54.082031 C 8.015625 53.132812 8.492188 52.242188 9.285156 51.714844 L 12.007812 49.925781 L 14.667969 43.496094 L 14.019531 40.316406 C 13.835938 39.386719 14.128906 38.421875 14.800781 37.746094 L 18.503906 34.054688 C 19.175781 33.382812 20.140625 33.089844 21.074219 33.269531 L 24.269531 33.921875 L 30.714844 31.261719 L 32.503906 28.554688 C 33.035156 27.761719 33.925781 27.285156 34.882812 27.285156 L 40.117188 27.285156 C 41.070312 27.285156 41.960938 27.757812 42.492188 28.550781 L 44.289062 31.265625 L 50.734375 33.921875 L 53.917969 33.273438 C 54.851562 33.089844 55.816406 33.378906 56.492188 34.054688 L 60.195312 37.746094 C 60.871094 38.417969 61.164062 39.378906 60.980469 40.308594 L 60.332031 43.496094 L 62.996094 49.921875 L 65.707031 51.710938 C 66.503906 52.238281 66.984375 53.128906 66.980469 54.082031 L 66.980469 59.304688 C 66.980469 59.953125 66.453125 60.480469 65.800781 60.480469 C 65.148438 60.480469 64.621094 59.953125 64.621094 59.304688 L 64.621094 54.082031 C 64.621094 53.917969 64.539062 53.765625 64.40625 53.671875 L 61.390625 51.6875 C 61.191406 51.558594 61.039062 51.371094 60.949219 51.15625 L 58.011719 44.0625 C 57.925781 43.84375 57.902344 43.609375 57.949219 43.378906 L 58.664062 39.851562 C 58.695312 39.691406 58.644531 39.523438 58.527344 39.410156 L 54.828125 35.714844 C 54.707031 35.597656 54.539062 35.546875 54.378906 35.578125 L 50.847656 36.296875 C 50.617188 36.34375 50.378906 36.320312 50.164062 36.230469 L 43.050781 33.300781 C 42.832031 33.210938 42.648438 33.058594 42.515625 32.863281 L 40.523438 29.851562 C 40.433594 29.71875 40.28125 29.636719 40.117188 29.636719 L 34.882812 29.636719 C 34.714844 29.636719 34.558594 29.71875 34.464844 29.859375 L 32.476562 32.863281 C 32.347656 33.058594 32.160156 33.210938 31.945312 33.300781 L 24.832031 36.230469 C 24.617188 36.320312 24.375 36.34375 24.148438 36.296875 L 20.609375 35.578125 C 20.449219 35.550781 20.28125 35.601562 20.167969 35.71875 L 16.464844 39.410156 C 16.347656 39.527344 16.296875 39.695312 16.328125 39.859375 L 17.046875 43.378906 C 17.09375 43.609375 17.070312 43.84375 16.980469 44.0625 L 14.050781 51.15625 C 13.960938 51.371094 13.808594 51.558594 13.609375 51.6875 L 10.589844 53.675781 C 10.457031 53.769531 10.375 53.917969 10.378906 54.082031 L 10.378906 59.304688 C 10.378906 59.953125 9.847656 60.480469 9.199219 60.480469 C 8.546875 60.480469 8.019531 59.953125 8.019531 59.304688 Z M 54.78125 60.46875 C 54.664062 61.011719 54.183594 61.398438 53.628906 61.398438 C 53.546875 61.398438 53.460938 61.390625 53.378906 61.371094 C 53.074219 61.308594 52.808594 61.121094 52.636719 60.859375 C 52.46875 60.597656 52.410156 60.277344 52.476562 59.972656 C 52.710938 58.894531 52.828125 57.796875 52.828125 56.695312 C 52.828125 48.246094 45.964844 41.402344 37.5 41.402344 C 29.035156 41.402344 22.171875 48.246094 22.171875 56.695312 C 22.171875 57.796875 22.289062 58.894531 22.519531 59.972656 C 22.609375 60.386719 22.472656 60.8125 22.160156 61.09375 C 21.847656 61.375 21.410156 61.472656 21.007812 61.34375 C 20.605469 61.214844 20.304688 60.882812 20.214844 60.46875 C 19.945312 59.230469 19.8125 57.964844 19.8125 56.691406 C 19.820312 46.953125 27.734375 39.058594 37.5 39.046875 C 47.265625 39.058594 55.175781 46.953125 55.1875 56.691406 C 55.1875 57.964844 55.050781 59.230469 54.78125 60.46875 Z M 4.480469 61.398438 C 4.480469 62.699219 5.539062 63.75 6.839844 63.75 L 68.160156 63.75 C 69.460938 63.75 70.519531 62.699219 70.519531 61.398438 L 70.519531 21.402344 L 4.480469 21.402344 L 4.480469 61.398438 " fill-opacity="1" fill-rule="nonzero"/><path fill="#ff4b5c" d="M 17.453125 16.699219 C 16.800781 16.699219 16.273438 16.171875 16.273438 15.523438 C 16.273438 14.875 16.800781 14.347656 17.453125 14.347656 C 18.105469 14.347656 18.632812 14.875 18.632812 15.523438 C 18.632812 16.171875 18.105469 16.699219 17.453125 16.699219 Z M 12.734375 16.699219 C 12.085938 16.699219 11.554688 16.171875 11.554688 15.523438 C 11.554688 14.875 12.085938 14.347656 12.734375 14.347656 C 13.386719 14.347656 13.914062 14.875 13.914062 15.523438 C 13.914062 16.171875 13.386719 16.699219 12.734375 16.699219 Z M 8.019531 16.699219 C 7.367188 16.699219 6.839844 16.171875 6.839844 15.523438 C 6.839844 14.875 7.367188 14.347656 8.019531 14.347656 C 8.671875 14.347656 9.199219 14.875 9.199219 15.523438 C 9.199219 16.171875 8.671875 16.699219 8.019531 16.699219 Z M 68.160156 11.996094 L 6.839844 11.996094 C 5.539062 11.996094 4.480469 13.046875 4.480469 14.347656 L 4.480469 19.050781 L 70.519531 19.050781 L 70.519531 14.347656 C 70.519531 13.046875 69.460938 11.996094 68.160156 11.996094 " fill-opacity="1" fill-rule="nonzero"/><g clip-path="url(#f19b08151d)"><path fill="#ff4b5c" d="M 72.878906 61.398438 C 72.878906 63.996094 70.765625 66.105469 68.160156 66.105469 L 6.839844 66.105469 C 4.234375 66.105469 2.121094 63.996094 2.121094 61.398438 L 2.121094 14.347656 C 2.121094 11.75 4.234375 9.640625 6.839844 9.640625 L 68.160156 9.640625 C 70.765625 9.640625 72.878906 11.75 72.878906 14.347656 Z M 68.160156 7.523438 L 6.839844 7.523438 C 3.070312 7.523438 0 10.585938 0 14.347656 L 0 61.398438 C 0 65.160156 3.070312 68.222656 6.839844 68.222656 L 68.160156 68.222656 C 71.929688 68.222656 75 65.160156 75 61.398438 L 75 14.347656 C 75 10.585938 71.929688 7.523438 68.160156 7.523438 " fill-opacity="1" fill-rule="nonzero"/></g></svg>