<svg xmlns="http://www.w3.org/2000/svg" xmlns:xlink="http://www.w3.org/1999/xlink" width="100" zoomAndPan="magnify" viewBox="0 0 75 74.999997" height="100" preserveAspectRatio="xMidYMid meet" version="1.0"><defs><clipPath id="8cef6b5329"><path d="M 0 1.363281 L 51 1.363281 L 51 38 L 0 38 Z M 0 1.363281 " clip-rule="nonzero"/></clipPath></defs><g clip-path="url(#8cef6b5329)"><path fill="#ff4b5c" d="M 25.195312 35.734375 C 12.542969 35.734375 2.246094 29.945312 2.246094 22.824219 C 2.253906 22.75 2.253906 22.675781 2.246094 22.605469 C 6.152344 27.867188 14.984375 31.601562 25.230469 31.601562 C 26.425781 31.601562 27.632812 31.550781 28.820312 31.445312 C 28.960938 31.425781 29.097656 31.386719 29.222656 31.316406 C 29.347656 31.25 29.457031 31.160156 29.546875 31.050781 C 29.636719 30.9375 29.703125 30.816406 29.746094 30.679688 C 29.789062 30.542969 29.804688 30.40625 29.792969 30.261719 C 29.777344 30.121094 29.742188 29.988281 29.675781 29.859375 C 29.613281 29.730469 29.523438 29.621094 29.417969 29.527344 C 29.308594 29.433594 29.1875 29.363281 29.054688 29.320312 C 28.917969 29.273438 28.777344 29.253906 28.636719 29.261719 C 27.507812 29.355469 26.363281 29.410156 25.230469 29.410156 C 12.542969 29.410156 2.246094 23.613281 2.246094 16.492188 C 2.246094 9.371094 12.542969 3.582031 25.195312 3.582031 C 37.84375 3.582031 48.140625 9.34375 48.140625 16.492188 C 48.132812 17.78125 47.820312 18.992188 47.199219 20.121094 C 47.132812 20.25 47.089844 20.386719 47.078125 20.53125 C 47.0625 20.675781 47.078125 20.820312 47.121094 20.957031 C 47.164062 21.097656 47.230469 21.222656 47.324219 21.335938 C 47.417969 21.445312 47.527344 21.539062 47.65625 21.605469 C 47.785156 21.671875 47.925781 21.714844 48.070312 21.726562 C 48.214844 21.742188 48.355469 21.726562 48.496094 21.683594 C 48.636719 21.640625 48.761719 21.574219 48.875 21.480469 C 48.988281 21.386719 49.078125 21.277344 49.144531 21.148438 C 49.933594 19.695312 50.332031 18.144531 50.34375 16.492188 C 50.34375 8.160156 39.058594 1.390625 25.195312 1.390625 C 11.328125 1.390625 0.0546875 8.160156 0.0546875 16.492188 C 0.0742188 18.464844 0.636719 20.269531 1.734375 21.910156 C 1.378906 21.667969 1.011719 21.648438 0.628906 21.847656 C 0.246094 22.042969 0.0546875 22.359375 0.0546875 22.789062 C 0.0546875 31.121094 11.328125 37.890625 25.195312 37.890625 C 25.339844 37.890625 25.480469 37.863281 25.613281 37.804688 C 25.75 37.75 25.867188 37.671875 25.972656 37.570312 C 26.074219 37.464844 26.15625 37.347656 26.210938 37.214844 C 26.265625 37.078125 26.292969 36.9375 26.292969 36.792969 C 26.292969 36.648438 26.265625 36.507812 26.210938 36.375 C 26.15625 36.238281 26.074219 36.121094 25.972656 36.019531 C 25.867188 35.914062 25.75 35.835938 25.613281 35.78125 C 25.480469 35.726562 25.339844 35.699219 25.195312 35.699219 Z M 25.195312 35.734375 " fill-opacity="1" fill-rule="nonzero"/></g><path fill="#ff4b5c" d="M 23.265625 42.667969 C 11.480469 42.132812 2.246094 36.476562 2.246094 29.820312 C 2.246094 29.675781 2.21875 29.535156 2.160156 29.402344 C 2.105469 29.269531 2.027344 29.148438 1.921875 29.046875 C 1.820312 28.945312 1.699219 28.863281 1.566406 28.808594 C 1.429688 28.753906 1.292969 28.726562 1.144531 28.726562 C 1 28.726562 0.859375 28.753906 0.722656 28.808594 C 0.589844 28.863281 0.46875 28.945312 0.367188 29.046875 C 0.265625 29.148438 0.183594 29.269531 0.128906 29.402344 C 0.0742188 29.535156 0.0429688 29.675781 0.0429688 29.820312 C 0.0429688 37.785156 9.972656 44.257812 23.152344 44.886719 L 23.203125 44.886719 C 23.351562 44.890625 23.492188 44.867188 23.628906 44.816406 C 23.761719 44.761719 23.882812 44.6875 23.988281 44.585938 C 24.09375 44.484375 24.179688 44.367188 24.238281 44.234375 C 24.296875 44.101562 24.328125 43.964844 24.332031 43.816406 C 24.335938 43.671875 24.308594 43.53125 24.257812 43.398438 C 24.203125 43.261719 24.128906 43.140625 24.027344 43.035156 C 23.925781 42.929688 23.808594 42.847656 23.675781 42.789062 C 23.542969 42.730469 23.402344 42.699219 23.257812 42.695312 Z M 23.265625 42.667969 " fill-opacity="1" fill-rule="nonzero"/><path fill="#ff4b5c" d="M 23.125 49.683594 C 11.417969 49.097656 2.246094 43.441406 2.246094 36.828125 C 2.246094 36.683594 2.21875 36.542969 2.160156 36.410156 C 2.105469 36.273438 2.027344 36.15625 1.921875 36.054688 C 1.820312 35.949219 1.699219 35.871094 1.566406 35.816406 C 1.429688 35.761719 1.292969 35.734375 1.144531 35.734375 C 1 35.734375 0.859375 35.761719 0.722656 35.816406 C 0.589844 35.871094 0.46875 35.949219 0.367188 36.054688 C 0.265625 36.15625 0.183594 36.273438 0.128906 36.410156 C 0.0742188 36.542969 0.0429688 36.683594 0.0429688 36.828125 C 0.0429688 44.722656 9.914062 51.210938 23.003906 51.886719 L 23.054688 51.886719 C 23.199219 51.890625 23.339844 51.867188 23.476562 51.8125 C 23.613281 51.761719 23.734375 51.6875 23.839844 51.585938 C 23.945312 51.488281 24.03125 51.371094 24.089844 51.238281 C 24.148438 51.105469 24.179688 50.964844 24.183594 50.820312 C 24.1875 50.675781 24.164062 50.535156 24.113281 50.398438 C 24.0625 50.261719 23.984375 50.144531 23.882812 50.039062 C 23.785156 49.933594 23.667969 49.847656 23.535156 49.789062 C 23.402344 49.730469 23.261719 49.699219 23.117188 49.695312 Z M 23.125 49.683594 " fill-opacity="1" fill-rule="nonzero"/><path fill="#ff4b5c" d="M 52.210938 57.578125 L 52.605469 57.578125 C 53.015625 57.597656 53.414062 57.539062 53.800781 57.398438 C 54.1875 57.261719 54.535156 57.054688 54.839844 56.78125 C 55.144531 56.507812 55.386719 56.183594 55.5625 55.816406 C 55.738281 55.445312 55.839844 55.058594 55.863281 54.648438 L 55.863281 51.867188 C 55.863281 51.195312 55.167969 50.386719 53.953125 49.660156 L 52.191406 49.046875 Z M 52.210938 57.578125 " fill-opacity="1" fill-rule="nonzero"/><path fill="#ff4b5c" d="M 50.84375 23.515625 C 50.054688 23.515625 49.269531 23.554688 48.484375 23.632812 C 47.699219 23.707031 46.921875 23.824219 46.144531 23.976562 C 45.371094 24.128906 44.609375 24.320312 43.855469 24.546875 C 43.097656 24.777344 42.355469 25.042969 41.628906 25.339844 C 40.898438 25.640625 40.1875 25.976562 39.492188 26.347656 C 38.796875 26.71875 38.121094 27.121094 37.464844 27.558594 C 36.808594 27.996094 36.175781 28.464844 35.566406 28.960938 C 34.957031 29.460938 34.371094 29.988281 33.816406 30.542969 C 33.257812 31.097656 32.726562 31.679688 32.226562 32.289062 C 31.726562 32.894531 31.257812 33.527344 30.820312 34.179688 C 30.382812 34.832031 29.976562 35.503906 29.605469 36.199219 C 29.234375 36.890625 28.894531 37.601562 28.59375 38.328125 C 28.292969 39.054688 28.027344 39.792969 27.796875 40.542969 C 27.570312 41.296875 27.378906 42.058594 27.222656 42.828125 C 27.070312 43.601562 26.953125 44.375 26.875 45.160156 C 26.800781 45.941406 26.761719 46.722656 26.761719 47.511719 C 26.761719 48.296875 26.800781 49.078125 26.875 49.863281 C 26.953125 50.644531 27.070312 51.421875 27.222656 52.191406 C 27.375 52.960938 27.566406 53.722656 27.796875 54.476562 C 28.027344 55.226562 28.292969 55.964844 28.59375 56.691406 C 28.894531 57.417969 29.230469 58.128906 29.605469 58.820312 C 29.976562 59.515625 30.378906 60.1875 30.820312 60.839844 C 31.257812 61.492188 31.726562 62.125 32.226562 62.730469 C 32.726562 63.339844 33.257812 63.921875 33.8125 64.476562 C 34.371094 65.03125 34.957031 65.558594 35.566406 66.058594 C 36.175781 66.554688 36.808594 67.023438 37.464844 67.460938 C 38.121094 67.898438 38.796875 68.300781 39.492188 68.671875 C 40.1875 69.042969 40.898438 69.378906 41.628906 69.679688 C 42.355469 69.980469 43.097656 70.242188 43.851562 70.472656 C 44.609375 70.699219 45.371094 70.890625 46.144531 71.042969 C 46.917969 71.195312 47.699219 71.3125 48.484375 71.390625 C 49.269531 71.464844 50.054688 71.503906 50.84375 71.503906 C 51.632812 71.503906 52.421875 71.464844 53.207031 71.386719 C 53.992188 71.3125 54.769531 71.195312 55.542969 71.042969 C 56.320312 70.886719 57.082031 70.699219 57.839844 70.46875 C 58.59375 70.242188 59.335938 69.976562 60.0625 69.675781 C 60.792969 69.375 61.503906 69.039062 62.199219 68.667969 C 62.898438 68.296875 63.574219 67.894531 64.226562 67.457031 C 64.882812 67.019531 65.515625 66.550781 66.125 66.054688 C 66.738281 65.554688 67.320312 65.027344 67.878906 64.472656 C 68.4375 63.914062 68.964844 63.332031 69.464844 62.726562 C 69.964844 62.117188 70.433594 61.488281 70.875 60.835938 C 71.3125 60.179688 71.714844 59.507812 72.089844 58.8125 C 72.460938 58.121094 72.796875 57.410156 73.097656 56.683594 C 73.398438 55.957031 73.664062 55.21875 73.894531 54.46875 C 74.121094 53.714844 74.3125 52.953125 74.46875 52.183594 C 74.621094 51.414062 74.738281 50.636719 74.8125 49.855469 C 74.890625 49.070312 74.929688 48.289062 74.929688 47.5 C 74.929688 46.714844 74.886719 45.933594 74.808594 45.152344 C 74.730469 44.371094 74.617188 43.59375 74.460938 42.824219 C 74.308594 42.050781 74.113281 41.292969 73.886719 40.539062 C 73.65625 39.789062 73.390625 39.050781 73.089844 38.324219 C 72.785156 37.597656 72.449219 36.890625 72.078125 36.199219 C 71.703125 35.503906 71.300781 34.832031 70.863281 34.179688 C 70.421875 33.527344 69.953125 32.898438 69.453125 32.289062 C 68.953125 31.683594 68.425781 31.101562 67.867188 30.546875 C 67.308594 29.992188 66.726562 29.464844 66.117188 28.964844 C 65.507812 28.46875 64.875 28 64.21875 27.5625 C 63.5625 27.128906 62.886719 26.722656 62.191406 26.351562 C 61.496094 25.984375 60.785156 25.648438 60.054688 25.347656 C 59.328125 25.046875 58.585938 24.78125 57.832031 24.554688 C 57.078125 24.324219 56.3125 24.132812 55.542969 23.980469 C 54.769531 23.828125 53.988281 23.710938 53.203125 23.632812 C 52.417969 23.554688 51.632812 23.515625 50.84375 23.515625 Z M 50.84375 66.796875 C 50.210938 66.796875 49.578125 66.765625 48.945312 66.703125 C 48.316406 66.640625 47.6875 66.546875 47.066406 66.425781 C 46.445312 66.300781 45.832031 66.148438 45.222656 65.964844 C 44.617188 65.78125 44.019531 65.566406 43.433594 65.328125 C 42.847656 65.085938 42.273438 64.816406 41.714844 64.515625 C 41.15625 64.21875 40.613281 63.894531 40.085938 63.542969 C 39.558594 63.191406 39.050781 62.816406 38.558594 62.414062 C 38.070312 62.015625 37.597656 61.589844 37.152344 61.144531 C 36.703125 60.699219 36.277344 60.230469 35.875 59.742188 C 35.472656 59.253906 35.09375 58.746094 34.742188 58.21875 C 34.390625 57.695312 34.066406 57.152344 33.765625 56.597656 C 33.464844 56.039062 33.195312 55.46875 32.953125 54.886719 C 32.710938 54.300781 32.496094 53.707031 32.3125 53.101562 C 32.128906 52.496094 31.976562 51.886719 31.851562 51.265625 C 31.726562 50.644531 31.632812 50.019531 31.570312 49.394531 C 31.511719 48.765625 31.480469 48.132812 31.480469 47.5 C 31.480469 46.871094 31.511719 46.238281 31.570312 45.609375 C 31.632812 44.980469 31.726562 44.355469 31.851562 43.738281 C 31.976562 43.117188 32.128906 42.503906 32.3125 41.902344 C 32.496094 41.296875 32.710938 40.703125 32.953125 40.117188 C 33.195312 39.535156 33.464844 38.964844 33.765625 38.40625 C 34.066406 37.847656 34.390625 37.308594 34.742188 36.78125 C 35.09375 36.257812 35.472656 35.75 35.875 35.261719 C 36.277344 34.773438 36.703125 34.304688 37.152344 33.859375 C 37.597656 33.410156 38.070312 32.988281 38.558594 32.585938 C 39.050781 32.1875 39.558594 31.8125 40.085938 31.460938 C 40.613281 31.109375 41.15625 30.785156 41.714844 30.484375 C 42.273438 30.1875 42.847656 29.917969 43.433594 29.675781 C 44.019531 29.433594 44.617188 29.222656 45.222656 29.039062 C 45.832031 28.855469 46.445312 28.703125 47.066406 28.578125 C 47.6875 28.457031 48.316406 28.363281 48.945312 28.300781 C 49.578125 28.238281 50.210938 28.207031 50.84375 28.207031 C 51.480469 28.207031 52.113281 28.238281 52.742188 28.300781 C 53.375 28.363281 54 28.457031 54.621094 28.578125 C 55.246094 28.703125 55.859375 28.855469 56.464844 29.039062 C 57.074219 29.222656 57.667969 29.433594 58.253906 29.675781 C 58.839844 29.917969 59.414062 30.1875 59.972656 30.484375 C 60.53125 30.785156 61.078125 31.109375 61.605469 31.460938 C 62.132812 31.8125 62.640625 32.1875 63.128906 32.585938 C 63.621094 32.988281 64.089844 33.410156 64.539062 33.859375 C 64.988281 34.304688 65.414062 34.773438 65.816406 35.261719 C 66.21875 35.75 66.59375 36.257812 66.945312 36.78125 C 67.300781 37.308594 67.625 37.847656 67.925781 38.40625 C 68.222656 38.964844 68.492188 39.535156 68.738281 40.117188 C 68.980469 40.703125 69.191406 41.296875 69.375 41.902344 C 69.5625 42.503906 69.714844 43.117188 69.839844 43.738281 C 69.960938 44.355469 70.054688 44.980469 70.117188 45.609375 C 70.179688 46.238281 70.210938 46.871094 70.210938 47.5 C 70.210938 48.132812 70.179688 48.765625 70.117188 49.394531 C 70.054688 50.019531 69.960938 50.644531 69.839844 51.265625 C 69.714844 51.886719 69.5625 52.496094 69.375 53.101562 C 69.191406 53.707031 68.980469 54.300781 68.738281 54.886719 C 68.492188 55.46875 68.222656 56.039062 67.925781 56.597656 C 67.625 57.152344 67.300781 57.695312 66.945312 58.21875 C 66.59375 58.746094 66.21875 59.253906 65.816406 59.742188 C 65.414062 60.230469 64.988281 60.699219 64.539062 61.144531 C 64.089844 61.589844 63.621094 62.015625 63.128906 62.414062 C 62.640625 62.816406 62.132812 63.191406 61.605469 63.542969 C 61.078125 63.894531 60.53125 64.21875 59.972656 64.515625 C 59.414062 64.816406 58.839844 65.085938 58.253906 65.328125 C 57.667969 65.566406 57.074219 65.78125 56.464844 65.964844 C 55.859375 66.148438 55.246094 66.300781 54.621094 66.425781 C 54 66.546875 53.375 66.640625 52.742188 66.703125 C 52.113281 66.765625 51.480469 66.796875 50.84375 66.796875 Z M 50.84375 66.796875 " fill-opacity="1" fill-rule="nonzero"/><path fill="#ff4b5c" d="M 45.828125 40.222656 L 45.828125 42.957031 C 45.828125 43.835938 46.8125 44.589844 47.667969 45.097656 L 50.007812 45.933594 L 50.007812 37.292969 L 49.128906 37.292969 C 48.714844 37.269531 48.3125 37.324219 47.921875 37.460938 C 47.527344 37.597656 47.179688 37.800781 46.867188 38.078125 C 46.558594 38.351562 46.3125 38.675781 46.132812 39.046875 C 45.953125 39.417969 45.851562 39.808594 45.828125 40.222656 Z M 45.828125 40.222656 " fill-opacity="1" fill-rule="nonzero"/><path fill="#ff4b5c" d="M 50.84375 30.390625 C 50.28125 30.390625 49.722656 30.417969 49.164062 30.472656 C 48.601562 30.527344 48.046875 30.609375 47.496094 30.71875 C 46.945312 30.828125 46.398438 30.964844 45.863281 31.128906 C 45.324219 31.289062 44.796875 31.480469 44.277344 31.695312 C 43.757812 31.90625 43.25 32.148438 42.753906 32.410156 C 42.257812 32.675781 41.777344 32.960938 41.308594 33.273438 C 40.839844 33.585938 40.390625 33.917969 39.957031 34.273438 C 39.519531 34.628906 39.105469 35.003906 38.707031 35.402344 C 38.308594 35.796875 37.933594 36.210938 37.574219 36.644531 C 37.21875 37.078125 36.886719 37.527344 36.574219 37.992188 C 36.261719 38.457031 35.972656 38.9375 35.707031 39.429688 C 35.441406 39.925781 35.203125 40.429688 34.984375 40.949219 C 34.769531 41.464844 34.582031 41.992188 34.417969 42.527344 C 34.253906 43.066406 34.121094 43.605469 34.007812 44.15625 C 33.898438 44.707031 33.816406 45.257812 33.761719 45.816406 C 33.707031 46.375 33.679688 46.933594 33.679688 47.492188 C 33.679688 48.054688 33.707031 48.613281 33.761719 49.167969 C 33.816406 49.726562 33.898438 50.28125 34.007812 50.828125 C 34.121094 51.378906 34.253906 51.921875 34.417969 52.457031 C 34.582031 52.992188 34.769531 53.519531 34.984375 54.035156 C 35.203125 54.554688 35.441406 55.058594 35.707031 55.554688 C 35.972656 56.046875 36.261719 56.527344 36.574219 56.992188 C 36.886719 57.460938 37.21875 57.910156 37.574219 58.339844 C 37.933594 58.773438 38.308594 59.1875 38.707031 59.585938 C 39.105469 59.980469 39.519531 60.355469 39.957031 60.710938 C 40.390625 61.066406 40.839844 61.402344 41.308594 61.710938 C 41.777344 62.023438 42.257812 62.308594 42.753906 62.574219 C 43.25 62.839844 43.757812 63.078125 44.277344 63.292969 C 44.796875 63.507812 45.324219 63.695312 45.863281 63.859375 C 46.398438 64.019531 46.945312 64.15625 47.496094 64.265625 C 48.046875 64.375 48.601562 64.457031 49.164062 64.511719 C 49.722656 64.566406 50.28125 64.59375 50.84375 64.59375 C 51.40625 64.59375 51.96875 64.566406 52.527344 64.511719 C 53.085938 64.457031 53.640625 64.375 54.195312 64.265625 C 54.746094 64.15625 55.289062 64.019531 55.828125 63.859375 C 56.367188 63.695312 56.894531 63.507812 57.414062 63.292969 C 57.933594 63.078125 58.441406 62.839844 58.9375 62.574219 C 59.433594 62.308594 59.914062 62.023438 60.382812 61.710938 C 60.847656 61.402344 61.300781 61.066406 61.734375 60.710938 C 62.167969 60.355469 62.585938 59.980469 62.980469 59.585938 C 63.378906 59.1875 63.757812 58.773438 64.113281 58.339844 C 64.46875 57.910156 64.804688 57.460938 65.117188 56.992188 C 65.429688 56.527344 65.71875 56.046875 65.984375 55.554688 C 66.25 55.058594 66.488281 54.554688 66.703125 54.035156 C 66.917969 53.519531 67.109375 52.992188 67.269531 52.457031 C 67.433594 51.921875 67.570312 51.378906 67.679688 50.828125 C 67.789062 50.28125 67.871094 49.726562 67.925781 49.167969 C 67.980469 48.613281 68.011719 48.054688 68.011719 47.492188 C 68.007812 46.933594 67.980469 46.375 67.925781 45.816406 C 67.867188 45.261719 67.785156 44.707031 67.675781 44.160156 C 67.566406 43.609375 67.429688 43.066406 67.265625 42.53125 C 67.101562 41.996094 66.910156 41.46875 66.695312 40.953125 C 66.480469 40.433594 66.242188 39.929688 65.976562 39.4375 C 65.710938 38.941406 65.421875 38.464844 65.109375 38 C 64.796875 37.53125 64.460938 37.082031 64.105469 36.652344 C 63.75 36.21875 63.371094 35.804688 62.976562 35.40625 C 62.578125 35.011719 62.160156 34.636719 61.726562 34.28125 C 61.292969 33.925781 60.84375 33.59375 60.375 33.28125 C 59.90625 32.96875 59.425781 32.683594 58.929688 32.417969 C 58.4375 32.15625 57.929688 31.914062 57.410156 31.699219 C 56.890625 31.484375 56.363281 31.296875 55.824219 31.132812 C 55.285156 30.972656 54.742188 30.835938 54.191406 30.722656 C 53.640625 30.613281 53.085938 30.53125 52.527344 30.476562 C 51.96875 30.421875 51.40625 30.390625 50.84375 30.390625 Z M 58.0625 41.496094 C 58.0625 41.640625 58.035156 41.78125 57.980469 41.914062 C 57.921875 42.046875 57.84375 42.167969 57.742188 42.269531 C 57.636719 42.371094 57.519531 42.453125 57.382812 42.507812 C 57.25 42.5625 57.109375 42.589844 56.960938 42.589844 C 56.816406 42.589844 56.675781 42.5625 56.542969 42.507812 C 56.40625 42.453125 56.289062 42.371094 56.183594 42.269531 C 56.082031 42.167969 56 42.046875 55.945312 41.914062 C 55.890625 41.78125 55.863281 41.640625 55.863281 41.496094 L 55.863281 40.222656 C 55.839844 39.8125 55.738281 39.425781 55.5625 39.054688 C 55.386719 38.6875 55.144531 38.363281 54.839844 38.089844 C 54.535156 37.816406 54.1875 37.609375 53.800781 37.472656 C 53.414062 37.332031 53.015625 37.273438 52.605469 37.292969 L 52.210938 37.292969 L 52.210938 46.722656 L 54.789062 47.597656 C 54.851562 47.621094 54.914062 47.652344 54.972656 47.6875 C 56.996094 48.859375 58.0625 50.316406 58.0625 51.832031 L 58.0625 54.578125 C 58.054688 54.925781 58.011719 55.269531 57.933594 55.605469 C 57.855469 55.945312 57.746094 56.273438 57.605469 56.589844 C 57.460938 56.90625 57.289062 57.207031 57.085938 57.488281 C 56.886719 57.773438 56.65625 58.035156 56.40625 58.273438 C 56.152344 58.507812 55.875 58.71875 55.582031 58.90625 C 55.285156 59.089844 54.972656 59.242188 54.648438 59.363281 C 54.320312 59.488281 53.988281 59.578125 53.644531 59.632812 C 53.300781 59.691406 52.953125 59.710938 52.605469 59.699219 L 52.210938 59.699219 L 52.210938 60.578125 C 52.210938 60.722656 52.179688 60.863281 52.125 60.996094 C 52.070312 61.132812 51.988281 61.25 51.886719 61.351562 C 51.785156 61.457031 51.664062 61.535156 51.53125 61.589844 C 51.394531 61.644531 51.253906 61.671875 51.109375 61.671875 C 50.964844 61.671875 50.824219 61.644531 50.6875 61.589844 C 50.554688 61.535156 50.433594 61.457031 50.332031 61.351562 C 50.226562 61.25 50.148438 61.132812 50.09375 60.996094 C 50.035156 60.863281 50.007812 60.722656 50.007812 60.578125 L 50.007812 59.699219 L 49.128906 59.699219 C 48.777344 59.714844 48.433594 59.695312 48.085938 59.644531 C 47.742188 59.589844 47.40625 59.503906 47.078125 59.382812 C 46.75 59.261719 46.4375 59.113281 46.136719 58.929688 C 45.839844 58.75 45.5625 58.539062 45.308594 58.304688 C 45.050781 58.066406 44.820312 57.808594 44.617188 57.523438 C 44.410156 57.242188 44.238281 56.945312 44.089844 56.628906 C 43.945312 56.308594 43.835938 55.984375 43.753906 55.644531 C 43.675781 55.304688 43.628906 54.960938 43.617188 54.613281 L 43.617188 53.332031 C 43.617188 53.1875 43.644531 53.046875 43.703125 52.914062 C 43.757812 52.78125 43.835938 52.660156 43.941406 52.558594 C 44.042969 52.457031 44.164062 52.375 44.296875 52.320312 C 44.433594 52.265625 44.570312 52.238281 44.71875 52.238281 C 44.863281 52.238281 45.003906 52.265625 45.140625 52.320312 C 45.273438 52.375 45.394531 52.457031 45.496094 52.558594 C 45.597656 52.660156 45.679688 52.78125 45.734375 52.914062 C 45.789062 53.046875 45.820312 53.1875 45.820312 53.332031 L 45.820312 54.613281 C 45.835938 55.027344 45.9375 55.421875 46.113281 55.792969 C 46.289062 56.167969 46.53125 56.496094 46.839844 56.773438 C 47.144531 57.050781 47.496094 57.257812 47.886719 57.398438 C 48.277344 57.539062 48.679688 57.597656 49.09375 57.578125 L 49.972656 57.578125 L 49.972656 48.265625 L 46.796875 47.132812 L 46.601562 47.046875 C 44.640625 45.878906 43.617188 44.503906 43.617188 42.957031 L 43.617188 40.222656 C 43.625 39.875 43.671875 39.53125 43.746094 39.191406 C 43.824219 38.855469 43.933594 38.527344 44.078125 38.207031 C 44.21875 37.890625 44.390625 37.589844 44.59375 37.308594 C 44.796875 37.023438 45.023438 36.765625 45.28125 36.527344 C 45.535156 36.289062 45.808594 36.078125 46.105469 35.894531 C 46.402344 35.710938 46.710938 35.558594 47.039062 35.433594 C 47.363281 35.3125 47.699219 35.222656 48.042969 35.167969 C 48.390625 35.109375 48.734375 35.089844 49.085938 35.101562 L 49.964844 35.101562 L 49.964844 34.433594 C 49.964844 34.289062 49.992188 34.148438 50.046875 34.015625 C 50.105469 33.878906 50.183594 33.761719 50.285156 33.660156 C 50.390625 33.554688 50.507812 33.476562 50.644531 33.421875 C 50.777344 33.367188 50.917969 33.339844 51.066406 33.339844 C 51.210938 33.339844 51.351562 33.367188 51.484375 33.421875 C 51.621094 33.476562 51.738281 33.554688 51.84375 33.660156 C 51.945312 33.761719 52.027344 33.878906 52.082031 34.015625 C 52.136719 34.148438 52.164062 34.289062 52.164062 34.433594 L 52.164062 35.101562 L 52.5625 35.101562 C 52.910156 35.089844 53.253906 35.113281 53.597656 35.167969 C 53.941406 35.226562 54.277344 35.3125 54.605469 35.4375 C 54.929688 35.558594 55.242188 35.710938 55.535156 35.898438 C 55.832031 36.082031 56.105469 36.292969 56.359375 36.53125 C 56.613281 36.769531 56.84375 37.027344 57.042969 37.3125 C 57.246094 37.59375 57.417969 37.894531 57.558594 38.210938 C 57.703125 38.527344 57.8125 38.855469 57.890625 39.195312 C 57.964844 39.53125 58.011719 39.875 58.019531 40.222656 Z M 58.0625 41.496094 " fill-opacity="1" fill-rule="nonzero"/><path fill="#ff4b5c" d="M 31.292969 12.21875 C 31.445312 12.222656 31.589844 12.195312 31.726562 12.140625 C 31.867188 12.082031 31.988281 12.003906 32.09375 11.898438 C 32.199219 11.789062 32.277344 11.667969 32.335938 11.53125 C 32.390625 11.390625 32.414062 11.246094 32.410156 11.097656 L 32.410156 10.222656 C 32.410156 7.957031 30.019531 6.179688 26.953125 6.179688 L 26.566406 6.179688 L 26.566406 5.992188 C 26.566406 5.847656 26.539062 5.707031 26.484375 5.574219 C 26.425781 5.441406 26.347656 5.320312 26.246094 5.21875 C 26.140625 5.117188 26.023438 5.035156 25.886719 4.980469 C 25.753906 4.925781 25.613281 4.898438 25.46875 4.898438 C 25.320312 4.898438 25.179688 4.925781 25.046875 4.980469 C 24.910156 5.035156 24.792969 5.117188 24.6875 5.21875 C 24.585938 5.320312 24.507812 5.441406 24.449219 5.574219 C 24.394531 5.707031 24.367188 5.847656 24.367188 5.992188 L 24.367188 6.179688 L 23.441406 6.179688 C 20.378906 6.179688 17.984375 7.933594 17.984375 10.222656 L 17.984375 12.21875 C 17.984375 14.175781 20.335938 15.183594 21.117188 15.519531 C 21.164062 15.542969 21.214844 15.5625 21.269531 15.570312 L 24.367188 16.378906 L 24.367188 22.570312 L 23.441406 22.570312 C 21.523438 22.570312 20.183594 21.59375 20.183594 20.726562 L 20.183594 19.761719 C 20.183594 19.617188 20.15625 19.476562 20.101562 19.34375 C 20.046875 19.207031 19.964844 19.089844 19.863281 18.988281 C 19.761719 18.882812 19.640625 18.804688 19.507812 18.75 C 19.371094 18.695312 19.230469 18.667969 19.085938 18.667969 C 18.9375 18.667969 18.796875 18.695312 18.664062 18.75 C 18.527344 18.804688 18.410156 18.882812 18.308594 18.988281 C 18.203125 19.089844 18.125 19.207031 18.066406 19.34375 C 18.011719 19.476562 17.984375 19.617188 17.984375 19.761719 L 17.984375 20.746094 C 17.984375 23.007812 20.378906 24.777344 23.441406 24.777344 L 24.367188 24.777344 L 24.367188 25.09375 C 24.367188 25.238281 24.394531 25.378906 24.449219 25.515625 C 24.507812 25.648438 24.585938 25.765625 24.6875 25.871094 C 24.792969 25.972656 24.910156 26.050781 25.046875 26.109375 C 25.179688 26.164062 25.320312 26.191406 25.46875 26.191406 C 25.613281 26.191406 25.753906 26.164062 25.886719 26.109375 C 26.023438 26.050781 26.140625 25.972656 26.246094 25.871094 C 26.347656 25.765625 26.425781 25.648438 26.484375 25.515625 C 26.539062 25.378906 26.566406 25.238281 26.566406 25.09375 L 26.566406 24.777344 L 26.953125 24.777344 C 30.019531 24.777344 32.410156 23.023438 32.410156 20.746094 L 32.410156 18.691406 C 32.410156 17.386719 31.328125 16.253906 29.199219 15.351562 C 29.152344 15.324219 29.101562 15.308594 29.050781 15.296875 L 26.566406 14.648438 L 26.566406 8.34375 L 26.953125 8.34375 C 28.875 8.34375 30.210938 9.316406 30.210938 10.195312 L 30.210938 11.097656 C 30.207031 11.246094 30.234375 11.386719 30.285156 11.523438 C 30.339844 11.65625 30.417969 11.777344 30.519531 11.882812 C 30.621094 11.988281 30.738281 12.070312 30.871094 12.128906 C 31.007812 12.1875 31.148438 12.21875 31.292969 12.21875 Z M 28.390625 17.394531 C 29.867188 18.042969 30.195312 18.597656 30.195312 18.691406 L 30.195312 20.746094 C 30.195312 21.621094 28.855469 22.585938 26.9375 22.585938 L 26.550781 22.585938 L 26.550781 16.921875 Z M 24.367188 14.078125 L 21.910156 13.449219 C 20.492188 12.824219 20.148438 12.335938 20.148438 12.195312 L 20.148438 10.222656 C 20.148438 9.34375 21.488281 8.371094 23.40625 8.371094 L 24.332031 8.371094 Z M 24.367188 14.078125 " fill-opacity="1" fill-rule="nonzero"/></svg>