<svg xmlns="http://www.w3.org/2000/svg" xmlns:xlink="http://www.w3.org/1999/xlink" width="100" zoomAndPan="magnify" viewBox="0 0 75 74.999997" height="100" preserveAspectRatio="xMidYMid meet" version="1.0"><path fill="#ff4b5c" d="M 25.890625 38.625 C 26.210938 38.203125 26.566406 37.816406 27.070312 37.464844 C 30.777344 42.238281 34.75 46.75 38.617188 51.453125 C 38.109375 51.746094 37.660156 52.113281 37.132812 52.308594 C 33.050781 48 29.363281 43.421875 25.890625 38.625 Z M 32.613281 29.710938 C 35.839844 26.5 39.339844 23.589844 42.867188 20.6875 C 47.246094 17.089844 52.285156 14.917969 57.601562 13.171875 C 58.003906 13.039062 58.425781 12.949219 58.816406 12.785156 C 59.433594 12.523438 59.9375 12.699219 60.351562 13.152344 C 62.570312 15.613281 65.164062 17.734375 67.035156 20.519531 C 68.050781 22.039062 69.261719 23.441406 70.242188 25 C 70.507812 25.429688 70.523438 25.75 70.320312 26.21875 C 69.011719 29.25 66.914062 31.757812 64.800781 34.253906 C 62.621094 36.828125 60.109375 39.050781 57.402344 41.082031 C 53.933594 43.675781 50.539062 46.382812 46.6875 48.453125 C 45.710938 48.976562 44.746094 49.515625 43.722656 49.945312 C 42.496094 50.460938 41.210938 50.84375 40.054688 51.5625 C 36.066406 46.019531 31.617188 40.914062 27.164062 35.820312 C 28.652344 33.488281 30.675781 31.636719 32.613281 29.710938 Z M 71.375 17.886719 C 71.753906 18.132812 72.078125 18.34375 72.40625 18.558594 C 72.355469 19.089844 72.039062 19.460938 71.84375 19.878906 C 71.644531 20.308594 71.351562 20.691406 71.195312 21.246094 C 70.78125 20.726562 70.402344 20.253906 69.984375 19.726562 C 70.589844 19.183594 71.007812 18.585938 71.375 17.886719 Z M 72.398438 12.9375 C 73.957031 14.203125 73.183594 15.597656 73 17.042969 C 72.320312 16.375 72.050781 15.761719 72.34375 14.910156 C 72.546875 14.328125 72.535156 13.679688 72.398438 12.9375 Z M 15 45.875 C 11.976562 47.378906 9.394531 49.402344 7.449219 52.15625 C 6.347656 53.714844 5.429688 55.390625 4.558594 57.082031 C 4.367188 57.460938 4.144531 57.886719 4.609375 58.214844 C 5.054688 58.523438 5.359375 58.148438 5.636719 57.890625 C 6.125 57.421875 6.691406 57.082031 7.394531 56.828125 C 6.972656 58.578125 6.21875 60.023438 4.949219 61.238281 C 3.75 62.390625 2.347656 63.109375 0.738281 63.492188 C 0.414062 63.574219 0.0273438 63.644531 0.0351562 64.09375 C 0.0390625 64.484375 0.375 64.5625 0.664062 64.683594 C 5.191406 66.667969 9.878906 67.214844 14.714844 66.207031 C 17.996094 65.519531 21 64.339844 22.980469 61.46875 C 23 61.445312 23.054688 61.445312 23.097656 61.433594 C 22.828125 63.078125 22.710938 63.371094 21.761719 64.738281 C 21.582031 64.992188 21.339844 65.234375 21.605469 65.558594 C 21.921875 65.941406 22.203125 65.660156 22.503906 65.503906 C 25.445312 64.015625 27.664062 61.859375 28.914062 58.8125 C 29.140625 58.265625 29.40625 57.742188 29.621094 57.195312 C 30.640625 54.609375 32.441406 52.59375 34.449219 50.703125 C 35.207031 51.378906 35.789062 52.097656 36.257812 52.914062 C 36.828125 53.898438 37.207031 53.972656 38.058594 53.28125 C 38.46875 52.945312 38.886719 52.628906 39.351562 52.363281 C 39.824219 53.125 40.039062 53.203125 40.804688 52.914062 C 42.007812 52.460938 43.195312 51.988281 44.398438 51.550781 C 45.984375 50.972656 48.949219 49.003906 50.402344 48.132812 C 50.75 48.773438 50.667969 51.574219 50.316406 52.105469 C 49.742188 52.976562 46.414062 59.59375 47 59.808594 C 47.570312 60.023438 55.300781 54.417969 58.441406 52.234375 C 59.136719 51.753906 62 39.421875 62.355469 39.089844 C 64.304688 37.28125 66.019531 35.265625 67.679688 33.203125 C 70.105469 30.191406 71.910156 26.8125 73.324219 23.257812 C 74.257812 20.917969 75.023438 18.488281 74.9375 15.90625 C 74.859375 13.746094 73.96875 12.074219 71.855469 11.183594 C 71.328125 10.957031 70.800781 10.757812 70.242188 10.628906 C 68.203125 10.152344 66.132812 10.085938 64.09375 10.390625 C 60.648438 10.910156 57.167969 11.3125 53.851562 12.484375 C 49.972656 13.855469 46.53125 15.992188 43.164062 18.300781 C 42.601562 17.945312 30.070312 19.28125 29.402344 19.835938 C 26.453125 22.28125 18.921875 29.277344 20.210938 29.417969 C 21.285156 29.542969 28.472656 27.253906 28.472656 27.253906 C 28.472656 27.253906 30.960938 27.859375 31.792969 28.042969 C 31.359375 28.71875 30.804688 29.160156 30.324219 29.652344 C 28.84375 31.171875 25.484375 35.398438 25.746094 35.792969 C 26.007812 36.191406 26.265625 36.347656 26.453125 36.804688 C 26.101562 37.003906 25.90625 37.355469 25.554688 37.542969 C 24.484375 38.121094 24.359375 38.648438 25.132812 39.605469 C 25.554688 40.136719 26.066406 40.597656 26.566406 41.128906 C 24.910156 41.929688 23.386719 42.769531 21.71875 43.195312 C 19.347656 43.800781 17.164062 44.796875 15 45.875 " fill-opacity="1" fill-rule="nonzero"/><path fill="#ff4b5c" d="M 54.667969 25.738281 C 55.082031 25.800781 55.167969 26.140625 55.207031 26.5 C 55.097656 26.804688 54.953125 27.058594 54.546875 27 C 54.132812 26.9375 53.941406 26.652344 53.960938 26.292969 C 53.988281 25.910156 54.257812 25.679688 54.667969 25.738281 Z M 54.671875 22.902344 C 55.585938 20.757812 57.660156 19.554688 60.246094 19.714844 C 60.679688 19.71875 61.179688 19.804688 61.566406 20.207031 C 61.746094 20.390625 61.929688 20.585938 61.796875 20.867188 C 61.671875 21.125 61.433594 21.199219 61.152344 21.164062 C 60.515625 21.09375 59.910156 21.214844 59.296875 21.351562 C 57.953125 21.636719 56.886719 22.308594 56.09375 23.40625 C 55.894531 23.675781 55.691406 23.945312 55.464844 24.195312 C 55.296875 24.375 55.078125 24.550781 54.789062 24.417969 C 54.527344 24.300781 54.472656 24.035156 54.4375 23.785156 C 54.394531 23.464844 54.546875 23.179688 54.671875 22.902344 Z M 56.101562 30.570312 C 58.699219 31.382812 61.558594 30.203125 63.304688 28.183594 C 65.472656 25.667969 65.785156 22 63.199219 19.628906 C 62.746094 19.210938 62.238281 18.855469 61.699219 18.558594 C 59.515625 17.371094 56.929688 17.527344 54.785156 18.722656 C 53.007812 19.714844 52.1875 21.316406 51.792969 23.265625 C 51.253906 25.964844 52.695312 28.871094 55.167969 30.171875 C 55.472656 30.335938 55.789062 30.46875 56.101562 30.570312 " fill-opacity="1" fill-rule="nonzero"/><path fill="#ff4b5c" d="M 52.929688 29.796875 C 52.859375 29.160156 52.472656 28.488281 51.722656 28.59375 C 50.511719 28.769531 41.253906 35.664062 38.316406 39.007812 C 37.476562 39.96875 36.445312 40.722656 35.667969 41.738281 C 35.246094 42.296875 35.179688 43.164062 36.097656 43.292969 C 36.484375 43.347656 36.855469 43.15625 37.1875 42.960938 C 40.3125 41.136719 43.269531 38.863281 46.164062 36.710938 C 47.476562 35.730469 53.035156 30.769531 52.929688 29.796875 " fill-opacity="1" fill-rule="nonzero"/></svg>