<svg xmlns="http://www.w3.org/2000/svg" xmlns:xlink="http://www.w3.org/1999/xlink" width="100" zoomAndPan="magnify" viewBox="0 0 75 74.999997" height="100" preserveAspectRatio="xMidYMid meet" version="1.0"><defs><clipPath id="e7fdf78d92"><path d="M 13 40.785156 L 61.742188 40.785156 L 61.742188 46.035156 L 13 46.035156 Z M 13 40.785156 " clip-rule="nonzero"/></clipPath><clipPath id="d442bf6c80"><path d="M 0 4.40625 L 75 4.40625 L 75 70.40625 L 0 70.40625 Z M 0 4.40625 " clip-rule="nonzero"/></clipPath><clipPath id="f7203d954c"><path d="M 0 4.40625 L 75 4.40625 L 75 22 L 0 22 Z M 0 4.40625 " clip-rule="nonzero"/></clipPath></defs><g clip-path="url(#e7fdf78d92)"><path fill="#ffffff" d="M 59.019531 40.785156 L 15.714844 40.785156 C 14.21875 40.785156 13.003906 41.964844 13.003906 43.410156 C 13.003906 44.859375 14.21875 46.035156 15.714844 46.035156 L 59.019531 46.035156 C 60.515625 46.035156 61.730469 44.859375 61.730469 43.410156 C 61.730469 41.964844 60.515625 40.785156 59.019531 40.785156 M 59.019531 45.96875 L 15.714844 45.96875 C 14.257812 45.96875 13.074219 44.820312 13.074219 43.410156 C 13.074219 42.003906 14.257812 40.855469 15.714844 40.855469 L 59.019531 40.855469 C 60.476562 40.855469 61.660156 42.003906 61.660156 43.410156 C 61.660156 44.820312 60.476562 45.96875 59.019531 45.96875 " fill-opacity="1" fill-rule="nonzero"/></g><g clip-path="url(#d442bf6c80)"><path fill="#ff4b5c" d="M 74.976562 13.59375 C 74.976562 8.511719 70.847656 4.394531 65.753906 4.394531 C 51.578125 4.394531 23.410156 4.394531 9.238281 4.394531 C 4.144531 4.394531 0.0117188 8.511719 0.0117188 13.59375 C 0.0117188 24.136719 0.0117188 50.652344 0.0117188 61.195312 C 0.0117188 66.277344 4.144531 70.394531 9.238281 70.394531 C 23.410156 70.394531 51.578125 70.394531 65.753906 70.394531 C 70.847656 70.394531 74.976562 66.277344 74.976562 61.195312 C 74.976562 50.652344 74.976562 24.136719 74.976562 13.59375 Z M 73.660156 13.59375 L 73.660156 61.195312 C 73.660156 65.550781 70.121094 69.082031 65.753906 69.082031 C 65.75 69.082031 9.238281 69.082031 9.238281 69.082031 C 4.871094 69.082031 1.328125 65.550781 1.328125 61.195312 C 1.328125 50.652344 1.328125 24.136719 1.328125 13.59375 C 1.328125 9.238281 4.871094 5.707031 9.238281 5.707031 C 9.238281 5.707031 65.753906 5.707031 65.753906 5.707031 C 70.121094 5.707031 73.660156 9.238281 73.660156 13.59375 Z M 73.660156 13.59375 " fill-opacity="1" fill-rule="evenodd"/></g><g clip-path="url(#f7203d954c)"><path fill="#ff4b5c" d="M 0.0117188 20.417969 C 0.0117188 20.78125 0.308594 21.074219 0.671875 21.074219 L 74.316406 21.074219 C 74.679688 21.074219 74.976562 20.78125 74.976562 20.417969 L 74.976562 13.59375 C 74.976562 8.511719 70.847656 4.394531 65.753906 4.394531 C 51.578125 4.394531 23.410156 4.394531 9.238281 4.394531 C 4.144531 4.394531 0.0117188 8.511719 0.0117188 13.59375 C 0.0117188 13.59375 0.0117188 20.417969 0.0117188 20.417969 Z M 65.007812 9.539062 C 63.238281 9.539062 61.804688 10.96875 61.804688 12.734375 C 61.804688 14.5 63.238281 15.929688 65.007812 15.929688 C 66.777344 15.929688 68.214844 14.5 68.214844 12.734375 C 68.214844 10.96875 66.777344 9.539062 65.007812 9.539062 Z M 46.984375 9.539062 C 45.214844 9.539062 43.78125 10.96875 43.78125 12.734375 C 43.78125 14.5 45.214844 15.929688 46.984375 15.929688 C 48.753906 15.929688 50.191406 14.5 50.191406 12.734375 C 50.191406 10.96875 48.753906 9.539062 46.984375 9.539062 Z M 55.996094 9.539062 C 54.226562 9.539062 52.792969 10.96875 52.792969 12.734375 C 52.792969 14.5 54.226562 15.929688 55.996094 15.929688 C 57.765625 15.929688 59.203125 14.5 59.203125 12.734375 C 59.203125 10.96875 57.765625 9.539062 55.996094 9.539062 Z M 28.984375 9.539062 L 9.980469 9.539062 C 8.210938 9.539062 6.773438 10.96875 6.773438 12.734375 C 6.773438 14.5 8.210938 15.929688 9.980469 15.929688 L 28.984375 15.929688 C 30.753906 15.929688 32.191406 14.5 32.191406 12.734375 C 32.191406 10.96875 30.753906 9.539062 28.984375 9.539062 Z M 28.984375 9.539062 " fill-opacity="1" fill-rule="evenodd"/></g><path fill="#ff4b5c" d="M 69.6875 39.109375 C 69.6875 36.28125 67.386719 33.992188 64.554688 33.992188 C 52.957031 33.992188 22.03125 33.992188 10.433594 33.992188 C 7.601562 33.992188 5.304688 36.28125 5.304688 39.109375 C 5.304688 42.632812 5.304688 47.523438 5.304688 51.046875 C 5.304688 53.875 7.601562 56.164062 10.433594 56.164062 C 22.03125 56.164062 52.957031 56.164062 64.554688 56.164062 C 67.386719 56.164062 69.6875 53.875 69.6875 51.046875 C 69.6875 47.523438 69.6875 42.632812 69.6875 39.109375 Z M 37.496094 46.644531 L 39.503906 50.148438 C 39.855469 50.765625 40.546875 51.109375 41.25 51.023438 C 41.957031 50.9375 42.539062 50.4375 42.734375 49.753906 L 45.238281 40.894531 C 45.449219 40.152344 45.015625 39.382812 44.273438 39.171875 C 43.53125 38.964844 42.757812 39.394531 42.546875 40.136719 L 40.710938 46.632812 L 39.027344 43.695312 C 38.710938 43.148438 38.128906 42.808594 37.496094 42.808594 C 36.863281 42.808594 36.277344 43.148438 35.964844 43.695312 L 34.28125 46.632812 L 32.441406 40.136719 C 32.234375 39.394531 31.460938 38.964844 30.71875 39.171875 C 29.972656 39.382812 29.542969 40.152344 29.75 40.894531 L 32.257812 49.753906 C 32.449219 50.4375 33.035156 50.9375 33.738281 51.023438 C 34.445312 51.109375 35.132812 50.765625 35.484375 50.148438 Z M 56.589844 46.644531 L 58.601562 50.148438 C 58.953125 50.765625 59.640625 51.109375 60.347656 51.023438 C 61.054688 50.9375 61.636719 50.4375 61.832031 49.753906 L 64.335938 40.894531 C 64.546875 40.152344 64.113281 39.382812 63.371094 39.171875 C 62.628906 38.964844 61.855469 39.394531 61.644531 40.136719 L 59.808594 46.632812 L 58.125 43.695312 C 57.808594 43.148438 57.226562 42.808594 56.589844 42.808594 C 55.957031 42.808594 55.375 43.148438 55.0625 43.695312 L 53.375 46.632812 L 51.539062 40.136719 C 51.328125 39.394531 50.558594 38.964844 49.8125 39.171875 C 49.070312 39.382812 48.636719 40.152344 48.847656 40.894531 L 51.355469 49.753906 C 51.546875 50.4375 52.128906 50.9375 52.835938 51.023438 C 53.542969 51.109375 54.230469 50.765625 54.582031 50.148438 L 56.59375 46.644531 Z M 18.398438 46.644531 L 20.40625 50.148438 C 20.761719 50.765625 21.449219 51.109375 22.152344 51.023438 C 22.859375 50.9375 23.441406 50.4375 23.636719 49.753906 L 26.140625 40.894531 C 26.351562 40.152344 25.917969 39.382812 25.175781 39.171875 C 24.433594 38.964844 23.660156 39.394531 23.449219 40.136719 L 21.613281 46.632812 L 19.929688 43.695312 C 19.613281 43.148438 19.03125 42.808594 18.398438 42.808594 C 17.765625 42.808594 17.179688 43.148438 16.867188 43.695312 L 15.183594 46.632812 L 13.34375 40.136719 C 13.136719 39.394531 12.363281 38.964844 11.621094 39.171875 C 10.878906 39.382812 10.445312 40.152344 10.652344 40.894531 L 13.160156 49.753906 C 13.351562 50.4375 13.9375 50.9375 14.640625 51.023438 C 15.347656 51.109375 16.035156 50.765625 16.386719 50.148438 Z M 18.398438 46.644531 " fill-opacity="1" fill-rule="evenodd"/></svg>