<svg xmlns="http://www.w3.org/2000/svg" xmlns:xlink="http://www.w3.org/1999/xlink" width="100" zoomAndPan="magnify" viewBox="0 0 75 74.999997" height="100" preserveAspectRatio="xMidYMid meet" version="1.0"><path fill="#ff4b5c" d="M 12.5 36.40625 C 12.902344 36.40625 13.28125 36.316406 13.640625 36.132812 C 14 35.949219 14.296875 35.691406 14.53125 35.367188 L 26.347656 18.929688 L 35.675781 28.890625 C 36.15625 29.40625 36.746094 29.671875 37.453125 29.683594 C 38.160156 29.714844 38.761719 29.472656 39.257812 28.964844 L 60.058594 8.433594 L 60.058594 15 C 60.050781 15.335938 60.109375 15.660156 60.230469 15.976562 C 60.355469 16.289062 60.535156 16.566406 60.769531 16.808594 C 61.003906 17.046875 61.277344 17.234375 61.585938 17.363281 C 61.898438 17.496094 62.222656 17.5625 62.558594 17.5625 C 62.894531 17.5625 63.21875 17.496094 63.527344 17.363281 C 63.839844 17.234375 64.113281 17.046875 64.347656 16.808594 C 64.582031 16.566406 64.761719 16.289062 64.886719 15.976562 C 65.007812 15.660156 65.066406 15.335938 65.058594 15 L 65.058594 2.5 C 65.058594 2.167969 64.996094 1.847656 64.867188 1.542969 C 64.738281 1.234375 64.558594 0.964844 64.324219 0.730469 C 64.085938 0.496094 63.816406 0.3125 63.507812 0.1875 C 63.199219 0.0625 62.882812 0 62.546875 0 L 50.050781 0 C 49.722656 0.0078125 49.410156 0.078125 49.109375 0.207031 C 48.8125 0.335938 48.546875 0.519531 48.320312 0.753906 C 48.09375 0.988281 47.917969 1.253906 47.792969 1.558594 C 47.671875 1.859375 47.609375 2.171875 47.609375 2.5 C 47.609375 2.824219 47.671875 3.140625 47.792969 3.441406 C 47.917969 3.746094 48.09375 4.011719 48.320312 4.246094 C 48.546875 4.480469 48.8125 4.660156 49.109375 4.792969 C 49.410156 4.921875 49.722656 4.992188 50.050781 5 L 56.410156 5 L 37.570312 23.601562 L 27.917969 13.289062 C 27.792969 13.15625 27.652344 13.035156 27.5 12.933594 C 27.347656 12.828125 27.1875 12.742188 27.015625 12.675781 C 26.84375 12.605469 26.664062 12.558594 26.484375 12.527344 C 26.300781 12.5 26.117188 12.492188 25.933594 12.503906 C 25.75 12.515625 25.566406 12.546875 25.390625 12.597656 C 25.214844 12.652344 25.042969 12.722656 24.882812 12.8125 C 24.722656 12.902344 24.570312 13.007812 24.433594 13.128906 C 24.296875 13.25 24.171875 13.386719 24.066406 13.539062 L 10.472656 32.445312 C 10.199219 32.828125 10.042969 33.25 10.007812 33.71875 C 9.976562 34.183594 10.0625 34.625 10.277344 35.042969 C 10.492188 35.457031 10.796875 35.789062 11.195312 36.035156 C 11.597656 36.277344 12.03125 36.402344 12.5 36.402344 Z M 12.5 36.40625 " fill-opacity="1" fill-rule="nonzero"/><path fill="#ff4b5c" d="M 0 65 L 0 67.5 C 0 67.992188 0.0507812 68.480469 0.144531 68.960938 C 0.242188 69.445312 0.382812 69.914062 0.574219 70.367188 C 0.761719 70.824219 0.992188 71.253906 1.265625 71.664062 C 1.539062 72.074219 1.851562 72.453125 2.199219 72.800781 C 2.546875 73.148438 2.925781 73.460938 3.335938 73.734375 C 3.746094 74.007812 4.175781 74.238281 4.632812 74.425781 C 5.085938 74.617188 5.554688 74.757812 6.039062 74.855469 C 6.519531 74.949219 7.007812 75 7.5 75 L 67.5 75 C 67.992188 75 68.480469 74.949219 68.960938 74.855469 C 69.445312 74.757812 69.914062 74.617188 70.367188 74.425781 C 70.824219 74.238281 71.253906 74.007812 71.664062 73.734375 C 72.074219 73.460938 72.453125 73.148438 72.800781 72.800781 C 73.148438 72.453125 73.460938 72.074219 73.734375 71.664062 C 74.007812 71.253906 74.238281 70.824219 74.425781 70.367188 C 74.617188 69.914062 74.757812 69.445312 74.855469 68.960938 C 74.949219 68.480469 75 67.992188 75 67.5 L 75 65 Z M 0 65 " fill-opacity="1" fill-rule="nonzero"/><path fill="#ff4b5c" d="M 22.5 50 C 22.5 49.671875 22.46875 49.347656 22.402344 49.023438 C 22.339844 48.703125 22.242188 48.390625 22.117188 48.085938 C 21.992188 47.785156 21.839844 47.496094 21.65625 47.222656 C 21.472656 46.949219 21.265625 46.699219 21.035156 46.464844 C 20.800781 46.234375 20.550781 46.027344 20.277344 45.84375 C 20.003906 45.660156 19.714844 45.507812 19.414062 45.382812 C 19.109375 45.257812 18.796875 45.160156 18.476562 45.097656 C 18.152344 45.03125 17.828125 45 17.5 45 L 10 45 C 9.671875 45 9.347656 45.03125 9.027344 45.097656 C 8.703125 45.160156 8.390625 45.257812 8.089844 45.382812 C 7.785156 45.507812 7.496094 45.660156 7.222656 45.84375 C 6.949219 46.027344 6.699219 46.234375 6.464844 46.464844 C 6.234375 46.699219 6.027344 46.949219 5.84375 47.222656 C 5.664062 47.496094 5.507812 47.785156 5.382812 48.085938 C 5.257812 48.390625 5.160156 48.703125 5.097656 49.023438 C 5.03125 49.347656 5 49.671875 5 50 L 5 60 L 22.5 60 Z M 22.5 50 " fill-opacity="1" fill-rule="nonzero"/><path fill="#ff4b5c" d="M 33.75 35 C 33.421875 35 33.097656 35.03125 32.773438 35.097656 C 32.453125 35.160156 32.140625 35.257812 31.835938 35.382812 C 31.535156 35.507812 31.246094 35.660156 30.972656 35.84375 C 30.699219 36.027344 30.449219 36.234375 30.214844 36.464844 C 29.984375 36.699219 29.777344 36.949219 29.59375 37.222656 C 29.410156 37.496094 29.257812 37.785156 29.132812 38.085938 C 29.007812 38.390625 28.910156 38.703125 28.847656 39.023438 C 28.78125 39.347656 28.75 39.671875 28.75 40 L 28.75 60 L 46.25 60 L 46.25 40 C 46.25 39.671875 46.21875 39.347656 46.152344 39.023438 C 46.089844 38.703125 45.992188 38.390625 45.867188 38.085938 C 45.742188 37.785156 45.589844 37.496094 45.40625 37.222656 C 45.222656 36.949219 45.015625 36.699219 44.785156 36.464844 C 44.550781 36.234375 44.300781 36.027344 44.027344 35.84375 C 43.753906 35.660156 43.464844 35.507812 43.164062 35.382812 C 42.859375 35.257812 42.546875 35.160156 42.226562 35.097656 C 41.902344 35.03125 41.578125 35 41.25 35 Z M 33.75 35 " fill-opacity="1" fill-rule="nonzero"/><path fill="#ff4b5c" d="M 57.5 25 C 57.171875 25 56.847656 25.035156 56.523438 25.097656 C 56.203125 25.160156 55.890625 25.257812 55.585938 25.382812 C 55.285156 25.507812 54.996094 25.664062 54.722656 25.84375 C 54.449219 26.027344 54.199219 26.234375 53.964844 26.464844 C 53.734375 26.699219 53.527344 26.949219 53.34375 27.222656 C 53.160156 27.496094 53.007812 27.785156 52.882812 28.085938 C 52.757812 28.390625 52.660156 28.703125 52.597656 29.023438 C 52.53125 29.347656 52.5 29.671875 52.5 30 L 52.5 60 L 70 60 L 70 30 C 70 29.671875 69.96875 29.347656 69.902344 29.023438 C 69.839844 28.703125 69.742188 28.390625 69.617188 28.085938 C 69.492188 27.785156 69.339844 27.496094 69.15625 27.222656 C 68.972656 26.949219 68.765625 26.699219 68.535156 26.464844 C 68.300781 26.234375 68.050781 26.027344 67.777344 25.84375 C 67.503906 25.660156 67.214844 25.507812 66.914062 25.382812 C 66.609375 25.257812 66.296875 25.160156 65.976562 25.097656 C 65.652344 25.03125 65.328125 25 65 25 Z M 57.5 25 " fill-opacity="1" fill-rule="nonzero"/></svg>