<svg xmlns="http://www.w3.org/2000/svg" xmlns:xlink="http://www.w3.org/1999/xlink" width="100" zoomAndPan="magnify" viewBox="0 0 75 74.999997" height="100" preserveAspectRatio="xMidYMid meet" version="1.0"><defs><clipPath id="5576f4e2d4"><path d="M 0 5.621094 L 75 5.621094 L 75 69.371094 L 0 69.371094 Z M 0 5.621094 " clip-rule="nonzero"/></clipPath></defs><g clip-path="url(#5576f4e2d4)"><path fill="#ff4b5c" d="M 67.933594 5.644531 L 7.066406 5.644531 C 3.171875 5.644531 0 8.816406 0 12.710938 L 0 62.28125 C 0 66.175781 3.171875 69.347656 7.066406 69.347656 L 67.933594 69.347656 C 71.828125 69.347656 75 66.175781 75 62.28125 L 75 12.710938 C 75 8.816406 71.828125 5.644531 67.933594 5.644531 Z M 5.75 12.710938 C 5.75 11.996094 6.351562 11.394531 7.066406 11.394531 L 67.933594 11.394531 C 68.648438 11.394531 69.25 11.996094 69.25 12.710938 L 69.25 13.625 L 38.175781 44.699219 C 37.808594 45.066406 37.191406 45.066406 36.824219 44.699219 L 5.75 13.625 Z M 69.25 62.289062 C 69.25 63.003906 68.648438 63.605469 67.933594 63.605469 L 7.066406 63.605469 C 6.351562 63.605469 5.75 63.003906 5.75 62.289062 L 5.75 21.757812 L 32.75 48.753906 C 34.011719 50.019531 35.699219 50.71875 37.492188 50.71875 C 39.285156 50.71875 40.972656 50.027344 42.234375 48.753906 L 69.234375 21.757812 L 69.234375 62.289062 Z M 69.25 62.289062 " fill-opacity="1" fill-rule="nonzero"/></g></svg>