<svg xmlns="http://www.w3.org/2000/svg" xmlns:xlink="http://www.w3.org/1999/xlink" width="100" zoomAndPan="magnify" viewBox="0 0 75 74.999997" height="100" preserveAspectRatio="xMidYMid meet" version="1.0"><defs><clipPath id="5fca1411d5"><path d="M 16 2.023438 L 60 2.023438 L 60 46 L 16 46 Z M 16 2.023438 " clip-rule="nonzero"/></clipPath><clipPath id="2062ea8ac4"><path d="M 2.023438 51 L 54 51 L 54 74.773438 L 2.023438 74.773438 Z M 2.023438 51 " clip-rule="nonzero"/></clipPath><clipPath id="82c18fd281"><path d="M 57 51 L 74.773438 51 L 74.773438 74.773438 L 57 74.773438 Z M 57 51 " clip-rule="nonzero"/></clipPath></defs><rect x="-7.5" width="90" fill="#ffffff" y="-7.5" height="89.999996" fill-opacity="1"/><rect x="-7.5" width="90" fill="#ffffff" y="-7.5" height="89.999996" fill-opacity="1"/><rect x="-7.5" width="90" fill="#ffffff" y="-7.5" height="89.999996" fill-opacity="1"/><g clip-path="url(#5fca1411d5)"><path fill="#ff4b5c" d="M 38.277344 1.902344 C 37.570312 1.902344 36.863281 1.9375 36.160156 2.007812 C 35.457031 2.078125 34.761719 2.179688 34.066406 2.320312 C 33.375 2.457031 32.691406 2.628906 32.015625 2.835938 C 31.339844 3.039062 30.675781 3.277344 30.023438 3.550781 C 29.367188 3.820312 28.730469 4.121094 28.109375 4.457031 C 27.484375 4.789062 26.878906 5.152344 26.292969 5.542969 C 25.707031 5.9375 25.140625 6.359375 24.59375 6.804688 C 24.046875 7.253906 23.523438 7.726562 23.023438 8.226562 C 22.523438 8.726562 22.050781 9.25 21.601562 9.796875 C 21.15625 10.34375 20.734375 10.910156 20.339844 11.496094 C 19.949219 12.082031 19.585938 12.6875 19.253906 13.3125 C 18.917969 13.933594 18.617188 14.574219 18.347656 15.226562 C 18.074219 15.878906 17.835938 16.542969 17.632812 17.21875 C 17.425781 17.894531 17.253906 18.578125 17.117188 19.269531 C 16.976562 19.964844 16.875 20.660156 16.804688 21.363281 C 16.734375 22.066406 16.699219 22.773438 16.695312 23.480469 C 16.695312 24.1875 16.730469 24.890625 16.800781 25.59375 C 16.871094 26.296875 16.972656 26.996094 17.113281 27.6875 C 17.25 28.382812 17.421875 29.066406 17.625 29.742188 C 17.832031 30.417969 18.070312 31.082031 18.339844 31.738281 C 18.609375 32.390625 18.910156 33.027344 19.246094 33.652344 C 19.578125 34.273438 19.941406 34.878906 20.332031 35.46875 C 20.726562 36.054688 21.148438 36.621094 21.59375 37.167969 C 22.042969 37.714844 22.519531 38.238281 23.015625 38.738281 C 23.515625 39.238281 24.039062 39.710938 24.585938 40.160156 C 25.132812 40.609375 25.699219 41.027344 26.289062 41.421875 C 26.875 41.8125 27.480469 42.175781 28.105469 42.507812 C 28.726562 42.84375 29.363281 43.144531 30.019531 43.414062 C 30.671875 43.683594 31.335938 43.921875 32.011719 44.128906 C 32.6875 44.332031 33.371094 44.503906 34.066406 44.644531 C 34.757812 44.78125 35.457031 44.882812 36.160156 44.953125 C 36.863281 45.023438 37.570312 45.058594 38.277344 45.058594 C 38.980469 45.058594 39.6875 45.023438 40.390625 44.953125 C 41.09375 44.882812 41.792969 44.78125 42.484375 44.644531 C 43.179688 44.503906 43.863281 44.332031 44.539062 44.128906 C 45.214844 43.921875 45.878906 43.683594 46.535156 43.414062 C 47.1875 43.144531 47.824219 42.84375 48.449219 42.507812 C 49.070312 42.175781 49.675781 41.8125 50.265625 41.421875 C 50.851562 41.027344 51.417969 40.609375 51.964844 40.160156 C 52.511719 39.710938 53.035156 39.238281 53.535156 38.738281 C 54.035156 38.238281 54.507812 37.714844 54.957031 37.167969 C 55.402344 36.621094 55.824219 36.054688 56.21875 35.46875 C 56.609375 34.878906 56.972656 34.273438 57.304688 33.652344 C 57.640625 33.027344 57.941406 32.390625 58.210938 31.738281 C 58.480469 31.082031 58.71875 30.417969 58.925781 29.742188 C 59.128906 29.066406 59.300781 28.382812 59.4375 27.6875 C 59.578125 26.996094 59.679688 26.296875 59.75 25.59375 C 59.820312 24.890625 59.855469 24.1875 59.855469 23.480469 C 59.851562 22.773438 59.816406 22.066406 59.746094 21.363281 C 59.679688 20.660156 59.574219 19.964844 59.433594 19.269531 C 59.296875 18.578125 59.125 17.894531 58.917969 17.21875 C 58.714844 16.542969 58.476562 15.878906 58.203125 15.226562 C 57.933594 14.574219 57.632812 13.933594 57.296875 13.3125 C 56.964844 12.6875 56.601562 12.082031 56.210938 11.496094 C 55.816406 10.910156 55.398438 10.34375 54.949219 9.796875 C 54.5 9.25 54.027344 8.726562 53.527344 8.226562 C 53.027344 7.726562 52.503906 7.253906 51.957031 6.804688 C 51.410156 6.359375 50.84375 5.9375 50.257812 5.542969 C 49.671875 5.152344 49.066406 4.789062 48.441406 4.457031 C 47.820312 4.121094 47.183594 3.820312 46.53125 3.550781 C 45.875 3.277344 45.210938 3.039062 44.535156 2.835938 C 43.859375 2.628906 43.175781 2.457031 42.484375 2.320312 C 41.789062 2.179688 41.09375 2.078125 40.390625 2.007812 C 39.6875 1.9375 38.980469 1.902344 38.277344 1.902344 Z M 38.277344 11.148438 C 38.761719 11.148438 39.242188 11.195312 39.71875 11.289062 C 40.195312 11.386719 40.65625 11.527344 41.105469 11.710938 C 41.554688 11.898438 41.980469 12.125 42.386719 12.394531 C 42.789062 12.664062 43.164062 12.972656 43.507812 13.316406 C 43.851562 13.660156 44.15625 14.03125 44.425781 14.4375 C 44.695312 14.839844 44.925781 15.265625 45.109375 15.714844 C 45.296875 16.164062 45.4375 16.628906 45.53125 17.101562 C 45.625 17.578125 45.675781 18.0625 45.675781 18.546875 C 45.675781 19.03125 45.625 19.511719 45.53125 19.988281 C 45.4375 20.464844 45.296875 20.929688 45.109375 21.378906 C 44.925781 21.828125 44.695312 22.253906 44.425781 22.65625 C 44.15625 23.0625 43.851562 23.433594 43.507812 23.777344 C 43.164062 24.121094 42.789062 24.429688 42.386719 24.699219 C 41.980469 24.96875 41.554688 25.195312 41.105469 25.382812 C 40.65625 25.566406 40.195312 25.707031 39.71875 25.804688 C 39.242188 25.898438 38.761719 25.945312 38.277344 25.945312 C 37.789062 25.945312 37.308594 25.898438 36.832031 25.804688 C 36.355469 25.707031 35.894531 25.566406 35.445312 25.382812 C 34.996094 25.195312 34.570312 24.96875 34.164062 24.699219 C 33.761719 24.429688 33.386719 24.121094 33.042969 23.777344 C 32.699219 23.433594 32.394531 23.0625 32.125 22.65625 C 31.855469 22.253906 31.625 21.828125 31.441406 21.378906 C 31.253906 20.929688 31.113281 20.464844 31.019531 19.988281 C 30.925781 19.511719 30.878906 19.03125 30.878906 18.546875 C 30.878906 18.0625 30.925781 17.582031 31.019531 17.105469 C 31.117188 16.628906 31.257812 16.164062 31.445312 15.71875 C 31.628906 15.269531 31.859375 14.84375 32.128906 14.4375 C 32.398438 14.035156 32.703125 13.660156 33.046875 13.320312 C 33.390625 12.976562 33.765625 12.667969 34.167969 12.398438 C 34.570312 12.128906 34.996094 11.902344 35.445312 11.714844 C 35.894531 11.527344 36.355469 11.386719 36.832031 11.292969 C 37.308594 11.195312 37.789062 11.148438 38.277344 11.148438 Z M 50.1875 36.769531 C 49.75 37.160156 49.296875 37.527344 48.824219 37.875 C 48.355469 38.21875 47.867188 38.539062 47.363281 38.835938 C 46.859375 39.132812 46.34375 39.40625 45.8125 39.652344 C 45.285156 39.898438 44.742188 40.117188 44.191406 40.3125 C 43.640625 40.503906 43.082031 40.671875 42.511719 40.808594 C 41.945312 40.949219 41.371094 41.058594 40.792969 41.140625 C 40.214844 41.222656 39.632812 41.277344 39.050781 41.304688 C 38.464844 41.328125 37.882812 41.324219 37.300781 41.292969 C 36.714844 41.261719 36.136719 41.199219 35.558594 41.113281 C 34.980469 41.023438 34.410156 40.90625 33.84375 40.761719 C 33.277344 40.617188 32.71875 40.441406 32.167969 40.242188 C 31.621094 40.042969 31.082031 39.816406 30.554688 39.566406 C 30.027344 39.3125 29.515625 39.035156 29.015625 38.730469 C 28.515625 38.429688 28.03125 38.101562 27.5625 37.75 C 27.097656 37.402344 26.648438 37.027344 26.214844 36.632812 C 25.785156 36.238281 25.375 35.824219 24.984375 35.390625 C 25.324219 34.8125 25.699219 34.261719 26.109375 33.734375 C 26.519531 33.207031 26.964844 32.710938 27.4375 32.242188 C 27.914062 31.773438 28.417969 31.335938 28.953125 30.929688 C 29.484375 30.527344 30.039062 30.160156 30.621094 29.828125 C 31.203125 29.496094 31.800781 29.203125 32.417969 28.949219 C 33.039062 28.695312 33.667969 28.484375 34.316406 28.3125 C 34.960938 28.140625 35.617188 28.011719 36.277344 27.925781 C 36.941406 27.839844 37.605469 27.792969 38.277344 27.792969 C 38.945312 27.792969 39.609375 27.839844 40.273438 27.925781 C 40.933594 28.011719 41.589844 28.140625 42.234375 28.3125 C 42.882812 28.484375 43.515625 28.695312 44.132812 28.949219 C 44.75 29.203125 45.351562 29.496094 45.929688 29.828125 C 46.511719 30.160156 47.066406 30.527344 47.597656 30.929688 C 48.132812 31.335938 48.636719 31.773438 49.113281 32.242188 C 49.585938 32.710938 50.03125 33.207031 50.441406 33.734375 C 50.851562 34.261719 51.226562 34.8125 51.566406 35.390625 C 51.132812 35.875 50.671875 36.335938 50.1875 36.769531 Z M 50.1875 36.769531 " fill-opacity="1" fill-rule="nonzero"/></g><g clip-path="url(#2062ea8ac4)"><path fill="#ff4b5c" d="M 53.6875 51.222656 L 11.148438 51.222656 C 10.542969 51.222656 9.941406 51.285156 9.34375 51.402344 C 8.75 51.519531 8.171875 51.695312 7.609375 51.929688 C 7.050781 52.164062 6.519531 52.449219 6.011719 52.785156 C 5.507812 53.121094 5.042969 53.503906 4.613281 53.933594 C 4.183594 54.363281 3.800781 54.832031 3.460938 55.335938 C 3.125 55.839844 2.839844 56.371094 2.609375 56.933594 C 2.375 57.492188 2.199219 58.070312 2.082031 58.667969 C 1.960938 59.261719 1.902344 59.863281 1.902344 60.46875 L 1.902344 65.402344 C 1.902344 66.007812 1.960938 66.609375 2.082031 67.207031 C 2.199219 67.800781 2.375 68.378906 2.609375 68.941406 C 2.839844 69.5 3.125 70.03125 3.460938 70.539062 C 3.800781 71.042969 4.183594 71.507812 4.613281 71.9375 C 5.042969 72.367188 5.507812 72.75 6.011719 73.089844 C 6.519531 73.425781 7.050781 73.710938 7.609375 73.945312 C 8.171875 74.175781 8.75 74.351562 9.34375 74.472656 C 9.941406 74.589844 10.542969 74.648438 11.148438 74.652344 L 53.6875 74.652344 Z M 13.613281 64.785156 C 13.371094 64.785156 13.132812 64.738281 12.90625 64.644531 C 12.679688 64.550781 12.480469 64.417969 12.308594 64.246094 C 12.132812 64.070312 12 63.871094 11.90625 63.644531 C 11.8125 63.417969 11.765625 63.183594 11.765625 62.9375 C 11.765625 62.691406 11.8125 62.457031 11.90625 62.230469 C 12 62.003906 12.132812 61.800781 12.308594 61.628906 C 12.480469 61.457031 12.679688 61.320312 12.90625 61.226562 C 13.132812 61.132812 13.371094 61.085938 13.613281 61.085938 C 13.859375 61.085938 14.097656 61.132812 14.324219 61.226562 C 14.550781 61.320312 14.75 61.457031 14.921875 61.628906 C 15.097656 61.800781 15.230469 62.003906 15.324219 62.230469 C 15.417969 62.457031 15.464844 62.691406 15.464844 62.9375 C 15.464844 63.183594 15.417969 63.417969 15.324219 63.644531 C 15.230469 63.871094 15.097656 64.070312 14.921875 64.246094 C 14.75 64.417969 14.550781 64.550781 14.324219 64.644531 C 14.097656 64.738281 13.859375 64.785156 13.613281 64.785156 Z M 23.480469 64.785156 C 23.234375 64.785156 22.996094 64.738281 22.769531 64.644531 C 22.542969 64.550781 22.34375 64.417969 22.171875 64.246094 C 21.996094 64.070312 21.863281 63.871094 21.769531 63.644531 C 21.675781 63.417969 21.628906 63.183594 21.628906 62.9375 C 21.628906 62.691406 21.675781 62.457031 21.769531 62.230469 C 21.863281 62.003906 21.996094 61.800781 22.171875 61.628906 C 22.34375 61.457031 22.542969 61.320312 22.769531 61.226562 C 22.996094 61.132812 23.234375 61.085938 23.480469 61.085938 C 23.722656 61.085938 23.960938 61.132812 24.1875 61.226562 C 24.414062 61.320312 24.613281 61.457031 24.785156 61.628906 C 24.960938 61.800781 25.09375 62.003906 25.1875 62.230469 C 25.28125 62.457031 25.328125 62.691406 25.328125 62.9375 C 25.328125 63.183594 25.28125 63.417969 25.1875 63.644531 C 25.09375 63.871094 24.960938 64.070312 24.785156 64.246094 C 24.613281 64.417969 24.414062 64.550781 24.1875 64.644531 C 23.960938 64.738281 23.722656 64.785156 23.480469 64.785156 Z M 33.34375 64.785156 C 33.097656 64.785156 32.863281 64.738281 32.636719 64.644531 C 32.410156 64.550781 32.207031 64.417969 32.035156 64.246094 C 31.863281 64.070312 31.726562 63.871094 31.632812 63.644531 C 31.539062 63.417969 31.492188 63.183594 31.492188 62.9375 C 31.492188 62.691406 31.539062 62.457031 31.632812 62.230469 C 31.726562 62.003906 31.863281 61.800781 32.035156 61.628906 C 32.207031 61.457031 32.410156 61.320312 32.636719 61.226562 C 32.863281 61.132812 33.097656 61.085938 33.34375 61.085938 C 33.589844 61.085938 33.824219 61.132812 34.050781 61.226562 C 34.277344 61.320312 34.476562 61.457031 34.652344 61.628906 C 34.824219 61.800781 34.957031 62.003906 35.050781 62.230469 C 35.144531 62.457031 35.191406 62.691406 35.191406 62.9375 C 35.191406 63.183594 35.144531 63.417969 35.050781 63.644531 C 34.957031 63.871094 34.824219 64.070312 34.652344 64.246094 C 34.476562 64.417969 34.277344 64.550781 34.050781 64.644531 C 33.824219 64.738281 33.589844 64.785156 33.34375 64.785156 Z M 43.207031 64.785156 C 42.960938 64.785156 42.726562 64.738281 42.5 64.644531 C 42.273438 64.550781 42.074219 64.417969 41.898438 64.246094 C 41.726562 64.070312 41.59375 63.871094 41.5 63.644531 C 41.40625 63.417969 41.359375 63.183594 41.359375 62.9375 C 41.359375 62.691406 41.40625 62.457031 41.5 62.230469 C 41.59375 62.003906 41.726562 61.800781 41.898438 61.628906 C 42.074219 61.457031 42.273438 61.320312 42.5 61.226562 C 42.726562 61.132812 42.960938 61.085938 43.207031 61.085938 C 43.453125 61.085938 43.6875 61.132812 43.914062 61.226562 C 44.140625 61.320312 44.34375 61.457031 44.515625 61.628906 C 44.6875 61.800781 44.824219 62.003906 44.917969 62.230469 C 45.011719 62.457031 45.058594 62.691406 45.058594 62.9375 C 45.058594 63.183594 45.011719 63.417969 44.917969 63.644531 C 44.824219 63.871094 44.6875 64.070312 44.515625 64.246094 C 44.34375 64.417969 44.140625 64.550781 43.914062 64.644531 C 43.6875 64.738281 43.453125 64.785156 43.207031 64.785156 Z M 43.207031 64.785156 " fill-opacity="1" fill-rule="nonzero"/></g><g clip-path="url(#82c18fd281)"><path fill="#ff4b5c" d="M 65.402344 51.222656 L 57.386719 51.222656 L 57.386719 74.652344 L 65.402344 74.652344 C 66.007812 74.648438 66.609375 74.589844 67.207031 74.472656 C 67.800781 74.351562 68.378906 74.175781 68.941406 73.945312 C 69.5 73.710938 70.03125 73.425781 70.539062 73.089844 C 71.042969 72.75 71.507812 72.367188 71.9375 71.9375 C 72.367188 71.507812 72.75 71.042969 73.089844 70.539062 C 73.425781 70.03125 73.710938 69.5 73.945312 68.941406 C 74.175781 68.378906 74.351562 67.800781 74.472656 67.207031 C 74.589844 66.609375 74.648438 66.007812 74.652344 65.402344 L 74.652344 60.46875 C 74.648438 59.863281 74.589844 59.261719 74.472656 58.667969 C 74.351562 58.070312 74.175781 57.492188 73.945312 56.933594 C 73.710938 56.371094 73.425781 55.839844 73.089844 55.335938 C 72.75 54.832031 72.367188 54.363281 71.9375 53.933594 C 71.507812 53.503906 71.042969 53.121094 70.539062 52.785156 C 70.03125 52.449219 69.5 52.164062 68.941406 51.929688 C 68.378906 51.695312 67.800781 51.519531 67.207031 51.402344 C 66.609375 51.285156 66.007812 51.222656 65.402344 51.222656 Z M 65.402344 51.222656 " fill-opacity="1" fill-rule="nonzero"/></g></svg>