<svg xmlns="http://www.w3.org/2000/svg" xmlns:xlink="http://www.w3.org/1999/xlink" width="100" zoomAndPan="magnify" viewBox="0 0 75 74.999997" height="100" preserveAspectRatio="xMidYMid meet" version="1.0"><path fill="#ff4b5c" d="M 38.121094 -0.128906 C 37.378906 -0.128906 36.636719 -0.0898438 35.898438 -0.0195312 C 35.15625 0.0546875 34.425781 0.164062 33.695312 0.3125 C 32.96875 0.457031 32.246094 0.636719 31.535156 0.851562 C 30.824219 1.070312 30.128906 1.320312 29.441406 1.605469 C 28.753906 1.890625 28.085938 2.207031 27.429688 2.558594 C 26.773438 2.90625 26.136719 3.289062 25.519531 3.703125 C 24.902344 4.117188 24.308594 4.558594 23.734375 5.027344 C 23.160156 5.5 22.609375 6 22.082031 6.523438 C 21.558594 7.050781 21.058594 7.597656 20.589844 8.171875 C 20.117188 8.746094 19.675781 9.34375 19.261719 9.960938 C 18.847656 10.578125 18.46875 11.214844 18.117188 11.871094 C 17.765625 12.523438 17.449219 13.195312 17.164062 13.882812 C 16.878906 14.566406 16.628906 15.265625 16.414062 15.976562 C 16.195312 16.6875 16.015625 17.40625 15.871094 18.136719 C 15.722656 18.863281 15.613281 19.597656 15.542969 20.335938 C 15.46875 21.078125 15.429688 21.816406 15.429688 22.5625 C 15.429688 23.304688 15.464844 24.046875 15.539062 24.785156 C 15.613281 25.523438 15.71875 26.257812 15.867188 26.988281 C 16.011719 27.714844 16.191406 28.4375 16.40625 29.148438 C 16.621094 29.859375 16.871094 30.558594 17.15625 31.246094 C 17.441406 31.929688 17.757812 32.601562 18.109375 33.257812 C 18.460938 33.914062 18.839844 34.550781 19.253906 35.167969 C 19.667969 35.785156 20.109375 36.382812 20.582031 36.957031 C 21.050781 37.53125 21.550781 38.082031 22.074219 38.605469 C 22.601562 39.132812 23.152344 39.628906 23.726562 40.101562 C 24.300781 40.574219 24.894531 41.015625 25.515625 41.425781 C 26.132812 41.839844 26.769531 42.222656 27.425781 42.574219 C 28.078125 42.921875 28.75 43.238281 29.4375 43.523438 C 30.125 43.808594 30.824219 44.058594 31.535156 44.273438 C 32.246094 44.492188 32.964844 44.671875 33.695312 44.816406 C 34.421875 44.960938 35.15625 45.070312 35.894531 45.140625 C 36.636719 45.214844 37.378906 45.25 38.121094 45.25 C 38.863281 45.25 39.605469 45.214844 40.34375 45.140625 C 41.085938 45.070312 41.816406 44.960938 42.546875 44.816406 C 43.277344 44.671875 43.996094 44.492188 44.707031 44.273438 C 45.417969 44.058594 46.117188 43.808594 46.804688 43.523438 C 47.492188 43.238281 48.160156 42.921875 48.816406 42.574219 C 49.472656 42.222656 50.109375 41.839844 50.726562 41.425781 C 51.34375 41.015625 51.941406 40.574219 52.515625 40.101562 C 53.089844 39.628906 53.640625 39.132812 54.164062 38.605469 C 54.691406 38.082031 55.1875 37.53125 55.660156 36.957031 C 56.132812 36.382812 56.574219 35.785156 56.988281 35.167969 C 57.398438 34.550781 57.78125 33.914062 58.132812 33.257812 C 58.480469 32.601562 58.800781 31.929688 59.082031 31.246094 C 59.367188 30.558594 59.617188 29.859375 59.832031 29.148438 C 60.050781 28.4375 60.230469 27.714844 60.375 26.988281 C 60.519531 26.257812 60.628906 25.523438 60.703125 24.785156 C 60.773438 24.046875 60.8125 23.304688 60.8125 22.5625 C 60.808594 21.816406 60.773438 21.078125 60.699219 20.335938 C 60.625 19.597656 60.515625 18.863281 60.371094 18.136719 C 60.226562 17.40625 60.042969 16.6875 59.828125 15.976562 C 59.613281 15.265625 59.363281 14.566406 59.078125 13.882812 C 58.792969 13.195312 58.472656 12.523438 58.125 11.871094 C 57.773438 11.214844 57.390625 10.578125 56.980469 9.960938 C 56.566406 9.34375 56.125 8.746094 55.652344 8.171875 C 55.179688 7.597656 54.683594 7.050781 54.15625 6.523438 C 53.632812 6 53.082031 5.5 52.507812 5.027344 C 51.933594 4.558594 51.339844 4.117188 50.71875 3.703125 C 50.101562 3.289062 49.464844 2.90625 48.8125 2.558594 C 48.15625 2.207031 47.484375 1.890625 46.800781 1.605469 C 46.113281 1.320312 45.414062 1.070312 44.703125 0.851562 C 43.992188 0.636719 43.273438 0.457031 42.546875 0.3125 C 41.816406 0.164062 41.082031 0.0546875 40.34375 -0.0195312 C 39.605469 -0.0898438 38.863281 -0.128906 38.121094 -0.128906 Z M 38.121094 9.59375 C 38.632812 9.59375 39.136719 9.644531 39.636719 9.746094 C 40.140625 9.84375 40.625 9.992188 41.097656 10.1875 C 41.570312 10.382812 42.019531 10.621094 42.441406 10.90625 C 42.867188 11.191406 43.261719 11.511719 43.621094 11.875 C 43.984375 12.234375 44.304688 12.628906 44.589844 13.050781 C 44.871094 13.476562 45.113281 13.925781 45.308594 14.398438 C 45.503906 14.871094 45.652344 15.355469 45.75 15.855469 C 45.851562 16.359375 45.898438 16.863281 45.898438 17.375 C 45.898438 17.886719 45.851562 18.390625 45.75 18.890625 C 45.652344 19.394531 45.503906 19.878906 45.308594 20.351562 C 45.113281 20.824219 44.871094 21.273438 44.589844 21.695312 C 44.304688 22.121094 43.984375 22.515625 43.621094 22.875 C 43.261719 23.238281 42.867188 23.558594 42.441406 23.84375 C 42.019531 24.125 41.570312 24.367188 41.097656 24.5625 C 40.625 24.757812 40.140625 24.90625 39.636719 25.003906 C 39.136719 25.105469 38.632812 25.152344 38.121094 25.152344 C 37.609375 25.152344 37.105469 25.105469 36.601562 25.003906 C 36.101562 24.90625 35.613281 24.757812 35.144531 24.5625 C 34.671875 24.367188 34.222656 24.125 33.796875 23.84375 C 33.375 23.558594 32.980469 23.238281 32.621094 22.875 C 32.257812 22.515625 31.9375 22.121094 31.652344 21.695312 C 31.367188 21.273438 31.128906 20.824219 30.933594 20.351562 C 30.738281 19.878906 30.589844 19.394531 30.488281 18.890625 C 30.390625 18.390625 30.339844 17.886719 30.339844 17.375 C 30.339844 16.863281 30.390625 16.359375 30.492188 15.859375 C 30.59375 15.355469 30.742188 14.871094 30.9375 14.398438 C 31.132812 13.925781 31.371094 13.480469 31.65625 13.054688 C 31.9375 12.628906 32.261719 12.238281 32.621094 11.878906 C 32.984375 11.515625 33.375 11.195312 33.800781 10.910156 C 34.226562 10.625 34.671875 10.386719 35.144531 10.191406 C 35.617188 9.996094 36.101562 9.847656 36.601562 9.746094 C 37.105469 9.644531 37.609375 9.59375 38.121094 9.59375 Z M 50.644531 36.539062 C 50.1875 36.949219 49.710938 37.335938 49.214844 37.695312 C 48.71875 38.058594 48.207031 38.398438 47.675781 38.710938 C 47.148438 39.023438 46.605469 39.308594 46.046875 39.566406 C 45.492188 39.828125 44.921875 40.058594 44.34375 40.261719 C 43.761719 40.464844 43.171875 40.640625 42.578125 40.785156 C 41.980469 40.929688 41.378906 41.046875 40.769531 41.132812 C 40.160156 41.21875 39.550781 41.277344 38.933594 41.304688 C 38.320312 41.332031 37.707031 41.328125 37.09375 41.292969 C 36.480469 41.257812 35.871094 41.195312 35.261719 41.101562 C 34.65625 41.007812 34.054688 40.886719 33.457031 40.734375 C 32.863281 40.582031 32.277344 40.398438 31.699219 40.191406 C 31.121094 39.980469 30.554688 39.742188 30 39.476562 C 29.449219 39.210938 28.90625 38.917969 28.382812 38.601562 C 27.855469 38.28125 27.347656 37.9375 26.855469 37.570312 C 26.363281 37.199219 25.890625 36.808594 25.4375 36.394531 C 24.984375 35.980469 24.554688 35.542969 24.144531 35.085938 C 24.320312 34.785156 24.507812 34.488281 24.707031 34.195312 C 24.902344 33.90625 25.109375 33.625 25.328125 33.347656 C 25.542969 33.070312 25.765625 32.800781 26 32.539062 C 26.234375 32.277344 26.476562 32.019531 26.726562 31.773438 C 26.976562 31.527344 27.234375 31.289062 27.5 31.058594 C 27.761719 30.832031 28.035156 30.609375 28.316406 30.398438 C 28.59375 30.183594 28.882812 29.980469 29.175781 29.789062 C 29.46875 29.59375 29.765625 29.410156 30.070312 29.238281 C 30.375 29.0625 30.6875 28.898438 31 28.746094 C 31.316406 28.589844 31.636719 28.445312 31.960938 28.3125 C 32.285156 28.179688 32.617188 28.058594 32.949219 27.945312 C 33.28125 27.832031 33.617188 27.734375 33.957031 27.644531 C 34.296875 27.550781 34.636719 27.472656 34.980469 27.40625 C 35.328125 27.335938 35.671875 27.28125 36.019531 27.234375 C 36.367188 27.191406 36.71875 27.15625 37.066406 27.132812 C 37.417969 27.109375 37.769531 27.097656 38.121094 27.097656 C 38.472656 27.097656 38.820312 27.109375 39.171875 27.132812 C 39.523438 27.15625 39.871094 27.191406 40.21875 27.234375 C 40.566406 27.28125 40.914062 27.335938 41.257812 27.40625 C 41.601562 27.472656 41.945312 27.550781 42.285156 27.644531 C 42.625 27.734375 42.960938 27.832031 43.292969 27.945312 C 43.625 28.058594 43.953125 28.179688 44.277344 28.3125 C 44.605469 28.445312 44.921875 28.589844 45.238281 28.746094 C 45.554688 28.898438 45.863281 29.0625 46.167969 29.238281 C 46.472656 29.410156 46.773438 29.59375 47.066406 29.789062 C 47.359375 29.980469 47.644531 30.183594 47.925781 30.398438 C 48.203125 30.609375 48.476562 30.832031 48.742188 31.058594 C 49.007812 31.289062 49.265625 31.527344 49.515625 31.773438 C 49.765625 32.019531 50.007812 32.277344 50.242188 32.539062 C 50.472656 32.800781 50.699219 33.070312 50.914062 33.347656 C 51.128906 33.625 51.335938 33.90625 51.535156 34.195312 C 51.730469 34.488281 51.917969 34.785156 52.097656 35.085938 C 51.640625 35.597656 51.15625 36.082031 50.644531 36.539062 Z M 50.644531 36.539062 " fill-opacity="1" fill-rule="nonzero"/><path fill="#ff4b5c" d="M 54.328125 51.734375 L 9.59375 51.734375 C 8.957031 51.734375 8.324219 51.796875 7.699219 51.921875 C 7.074219 52.046875 6.464844 52.234375 5.875 52.476562 C 5.285156 52.722656 4.726562 53.023438 4.195312 53.378906 C 3.664062 53.730469 3.171875 54.136719 2.722656 54.585938 C 2.269531 55.039062 1.867188 55.527344 1.511719 56.058594 C 1.15625 56.589844 0.859375 57.148438 0.613281 57.738281 C 0.371094 58.328125 0.183594 58.9375 0.0585938 59.5625 C -0.0664062 60.1875 -0.128906 60.820312 -0.128906 61.460938 L -0.128906 66.644531 C -0.128906 67.285156 -0.0664062 67.917969 0.0585938 68.542969 C 0.183594 69.167969 0.371094 69.777344 0.613281 70.367188 C 0.859375 70.953125 1.15625 71.515625 1.511719 72.046875 C 1.867188 72.578125 2.269531 73.066406 2.722656 73.519531 C 3.171875 73.96875 3.664062 74.371094 4.195312 74.726562 C 4.726562 75.082031 5.285156 75.382812 5.875 75.625 C 6.464844 75.871094 7.074219 76.054688 7.699219 76.179688 C 8.324219 76.304688 8.957031 76.371094 9.59375 76.371094 L 54.328125 76.371094 Z M 12.1875 65.996094 C 11.929688 65.996094 11.683594 65.949219 11.445312 65.847656 C 11.207031 65.75 10.996094 65.609375 10.8125 65.429688 C 10.628906 65.246094 10.488281 65.035156 10.390625 64.796875 C 10.292969 64.558594 10.242188 64.308594 10.242188 64.050781 C 10.242188 63.792969 10.292969 63.546875 10.390625 63.308594 C 10.488281 63.070312 10.628906 62.859375 10.8125 62.675781 C 10.996094 62.496094 11.207031 62.355469 11.445312 62.253906 C 11.683594 62.15625 11.929688 62.109375 12.1875 62.109375 C 12.445312 62.109375 12.695312 62.15625 12.933594 62.253906 C 13.171875 62.355469 13.382812 62.496094 13.5625 62.675781 C 13.746094 62.859375 13.886719 63.070312 13.984375 63.308594 C 14.082031 63.546875 14.132812 63.792969 14.132812 64.050781 C 14.132812 64.308594 14.082031 64.558594 13.984375 64.796875 C 13.886719 65.035156 13.746094 65.246094 13.5625 65.429688 C 13.382812 65.609375 13.171875 65.75 12.933594 65.847656 C 12.695312 65.949219 12.445312 65.996094 12.1875 65.996094 Z M 22.5625 65.996094 C 22.304688 65.996094 22.054688 65.949219 21.816406 65.847656 C 21.578125 65.75 21.367188 65.609375 21.1875 65.429688 C 21.003906 65.246094 20.863281 65.035156 20.765625 64.796875 C 20.664062 64.558594 20.617188 64.308594 20.617188 64.050781 C 20.617188 63.792969 20.664062 63.546875 20.765625 63.308594 C 20.863281 63.070312 21.003906 62.859375 21.1875 62.675781 C 21.367188 62.496094 21.578125 62.355469 21.816406 62.253906 C 22.054688 62.15625 22.304688 62.109375 22.5625 62.109375 C 22.820312 62.109375 23.066406 62.15625 23.304688 62.253906 C 23.542969 62.355469 23.753906 62.496094 23.9375 62.675781 C 24.117188 62.859375 24.257812 63.070312 24.359375 63.308594 C 24.457031 63.546875 24.507812 63.792969 24.507812 64.050781 C 24.507812 64.308594 24.457031 64.558594 24.359375 64.796875 C 24.257812 65.035156 24.117188 65.246094 23.9375 65.429688 C 23.753906 65.609375 23.542969 65.75 23.304688 65.847656 C 23.066406 65.949219 22.820312 65.996094 22.5625 65.996094 Z M 32.933594 65.996094 C 32.675781 65.996094 32.429688 65.949219 32.191406 65.847656 C 31.953125 65.75 31.742188 65.609375 31.558594 65.429688 C 31.375 65.246094 31.234375 65.035156 31.136719 64.796875 C 31.039062 64.558594 30.988281 64.308594 30.988281 64.050781 C 30.988281 63.792969 31.039062 63.546875 31.136719 63.308594 C 31.234375 63.070312 31.375 62.859375 31.558594 62.675781 C 31.742188 62.496094 31.953125 62.355469 32.191406 62.253906 C 32.429688 62.15625 32.675781 62.109375 32.933594 62.109375 C 33.191406 62.109375 33.441406 62.15625 33.679688 62.253906 C 33.917969 62.355469 34.125 62.496094 34.308594 62.675781 C 34.492188 62.859375 34.632812 63.070312 34.730469 63.308594 C 34.828125 63.546875 34.878906 63.792969 34.878906 64.050781 C 34.878906 64.308594 34.828125 64.558594 34.730469 64.796875 C 34.632812 65.035156 34.492188 65.246094 34.308594 65.429688 C 34.125 65.609375 33.917969 65.75 33.679688 65.847656 C 33.441406 65.949219 33.191406 65.996094 32.933594 65.996094 Z M 43.308594 65.996094 C 43.050781 65.996094 42.800781 65.949219 42.5625 65.847656 C 42.324219 65.75 42.113281 65.609375 41.929688 65.429688 C 41.75 65.246094 41.609375 65.035156 41.511719 64.796875 C 41.410156 64.558594 41.363281 64.308594 41.363281 64.050781 C 41.363281 63.792969 41.410156 63.546875 41.511719 63.308594 C 41.609375 63.070312 41.75 62.859375 41.929688 62.675781 C 42.113281 62.496094 42.324219 62.355469 42.5625 62.253906 C 42.800781 62.15625 43.050781 62.109375 43.308594 62.109375 C 43.566406 62.109375 43.8125 62.15625 44.050781 62.253906 C 44.289062 62.355469 44.5 62.496094 44.683594 62.675781 C 44.863281 62.859375 45.003906 63.070312 45.105469 63.308594 C 45.203125 63.546875 45.25 63.792969 45.25 64.050781 C 45.25 64.308594 45.203125 64.558594 45.105469 64.796875 C 45.003906 65.035156 44.863281 65.246094 44.683594 65.429688 C 44.5 65.609375 44.289062 65.75 44.050781 65.847656 C 43.8125 65.949219 43.566406 65.996094 43.308594 65.996094 Z M 43.308594 65.996094 " fill-opacity="1" fill-rule="nonzero"/><path fill="#ff4b5c" d="M 66.644531 51.734375 L 58.21875 51.734375 L 58.21875 76.371094 L 66.644531 76.371094 C 67.285156 76.371094 67.917969 76.304688 68.542969 76.179688 C 69.167969 76.054688 69.777344 75.871094 70.367188 75.625 C 70.953125 75.382812 71.515625 75.082031 72.046875 74.726562 C 72.574219 74.371094 73.066406 73.96875 73.519531 73.519531 C 73.96875 73.066406 74.371094 72.574219 74.726562 72.046875 C 75.082031 71.515625 75.382812 70.953125 75.625 70.367188 C 75.871094 69.777344 76.054688 69.167969 76.179688 68.542969 C 76.304688 67.917969 76.371094 67.285156 76.371094 66.644531 L 76.371094 61.460938 C 76.371094 60.820312 76.304688 60.1875 76.179688 59.5625 C 76.054688 58.9375 75.871094 58.328125 75.625 57.738281 C 75.382812 57.148438 75.082031 56.589844 74.726562 56.058594 C 74.371094 55.527344 73.96875 55.039062 73.519531 54.585938 C 73.066406 54.136719 72.578125 53.730469 72.046875 53.378906 C 71.515625 53.023438 70.953125 52.722656 70.367188 52.476562 C 69.777344 52.234375 69.167969 52.046875 68.542969 51.921875 C 67.917969 51.796875 67.285156 51.734375 66.644531 51.734375 Z M 66.644531 51.734375 " fill-opacity="1" fill-rule="nonzero"/></svg>